<?xml version="1.0" encoding="UTF-8" standalone="no"?>
<!-- Created with Inkscape (http://www.inkscape.org/) -->

<svg
   version="1.1"
   id="svg2"
   width="666.66669"
   height="666.66669"
   viewBox="0 0 666.66669 666.66669"
   sodipodi:docname="8767134.eps"
   xmlns:inkscape="http://www.inkscape.org/namespaces/inkscape"
   xmlns:sodipodi="http://sodipodi.sourceforge.net/DTD/sodipodi-0.dtd"
   xmlns="http://www.w3.org/2000/svg"
   xmlns:svg="http://www.w3.org/2000/svg">
  <defs
     id="defs6" />
  <sodipodi:namedview
     id="namedview4"
     pagecolor="#ffffff"
     bordercolor="#000000"
     borderopacity="0.25"
     inkscape:showpageshadow="2"
     inkscape:pageopacity="0.0"
     inkscape:pagecheckerboard="0"
     inkscape:deskcolor="#d1d1d1" />
  <g
     id="g8"
     inkscape:groupmode="layer"
     inkscape:label="ink_ext_XXXXXX"
     transform="matrix(1.3333333,0,0,-1.3333333,0,666.66667)">
    <g
       id="g10"
       transform="scale(0.1)">
      <path
         d="M 5000,0 H 0 V 5000 H 5000 V 0"
         style="fill:#ffffff;fill-opacity:1;fill-rule:nonzero;stroke:none"
         id="path12" />
      <path
         d="m 2744.15,2594.88 c 0,-690.26 -559.57,-1249.83 -1249.83,-1249.83 -690.257,0 -1249.824,559.57 -1249.824,1249.83 0,690.26 559.567,1249.83 1249.824,1249.83 690.26,0 1249.83,-559.57 1249.83,-1249.83"
         style="fill:#ecb6b6;fill-opacity:1;fill-rule:nonzero;stroke:none"
         id="path14" />
      <path
         d="M 4441.96,518.98 H 948.023 c -4.136,0 -7.5,3.36 -7.5,7.5 0,4.141 3.364,7.5 7.5,7.5 H 4441.96 c 4.14,0 7.5,-3.359 7.5,-7.5 0,-4.14 -3.36,-7.5 -7.5,-7.5"
         style="fill:#29275f;fill-opacity:1;fill-rule:nonzero;stroke:none"
         id="path16" />
      <path
         d="m 4500.3,306.73 c 0,-73.218 -409.33,-132.57 -914.27,-132.57 -504.94,0 -914.27,59.352 -914.27,132.57 0,73.219 409.33,132.579 914.27,132.579 504.94,0 914.27,-59.36 914.27,-132.579"
         style="fill:#c7c7c7;fill-opacity:1;fill-rule:nonzero;stroke:none"
         id="path18" />
      <path
         d="M 3188.02,3925.03 V 1201.86 c 0,-124.32 -100.82,-225.149 -225.15,-225.149 H 1195.96 c -124.33,0 -225.151,100.829 -225.151,225.149 v 2723.17 c 0,124.33 100.821,225.15 225.151,225.15 h 1766.91 c 124.33,0 225.15,-100.82 225.15,-225.15"
         style="fill:#ffffff;fill-opacity:1;fill-rule:nonzero;stroke:none"
         id="path20" />
      <path
         d="m 2501.04,4023.59 c 0,-30.75 -24.93,-55.68 -55.68,-55.68 -30.75,0 -55.68,24.93 -55.68,55.68 0,30.75 24.93,55.68 55.68,55.68 30.75,0 55.68,-24.93 55.68,-55.68"
         style="fill:#cd4239;fill-opacity:1;fill-rule:nonzero;stroke:none"
         id="path22" />
      <path
         d="m 2745.71,4023.59 c 0,-30.75 -24.93,-55.68 -55.68,-55.68 -30.75,0 -55.68,24.93 -55.68,55.68 0,30.75 24.93,55.68 55.68,55.68 30.75,0 55.68,-24.93 55.68,-55.68"
         style="fill:#df6464;fill-opacity:1;fill-rule:nonzero;stroke:none"
         id="path24" />
      <path
         d="m 2990.38,4023.59 c 0,-30.75 -24.93,-55.68 -55.68,-55.68 -30.75,0 -55.68,24.93 -55.68,55.68 0,30.75 24.93,55.68 55.68,55.68 30.75,0 55.68,-24.93 55.68,-55.68"
         style="fill:#29275f;fill-opacity:1;fill-rule:nonzero;stroke:none"
         id="path26" />
      <path
         d="m 1195.96,4142.68 c -120.01,0 -217.651,-97.64 -217.651,-217.65 V 1201.86 c 0,-120.01 97.641,-217.641 217.651,-217.641 h 1766.91 c 120.02,0 217.66,97.631 217.66,217.641 v 2723.17 c 0,120.01 -97.64,217.65 -217.66,217.65 z M 2962.87,969.219 H 1195.96 c -128.29,0 -232.651,104.361 -232.651,232.641 v 2723.17 c 0,128.28 104.361,232.65 232.651,232.65 h 1766.91 c 128.29,0 232.66,-104.37 232.66,-232.65 V 1201.86 c 0,-128.28 -104.37,-232.641 -232.66,-232.641"
         style="fill:#29275f;fill-opacity:1;fill-rule:nonzero;stroke:none"
         id="path28" />
      <path
         d="M 3188.03,3917.53 H 970.809 c -4.141,0 -7.5,3.36 -7.5,7.5 0,4.14 3.359,7.5 7.5,7.5 H 3188.03 c 4.14,0 7.5,-3.36 7.5,-7.5 0,-4.14 -3.36,-7.5 -7.5,-7.5"
         style="fill:#29275f;fill-opacity:1;fill-rule:nonzero;stroke:none"
         id="path30" />
      <path
         d="m 1735.14,3641.11 -240.82,101.97 -240.81,-101.97 v 567.85 h 481.63 v -567.85"
         style="fill:#cd4239;fill-opacity:1;fill-rule:nonzero;stroke:none"
         id="path32" />
      <path
         d="M 3022.91,3456.38 H 1771.6 v 51.26 h 1251.31 v -51.26"
         style="fill:#c7c7c7;fill-opacity:1;fill-rule:nonzero;stroke:none"
         id="path34" />
      <path
         d="M 3022.91,3319.14 H 1771.6 v 51.26 h 1251.31 v -51.26"
         style="fill:#c7c7c7;fill-opacity:1;fill-rule:nonzero;stroke:none"
         id="path36" />
      <path
         d="M 3022.91,3181.89 H 1771.6 v 51.27 h 1251.31 v -51.27"
         style="fill:#c7c7c7;fill-opacity:1;fill-rule:nonzero;stroke:none"
         id="path38" />
      <path
         d="M 3022.91,3044.65 H 1771.6 v 51.27 h 1251.31 v -51.27"
         style="fill:#c7c7c7;fill-opacity:1;fill-rule:nonzero;stroke:none"
         id="path40" />
      <path
         d="M 2494.78,2907.41 H 1771.6 v 51.26 h 723.18 v -51.26"
         style="fill:#c7c7c7;fill-opacity:1;fill-rule:nonzero;stroke:none"
         id="path42" />
      <path
         d="M 2205.38,2640.92 H 1135.92 v 51.26 h 1069.46 v -51.26"
         style="fill:#c7c7c7;fill-opacity:1;fill-rule:nonzero;stroke:none"
         id="path44" />
      <path
         d="M 2205.38,2503.68 H 1135.92 v 51.26 h 1069.46 v -51.26"
         style="fill:#c7c7c7;fill-opacity:1;fill-rule:nonzero;stroke:none"
         id="path46" />
      <path
         d="M 2205.38,2366.44 H 1135.92 v 51.26 h 1069.46 v -51.26"
         style="fill:#c7c7c7;fill-opacity:1;fill-rule:nonzero;stroke:none"
         id="path48" />
      <path
         d="M 2205.38,2229.2 H 1135.92 v 51.26 h 1069.46 v -51.26"
         style="fill:#c7c7c7;fill-opacity:1;fill-rule:nonzero;stroke:none"
         id="path50" />
      <path
         d="m 1906.06,2091.95 h -770.14 v 51.27 h 770.14 v -51.27"
         style="fill:#c7c7c7;fill-opacity:1;fill-rule:nonzero;stroke:none"
         id="path52" />
      <path
         d="m 3015.19,3615.7 h -868.8 v 143.24 h 868.8 V 3615.7"
         style="fill:#df6464;fill-opacity:1;fill-rule:nonzero;stroke:none"
         id="path54" />
      <path
         d="m 2133.19,1079.46 c -1.1,0 -2.21,0.25 -3.23,0.73 l -198.79,94.82 c -3.75,1.78 -5.33,6.26 -3.55,10 1.78,3.74 6.28,5.32 10,3.53 l 195.57,-93.27 195.57,93.27 c 3.74,1.78 8.22,0.21 10,-3.53 1.78,-3.74 0.2,-8.22 -3.54,-10 l -198.8,-94.82 c -1.02,-0.48 -2.13,-0.73 -3.23,-0.73"
         style="fill:#29275f;fill-opacity:1;fill-rule:nonzero;stroke:none"
         id="path56" />
      <path
         d="m 1688.07,2899.46 h -552.15 v 608.18 h 552.15 v -608.18"
         style="fill:#df6464;fill-opacity:1;fill-rule:nonzero;stroke:none"
         id="path58" />
      <path
         d="m 1448.97,3165.18 -35.41,116.43 -35.4,-116.43 z m 33.83,-112.45 h -138.48 l -24.47,-80.71 H 1194.9 l 159.31,463.06 H 1475 l 159.31,-463.06 h -127.03 l -24.48,80.71"
         style="fill:#ffffff;fill-opacity:1;fill-rule:nonzero;stroke:none"
         id="path60" />
      <path
         d="m 2906.27,2091.95 h -545.09 v 600.23 h 545.09 v -600.23"
         style="fill:#df6464;fill-opacity:1;fill-rule:nonzero;stroke:none"
         id="path62" />
      <path
         d="m 2688.72,2323.94 c 0,18.87 -13.36,28.83 -40.09,28.83 h -72.98 v -57.65 h 72.98 c 26.73,0 40.09,9.96 40.09,28.82 z m -113.07,165.08 v -54.51 h 56.54 c 27.23,0 39.57,9.44 39.57,27.26 0,17.81 -12.34,27.25 -39.57,27.25 z m 235.4,-179.22 c 0,-63.94 -52.94,-101.14 -152.14,-101.14 H 2456.4 v 366.82 h 192.23 c 99.2,0 145.46,-40.35 145.46,-95.9 0,-34.06 -16.97,-62.35 -49.86,-79.12 42.15,-15.73 66.82,-47.17 66.82,-90.66"
         style="fill:#ffffff;fill-opacity:1;fill-rule:nonzero;stroke:none"
         id="path64" />
      <path
         d="M 2906.27,1857.27 H 1153.34 v 51.27 h 1752.93 v -51.27"
         style="fill:#c7c7c7;fill-opacity:1;fill-rule:nonzero;stroke:none"
         id="path66" />
      <path
         d="M 2906.27,1720.03 H 1153.34 v 51.26 h 1752.93 v -51.26"
         style="fill:#c7c7c7;fill-opacity:1;fill-rule:nonzero;stroke:none"
         id="path68" />
      <path
         d="M 2906.27,1582.79 H 1153.34 v 51.26 h 1752.93 v -51.26"
         style="fill:#c7c7c7;fill-opacity:1;fill-rule:nonzero;stroke:none"
         id="path70" />
      <path
         d="m 2079.41,1445.55 h -926.07 v 46.61 h 926.07 v -46.61"
         style="fill:#c7c7c7;fill-opacity:1;fill-rule:nonzero;stroke:none"
         id="path72" />
      <path
         d="m 4634.96,3328.26 -134.66,-134.24 17.85,239.96 c 12.36,-27.25 71.71,-72.98 100.76,-94.21 9.72,-7.18 16.05,-11.51 16.05,-11.51"
         style="fill:#cd4239;fill-opacity:1;fill-rule:nonzero;stroke:none"
         id="path74" />
      <path
         d="m 4510.02,3889.51 h 0.1 c -0.21,-0.32 -0.42,-0.53 -0.74,-0.85 0.21,0.32 0.43,0.53 0.64,0.85"
         style="fill:#ffffff;fill-opacity:1;fill-rule:nonzero;stroke:none"
         id="path76" />
      <path
         d="m 4478.86,4314.62 0.11,-0.21 c -21.55,-12.04 -46.05,-18.06 -69.61,-20.49 23.56,2.53 47.95,8.66 69.5,20.7"
         style="fill:#ffffff;fill-opacity:1;fill-rule:nonzero;stroke:none"
         id="path78" />
      <path
         d="m 4370.71,4292.34 c 5.07,-0.11 10.35,-0.22 15.73,0 4.55,0.1 9.09,0.31 13.73,0.63 3.07,0.21 6.13,0.53 9.19,0.95 23.56,2.43 48.06,8.45 69.61,20.49 l 81.32,-315.38 c 0,0 -0.1,-0.1 -0.21,-0.52 -0.63,-3.07 -3.8,-15.11 -9.4,-31.06 -1.16,-3.38 -2.54,-6.97 -3.91,-10.77 -1.27,-3.59 -2.85,-7.29 -4.43,-10.88 -0.95,-2.74 -2.01,-5.28 -3.38,-7.92 -3.38,-7.92 -7.4,-15.74 -11.73,-23.45 -1.37,-2.32 -2.85,-4.64 -4.12,-6.86 -1.9,-3.06 -3.8,-6.02 -5.81,-8.87 -2,-2.75 -4.01,-5.49 -6.12,-8.03 -0.21,-0.21 -0.32,-0.53 -0.53,-0.74 -0.1,-0.1 -0.32,-0.32 -0.53,-0.42 h -0.1 c -0.21,-0.32 -0.43,-0.53 -0.64,-0.85 -0.74,-0.95 -1.48,-1.9 -2.21,-2.85 -1.17,-1.16 -2.22,-2.32 -3.38,-3.38 -0.53,-0.53 -1.27,-1.16 -1.91,-1.69 -0.42,-0.42 -0.63,-0.74 -0.95,-1.05 -0.31,-0.21 -0.52,-0.53 -0.95,-0.74 -0.74,-0.64 -1.48,-1.38 -2.32,-1.9 -0.63,-0.53 -1.06,-0.95 -1.69,-1.48 -2.53,-2.01 -5.07,-3.7 -7.92,-5.39 h -0.11 v -0.1 h -0.1 c -1.48,-0.85 -2.96,-1.59 -4.54,-2.12 -0.64,-0.31 -1.17,-0.53 -1.8,-0.74 -0.53,-0.31 -1.06,-0.52 -1.58,-0.63 -1.8,-0.74 -3.49,-1.27 -5.28,-1.58 -1.48,-0.43 -3.07,-0.64 -4.55,-0.85 -2.53,-0.21 -5.17,-0.32 -7.81,-0.1 -2.64,0.21 -5.49,0.52 -8.03,1.05 -2.43,0.53 -4.86,1.16 -7.08,2.01 -4.75,1.69 -8.97,4.01 -12.99,6.86 -0.52,0.32 -1.05,0.64 -1.47,1.06 -0.32,0.21 -0.64,0.53 -0.96,0.74 -1.58,1.16 -3.06,2.43 -4.54,3.8 h -0.1 v 0.11 H 4427 c -0.95,1.05 -2.01,2 -2.96,2.95 -0.95,1.06 -2,2.22 -2.95,3.38 -2.01,2.33 -4.02,4.65 -5.71,7.19 v 0.1 c -0.31,0.32 -0.52,0.64 -0.74,1.06 -1.05,1.48 -2,3.06 -2.95,4.75 -0.43,0.74 -0.74,1.37 -1.16,2.11 -0.32,0.53 -0.64,0.95 -0.96,1.48 -2.74,4.75 -5.06,9.93 -7.28,14.79 -0.32,0.95 -0.53,1.9 -0.85,2.85 -0.74,1.58 -1.37,3.27 -2,4.96 -0.64,1.8 -1.17,3.59 -1.69,5.39 -0.22,0.32 -0.32,0.74 -0.43,1.16 -0.21,0.42 -0.21,0.85 -0.31,1.27 -1.17,2.85 -1.8,5.91 -2.64,8.87 -0.43,1.27 -0.64,2.43 -0.95,3.7 -0.32,1.16 -0.53,2.43 -0.74,3.59 -0.11,0.53 -0.22,1.16 -0.43,1.79 -0.1,0.64 -0.21,1.17 -0.42,1.69 0,0.22 -0.1,0.32 -0.1,0.43 0,0.1 0,0.21 -0.11,0.31 -0.85,4.02 -1.58,7.61 -2.11,10.67 -0.11,1.16 -0.11,2.43 -0.42,3.38 -0.11,0.63 -0.11,1.27 -0.22,1.8 0,0.31 -0.1,0.52 -0.1,0.84 -0.11,0.42 -0.11,0.74 -0.21,1.06 -0.11,0.95 -0.21,1.58 -0.32,2 -0.11,-0.21 -0.21,-0.52 -0.32,-0.95 -0.31,-0.84 -0.74,-2.11 -1.37,-3.8 0,0 0,0 0,-0.1 -0.32,-0.74 -0.63,-1.69 -1.06,-2.65 -1.05,-2.95 -2.53,-6.65 -4.33,-10.87 -0.74,-1.38 -1.37,-2.86 -2.11,-4.44 0,0 0,0 0,-0.21 0,0 0,-0.11 0,-0.21 -0.95,-1.8 -1.9,-3.7 -2.96,-5.81 -0.21,-0.32 -0.31,-0.74 -0.52,-1.06 -0.22,-0.31 -0.43,-0.74 -0.64,-1.16 -1.05,-2.22 -2.32,-4.44 -3.59,-6.76 -1.05,-1.79 -2.11,-3.59 -3.38,-5.39 -0.32,-0.52 -0.63,-0.95 -1.05,-1.58 0,-0.11 0,-0.21 -0.11,-0.32 0,-0.1 0,-0.21 -0.11,-0.31 -0.31,-0.74 -0.74,-1.38 -1.16,-1.9 -1.69,-2.64 -3.48,-5.18 -5.38,-7.82 -0.22,-0.42 -0.64,-0.95 -0.95,-1.37 -1.48,-2.12 -3.07,-4.23 -4.86,-6.23 -8.56,-10.46 -18.8,-19.86 -30.95,-26.09 l -3.8,-1.9 c -3.06,-1.38 -6.34,-2.54 -9.61,-3.49 -3.8,-1.05 -7.71,-1.79 -11.73,-2.11 -3.69,-0.32 -7.6,-0.42 -11.51,-0.11 -2.32,0.11 -4.54,0.43 -6.65,0.95 -4.33,0.95 -8.35,2.33 -12.15,4.23 -1.79,0.95 -3.59,2.01 -5.28,3.17 -2.11,1.48 -3.91,2.95 -5.81,4.75 h -0.1 v 0.11 c -0.21,0.1 -0.32,0.21 -0.32,0.21 -0.42,0.42 -0.85,0.84 -1.27,1.26 -1.37,1.38 -2.64,2.86 -3.91,4.23 -0.95,1.06 -1.79,2.22 -2.53,3.38 -0.85,1.06 -1.58,2.11 -2.32,3.27 -0.32,0.53 -0.74,1.16 -1.17,1.8 -0.42,0.53 -0.74,1.05 -1.05,1.69 -0.74,1.27 -1.38,2.53 -2.01,3.8 -1.05,1.69 -2.01,3.49 -2.85,5.39 -0.85,1.9 -1.69,3.8 -2.43,5.81 -0.84,2.21 -1.8,4.33 -2.32,6.65 -2.75,7.08 -4.65,14.58 -6.23,22.07 l -0.85,4.65 c -5.39,27.46 -5.6,54.18 -5.49,64.64 0.1,2.96 0.1,4.65 0.1,4.65 l 119.03,270.9 c 1.48,-0.1 2.96,-0.31 4.44,-0.42 1.48,-0.1 3.06,-0.21 4.65,-0.42 2.85,-0.21 5.91,-0.42 8.98,-0.63 1.69,-0.11 3.48,-0.21 5.38,-0.21 2.01,-0.11 4.12,-0.21 6.13,-0.21"
         style="fill:#ffffff;fill-opacity:1;fill-rule:nonzero;stroke:none"
         id="path80" />
      <path
         d="m 4410.53,3901.23 c 0.42,-0.74 0.73,-1.37 1.16,-2.11 -0.43,0.63 -0.85,1.37 -1.27,2.11 -0.32,0.53 -0.53,0.95 -0.85,1.48 0.32,-0.53 0.64,-0.95 0.96,-1.48"
         style="fill:#ffffff;fill-opacity:1;fill-rule:nonzero;stroke:none"
         id="path82" />
      <path
         d="m 4401.44,3920.35 c 0.32,-0.95 0.53,-1.9 0.85,-2.85 -0.32,0.95 -0.64,1.9 -0.95,2.85 -0.64,1.69 -1.27,3.27 -1.9,4.96 0.63,-1.69 1.26,-3.38 2,-4.96"
         style="fill:#ffffff;fill-opacity:1;fill-rule:nonzero;stroke:none"
         id="path84" />
      <path
         d="m 4397.75,3930.7 c 0.52,-1.8 1.05,-3.59 1.69,-5.39 -0.64,1.8 -1.27,3.59 -1.8,5.39 -0.11,0.32 -0.21,0.74 -0.32,1.16 0.11,-0.42 0.21,-0.84 0.43,-1.16"
         style="fill:#ffffff;fill-opacity:1;fill-rule:nonzero;stroke:none"
         id="path86" />
      <path
         d="m 4400.81,3742.28 c 8.13,12.78 36.75,5.81 36.75,5.81 -6.86,11.72 -2.64,26.4 15,30.52 17.22,3.91 86.4,-17.53 89.78,-18.59 0.1,0 0.1,0 0.1,0 l 7.18,96.85 c 20.28,5.6 32.11,-25.45 33.27,-44.88 1.06,-19.44 90.62,-204.06 96.11,-236.38 5.5,-32.31 29.05,-94.73 22.08,-117.44 -5.81,-18.7 -62.53,-93.05 -82.17,-118.4 -29.05,21.23 -88.4,66.96 -100.76,94.21 -23.55,52.39 2.75,110.79 2.75,110.79 0,0 -129.28,62.21 -138.47,69.39 -9.29,7.19 -3.48,25.67 4.12,28.63 7.29,2.85 67.6,-10.25 70.66,-10.99 -2.75,1.38 -47.11,22.6 -57.88,27.46 -10.98,4.97 -17.74,12.68 -16.79,28.31 0.84,15.63 18.27,17.21 18.27,17.21 -8.77,8.24 -8.03,24.61 0,37.5"
         style="fill:#ffffff;fill-opacity:1;fill-rule:nonzero;stroke:none"
         id="path88" />
      <path
         d="m 4392.25,3951.08 c 0.21,-0.63 0.32,-1.26 0.43,-1.79 0.21,-1.16 0.42,-2.43 0.74,-3.59 -0.32,1.26 -0.53,2.43 -0.85,3.69 -0.11,0.64 -0.21,1.17 -0.32,1.69"
         style="fill:#ffffff;fill-opacity:1;fill-rule:nonzero;stroke:none"
         id="path90" />
      <path
         d="m 4376.09,3944.22 c 1.06,2.11 2.01,4.01 2.96,5.81 -0.95,-1.69 -1.9,-3.7 -2.85,-5.81 -0.21,-0.32 -0.42,-0.63 -0.63,-1.06 0.21,0.32 0.31,0.74 0.52,1.06"
         style="fill:#ffffff;fill-opacity:1;fill-rule:nonzero;stroke:none"
         id="path92" />
      <path
         d="m 4366.91,3928.27 c 0.42,0.63 0.73,1.06 1.05,1.58 -0.21,-0.52 -0.63,-1.05 -0.95,-1.58 -0.1,-0.11 -0.1,-0.21 -0.21,-0.32 0.11,0.11 0.11,0.21 0.11,0.32"
         style="fill:#ffffff;fill-opacity:1;fill-rule:nonzero;stroke:none"
         id="path94" />
      <path
         d="m 4365,316.371 h -74.14 l 8.87,122.938 c 14.89,-4.329 27.67,-10.25 34.75,-18.168 25.45,-28.731 30.52,-104.77 30.52,-104.77"
         style="fill:#b22522;fill-opacity:1;fill-rule:nonzero;stroke:none"
         id="path96" />
      <path
         d="m 4478.86,4314.62 c -21.55,-12.04 -45.94,-18.17 -69.5,-20.7 -3.06,-0.42 -6.12,-0.74 -9.19,-0.95 -4.64,-0.32 -9.18,-0.53 -13.73,-0.63 -5.38,-0.22 -10.66,-0.11 -15.73,0 -2.01,0 -4.12,0.1 -6.13,0.21 -1.9,0 -3.69,0.1 -5.38,0.21 -3.07,0.21 -6.13,0.42 -8.98,0.63 -1.59,0.21 -3.17,0.32 -4.65,0.42 -1.27,0.11 -2.53,0.32 -3.8,0.42 l 68.76,164.24 36.86,10.24 32,-154.09 c -0.11,-0.11 -0.32,-0.11 -0.42,-0.21 l -0.11,0.21"
         style="fill:#29275f;fill-opacity:1;fill-rule:nonzero;stroke:none"
         id="path98" />
      <path
         d="m 4267.94,3881.8 c 3.8,-1.9 7.82,-3.28 12.15,-4.23 -4.33,0.85 -8.35,2.33 -12.15,4.23"
         style="fill:#ffffff;fill-opacity:1;fill-rule:nonzero;stroke:none"
         id="path100" />
      <path
         d="m 4560.08,3998.51 -17.74,-238.49 c -3.38,1.06 -72.56,22.5 -89.78,18.59 -17.64,-4.12 -21.86,-18.8 -15,-30.52 0,0 -28.62,6.97 -36.75,-5.81 -8.03,-12.89 -8.77,-29.26 0,-37.5 0,0 -17.43,-1.58 -18.27,-17.21 -0.95,-15.63 5.81,-23.34 16.79,-28.31 10.77,-4.86 55.13,-26.08 57.88,-27.46 -3.06,0.74 -63.37,13.84 -70.66,10.99 -7.6,-2.96 -13.41,-21.44 -4.12,-28.63 9.19,-7.18 138.47,-69.39 138.47,-69.39 0,0 -26.3,-58.4 -2.75,-110.79 l -17.85,-239.96 -154.83,-2083.51 -7.19,-101.08 h -0.1 c -5.49,-1.48 -11.09,-2.85 -16.58,-4.12 -5.5,-1.27 -10.99,-2.43 -16.48,-3.49 -5.49,-1.05 -10.88,-2 -16.27,-2.851 -4.75,-0.84 -9.5,-1.481 -14.15,-2 -2.43,-0.321 -4.86,-0.637 -7.18,-0.848 -10.77,-1.269 -21.34,-2.109 -31.69,-2.531 -3.38,-0.211 -6.76,-0.32 -10.14,-0.43 -12.67,-0.422 -25.13,-0.308 -37.28,0.219 -10.88,0.422 -21.44,1.16 -31.79,2.211 -1.58,0.109 -3.06,0.32 -4.65,0.531 -1.9,0.109 -3.69,0.32 -5.49,0.641 -10.03,1.047 -19.64,2.418 -28.94,4.008 -3.48,0.63 -6.86,1.27 -10.14,1.9 -2.64,0.42 -5.17,0.95 -7.71,1.37 -4.33,0.85 -8.55,1.8 -12.67,2.75 -2.11,0.42 -4.12,0.84 -6.13,1.37 -17.95,4.12 -33.48,8.66 -45.94,12.68 -3.7,1.16 -7.18,2.32 -10.35,3.38 -5.92,2.11 -10.88,4.01 -14.79,5.38 -0.21,0.21 -0.42,0.32 -0.74,0.32 -0.74,0.32 -1.47,0.53 -2.11,0.84 -4.54,1.8 -6.97,2.86 -6.97,2.86 v 0.1 l 6.76,93.16 c -1.48,1.05 20.81,296.15 38.45,534.1 v 0.53 c 11.93,159.91 21.75,293.83 20.91,294.46 l 17.95,249.79 62.63,822.55 53.76,707.63 21.55,282.74 c -0.11,-10.46 0.1,-37.18 5.49,-64.64 l 0.85,-4.65 c 1.58,-7.49 3.48,-14.99 6.23,-22.07 0.52,-2.32 1.48,-4.44 2.32,-6.65 0.74,-2.01 1.58,-3.91 2.43,-5.81 0.84,-1.8 1.69,-3.7 2.75,-5.39 0.63,-1.27 1.37,-2.53 2.11,-3.8 0.31,-0.64 0.63,-1.16 1.05,-1.69 0.43,-0.64 0.74,-1.16 1.06,-1.8 0.85,-1.16 1.58,-2.21 2.43,-3.27 0.74,-1.16 1.58,-2.32 2.53,-3.38 1.27,-1.37 2.54,-2.85 3.91,-4.23 0.42,-0.42 0.85,-0.84 1.27,-1.26 v -0.11 c 0,0 0.11,-0.1 0.32,-0.21 h 0.1 c 1.9,-1.8 3.7,-3.27 5.81,-4.75 1.69,-1.16 3.49,-2.22 5.28,-3.17 3.8,-1.9 7.82,-3.38 12.15,-4.23 2.11,-0.52 4.33,-0.84 6.65,-0.95 3.91,-0.31 7.82,-0.21 11.51,0.11 4.02,0.32 7.93,1.06 11.73,2.11 3.27,0.95 6.55,2.11 9.61,3.49 l 3.8,1.9 c 12.15,6.23 22.39,15.63 30.95,26.09 1.79,2 3.38,4.11 4.86,6.23 0.31,0.42 0.73,0.95 0.95,1.37 1.9,2.64 3.69,5.18 5.38,7.82 0.53,0.63 0.95,1.26 1.16,1.9 0.11,0.1 0.11,0.21 0.11,0.31 0.11,0.11 0.11,0.21 0.21,0.32 0.32,0.53 0.74,1.06 0.95,1.58 1.27,1.8 2.33,3.6 3.38,5.39 1.27,2.32 2.54,4.54 3.59,6.76 0.21,0.42 0.42,0.85 0.64,1.16 0.21,0.43 0.42,0.74 0.63,1.06 0.95,2.11 1.9,4.12 2.85,5.81 0,0.1 0,0.21 0,0.21 0,0.1 0.11,0.21 0.11,0.21 0.74,1.48 1.48,2.96 2,4.44 1.8,4.22 3.28,7.92 4.33,10.87 0.43,0.96 0.85,1.91 1.06,2.65 0,0.1 0,0.1 0,0.1 0.63,1.69 1.06,2.96 1.37,3.8 0.11,0.43 0.21,0.74 0.32,0.95 0.11,-0.42 0.21,-1.05 0.32,-2 0.1,-0.32 0.1,-0.74 0.1,-1.16 0.11,-0.22 0.11,-0.53 0.21,-0.74 0.11,-0.53 0.11,-1.17 0.22,-1.8 0.21,-1.06 0.21,-2.32 0.42,-3.38 0.53,-3.06 1.26,-6.65 2.11,-10.67 0.11,-0.1 0.11,-0.21 0.11,-0.31 0,-0.11 0.1,-0.21 0.1,-0.43 0.21,-0.52 0.32,-1.05 0.42,-1.69 0.11,-0.52 0.21,-1.05 0.32,-1.69 0.32,-1.26 0.53,-2.43 0.85,-3.69 0.31,-1.27 0.52,-2.43 0.95,-3.7 0.84,-2.96 1.47,-6.02 2.64,-8.87 0.1,-0.42 0.1,-0.85 0.31,-1.27 0.11,-0.42 0.21,-0.84 0.32,-1.16 0.53,-1.8 1.16,-3.59 1.8,-5.39 0.63,-1.69 1.26,-3.27 1.9,-4.96 0.31,-0.95 0.63,-1.9 0.95,-2.85 2.22,-4.86 4.54,-10.04 7.28,-14.79 0.32,-0.53 0.53,-0.95 0.85,-1.48 0.42,-0.74 0.84,-1.48 1.27,-2.11 0.95,-1.69 1.9,-3.27 2.95,-4.75 0.22,-0.42 0.43,-0.74 0.74,-1.06 v -0.1 c 1.69,-2.54 3.7,-4.86 5.71,-7.19 0.84,-1.16 1.9,-2.32 2.95,-3.38 0.95,-0.95 2.01,-1.9 2.96,-2.95 l 0.11,-0.11 h 0.1 c 1.48,-1.37 2.96,-2.64 4.54,-3.8 0.32,-0.21 0.64,-0.53 0.96,-0.74 0.42,-0.42 0.95,-0.74 1.47,-1.06 4.02,-2.85 8.24,-5.17 12.99,-6.86 2.22,-0.85 4.65,-1.48 7.08,-2.01 2.54,-0.53 5.39,-0.95 8.03,-1.16 2.74,-0.11 5.28,-0.11 7.81,0.21 1.48,0.21 3.07,0.42 4.55,0.85 1.79,0.31 3.48,0.84 5.28,1.58 0.52,0.11 1.05,0.32 1.58,0.63 0.63,0.21 1.16,0.43 1.8,0.74 1.58,0.53 3.06,1.27 4.54,2.12 h 0.1 c 0.11,0.1 0.11,0.1 0.11,0.1 2.85,1.69 5.39,3.38 7.92,5.39 0.74,0.42 1.27,0.84 1.69,1.48 0.84,0.52 1.58,1.26 2.32,1.9 0.43,0.21 0.64,0.53 0.95,0.74 0.95,0.84 1.9,1.69 2.86,2.74 1.16,1.06 2.21,2.22 3.38,3.38 0.73,0.95 1.47,1.9 2.21,2.85 0.32,0.32 0.53,0.53 0.74,0.85 0.21,0.1 0.43,0.32 0.53,0.42 0.21,0.21 0.42,0.42 0.63,0.74 2.01,2.54 4.12,5.28 6.02,8.03 2.01,2.85 3.91,5.81 5.81,8.87 1.27,2.22 2.75,4.54 4.12,6.86 4.33,7.71 8.35,15.53 11.73,23.45 1.37,2.64 2.43,5.18 3.38,7.92 1.58,3.59 3.16,7.29 4.43,10.88 1.48,3.8 2.85,7.39 3.91,10.77 5.6,15.95 8.77,27.99 9.4,31.06"
         style="fill:#df6464;fill-opacity:1;fill-rule:nonzero;stroke:none"
         id="path102" />
      <path
         d="m 4117.54,1000.77 c -3.48,0.63 -6.86,1.16 -10.14,1.79 v 0.11 c 3.28,-0.63 6.66,-1.27 10.14,-1.9"
         style="fill:#ffffff;fill-opacity:1;fill-rule:nonzero;stroke:none"
         id="path104" />
      <path
         d="m 4107.4,1002.67 v -0.11 c -2.64,0.53 -5.17,0.95 -7.71,1.48 2.54,-0.42 5.07,-0.95 7.71,-1.37"
         style="fill:#ffffff;fill-opacity:1;fill-rule:nonzero;stroke:none"
         id="path106" />
      <path
         d="m 4024.6,1024.22 c -5.92,2 -10.88,3.8 -14.79,5.38 3.91,-1.37 8.87,-3.27 14.79,-5.38"
         style="fill:#ffffff;fill-opacity:1;fill-rule:nonzero;stroke:none"
         id="path108" />
      <path
         d="m 4188.41,993.379 c 12.15,-0.527 24.61,-0.641 37.28,-0.219 3.38,0.11 6.76,0.219 10.14,0.43 10.35,0.422 20.92,1.262 31.69,2.531 2.32,0.211 4.75,0.527 7.18,0.848 4.65,0.519 9.4,1.16 14.15,2 5.39,0.851 10.78,1.801 16.27,2.851 5.49,1.06 10.98,2.22 16.48,3.49 5.49,1.27 11.09,2.64 16.58,4.12 l -25.35,-387.301 c -48.58,-13.199 -95.9,-17.32 -138.99,-16.481 -6.45,0.114 -12.89,0.434 -19.12,0.852 -3.38,0.102 -6.65,0.32 -9.93,0.629 -3.17,0.113 -6.23,0.43 -9.29,0.742 -6.02,0.527 -12.04,1.16 -17.85,1.899 -11.41,1.378 -22.29,3.07 -32.64,4.859 -2.95,0.531 -5.91,1.062 -8.76,1.691 -7.82,1.481 -15.21,3.059 -22.18,4.75 -4.23,0.95 -8.24,1.91 -12.04,2.961 -2.43,0.641 -4.86,1.27 -7.29,1.899 -9.4,2.539 -17.85,5.07 -25.24,7.5 -3.7,1.16 -7.08,2.332 -10.25,3.379 -9.5,3.382 -16.48,6.132 -20.49,7.711 -0.63,0.32 -1.27,0.531 -1.79,0.742 -1.48,0.738 -2.33,1.058 -2.33,1.058 l 25.35,387.3 c 0,0 2.43,-1.06 6.97,-2.86 0.64,-0.31 1.37,-0.52 2.11,-0.84 0.32,0 0.53,-0.11 0.74,-0.32 3.91,-1.58 8.87,-3.38 14.79,-5.38 3.17,-1.06 6.65,-2.22 10.35,-3.38 12.46,-4.02 27.99,-8.56 45.94,-12.68 2.01,-0.53 4.02,-0.95 6.13,-1.37 4.12,-0.95 8.34,-1.9 12.67,-2.75 2.54,-0.53 5.07,-0.95 7.71,-1.48 3.28,-0.63 6.66,-1.16 10.14,-1.79 9.3,-1.59 18.91,-2.961 28.94,-4.008 1.8,-0.321 3.59,-0.532 5.49,-0.641 1.59,-0.211 3.07,-0.422 4.65,-0.531 10.35,-1.051 20.91,-1.789 31.79,-2.211"
         style="fill:#c7c7c7;fill-opacity:1;fill-rule:nonzero;stroke:none"
         id="path110" />
      <path
         d="m 4009.5,633.43 c 7.39,-2.43 15.84,-4.961 25.24,-7.5 2.43,-0.629 4.86,-1.258 7.29,-1.899 3.8,-1.051 7.81,-2.011 12.04,-2.961 6.97,-1.691 14.36,-3.269 22.18,-4.75 2.85,-0.629 5.81,-1.16 8.76,-1.691 10.35,-1.899 21.23,-3.481 32.64,-4.859 5.81,-0.739 11.83,-1.372 17.85,-1.899 3.06,-0.312 6.12,-0.629 9.29,-0.742 3.28,-0.309 6.55,-0.527 9.93,-0.629 6.23,-0.418 12.67,-0.738 19.12,-0.852 43.09,-0.839 90.41,3.282 138.99,16.481 l -13.1,-182.82 -8.87,-122.938 -0.84,-12.25 c -177.65,-48.269 -338.09,24.078 -338.09,24.078 l 1.27,18.27 v 0.101 l 11.62,161.489 9.82,138.261 c 0,0 0.85,-0.32 2.33,-1.058 0.52,-0.211 1.16,-0.422 1.79,-0.742 4.01,-1.579 10.99,-4.329 20.49,-7.711 3.17,-1.047 6.55,-2.219 10.25,-3.379"
         style="fill:#cd4239;fill-opacity:1;fill-rule:nonzero;stroke:none"
         id="path112" />
      <path
         d="M 3964.82,508.059 3953.2,346.57 3831.95,398.539 V 538.48 c 32.32,-14.468 85.34,-33.8 132.87,-30.421"
         style="fill:#b22522;fill-opacity:1;fill-rule:nonzero;stroke:none"
         id="path114" />
      <path
         d="m 3717.57,4259.8 33.37,-178.91 13.52,-72.25 c 0,0 -64.21,-126.52 -165.92,-133.49 -101.6,-6.98 -157.48,143.85 -157.48,143.85 l 1.9,10.98 c 0,0 209.44,-58.62 265.84,195.18 0,0.11 0.11,0.32 0.11,0.42 3.7,10.67 6.65,22.08 8.66,34.22"
         style="fill:#ffffff;fill-opacity:1;fill-rule:nonzero;stroke:none"
         id="path116" />
      <path
         d="m 3217.37,507.219 c -67.28,4.332 -102.66,30.312 -119.56,48.793 -9.93,10.879 -13.52,19.226 -13.52,19.226 V 1580.82 l 20.8,981.08 c 53.13,-31.26 206.7,-107.31 443.07,-108.15 243.98,-0.74 379.06,112.9 419.72,153.88 l 77.32,-946.12 v -0.53 c -17.64,-237.95 -39.93,-533.05 -38.45,-534.1 l -6.76,-93.16 v -0.1 l -25.35,-387.3 -9.82,-138.261 c -47.53,-3.379 -100.55,15.953 -132.87,30.421 -18.48,8.352 -30.1,15 -30.1,15 l -102.97,870.71 -156.53,849.48 -70.55,-638.04 -50.38,-1077.4 c 0,0 -10.35,-6.121 -27.88,-14.05 -36.44,-16.789 -104.14,-41.61 -176.17,-36.961"
         style="fill:#29275f;fill-opacity:1;fill-rule:nonzero;stroke:none"
         id="path118" />
      <path
         d="m 3555.76,4081.42 c 20.81,5.7 118.61,43.4 153.04,143.74 -56.4,-253.8 -265.84,-195.18 -265.84,-195.18 l 4.76,27.46 5.17,30.21 c 2.33,-2.22 4.33,-4.02 6.02,-5.28 21.76,-16.9 65.49,-9.62 96.85,-0.95"
         style="fill:#29275f;fill-opacity:1;fill-rule:nonzero;stroke:none"
         id="path120" />
      <path
         d="m 3673.42,4618.69 c 29.05,-25.03 20.17,-91.78 23.55,-133.6 3.28,-41.83 43.52,-47.85 43.52,-47.85 7.81,1.48 16.05,1.37 23.76,-0.42 5.28,-1.37 10.35,-3.49 15,-6.23 10.88,-6.23 19.86,-15.84 25.88,-26.94 8.45,-15.84 10.77,-34.64 8.34,-52.27 -3.48,-25.99 -17,-50.49 -37.07,-67.39 -16.37,-13.94 -37.28,-22.5 -58.83,-24.19 -2.01,-12.14 -4.96,-23.55 -8.66,-34.22 0,-0.1 -0.11,-0.31 -0.11,-0.42 -34.43,-100.34 -132.23,-138.04 -153.04,-143.74 -31.36,-8.67 -75.09,-15.95 -96.85,0.95 -1.69,1.26 -3.69,3.06 -6.02,5.28 -27.77,26.08 -98.75,112.48 -107.94,164.87 -6.97,39.39 -2.53,145.43 0.85,205.95 1.48,26.19 2.74,43.94 2.74,43.94 h 0.21 c 0,8.13 0.53,16.26 1.48,24.08 0.43,4.01 1.06,7.92 1.8,11.83 0.63,3.48 1.37,7.07 2.22,10.45 0.42,2.12 0.95,4.23 1.69,6.23 1.26,5.29 2.95,10.57 4.85,15.64 0.53,1.58 1.17,3.16 1.8,4.65 0.74,2 1.58,4.01 2.43,5.91 0.95,2.21 1.9,4.43 3.06,6.55 0.32,1.05 0.85,2 1.37,2.95 0,0.32 0.11,0.53 0.32,0.74 0,0.11 0.11,0.11 0.11,0.11 0.21,0.63 0.42,1.16 0.74,1.69 h 0.1 c 0,0 0.11,0 0.42,-0.21 0.11,-0.11 0.43,-0.32 0.74,-0.64 0.32,-0.1 0.74,-0.42 1.17,-0.84 0.63,-0.42 1.47,-1.06 2.43,-1.69 0.95,-0.64 2,-1.38 3.16,-2.11 1.17,-0.74 2.54,-1.48 4.02,-2.33 0.74,-0.42 1.48,-0.84 2.22,-1.27 1.58,-0.84 3.38,-1.79 5.17,-2.63 18.17,-8.77 49.32,-18.91 94.74,-17.22 78.16,2.96 159.69,79.32 188.63,54.39"
         style="fill:#ffffff;fill-opacity:1;fill-rule:nonzero;stroke:none"
         id="path122" />
      <path
         d="m 3779.36,4565.78 c -1.17,-77.63 -0.43,-121.99 -0.11,-135.19 -4.65,2.74 -9.72,4.86 -15,6.23 -7.71,1.79 -15.95,1.9 -23.76,0.42 0,0 -40.24,6.02 -43.52,47.85 -3.38,41.82 5.5,108.57 -23.55,133.6 -28.94,24.93 -110.47,-51.43 -188.63,-54.39 -45.42,-1.69 -76.57,8.45 -94.74,17.22 -1.79,0.84 -3.59,1.79 -5.17,2.63 -0.74,0.43 -1.48,0.85 -2.22,1.27 -1.48,0.85 -2.85,1.59 -4.02,2.33 -1.16,0.73 -2.21,1.47 -3.16,2.11 -0.96,0.63 -1.8,1.27 -2.43,1.69 -0.43,0.42 -0.85,0.74 -1.17,0.84 -0.31,0.32 -0.63,0.53 -0.74,0.64 -0.31,0.31 -0.42,0.42 -0.42,0.42 0,-0.11 -0.1,-0.11 -0.1,-0.21 -0.32,-0.53 -0.53,-1.06 -0.74,-1.69 0,0 -0.11,0 -0.11,-0.11 -0.21,-0.21 -0.32,-0.42 -0.32,-0.74 -0.52,-0.95 -1.05,-1.9 -1.37,-2.95 -1.16,-2.12 -2.11,-4.34 -3.06,-6.55 -0.85,-1.9 -1.69,-3.91 -2.43,-5.91 -0.63,-1.49 -1.27,-3.07 -1.8,-4.65 -1.9,-5.07 -3.59,-10.35 -4.85,-15.64 -0.74,-2 -1.27,-4.11 -1.69,-6.23 -0.85,-3.38 -1.59,-6.97 -2.22,-10.45 -0.74,-3.91 -1.37,-7.82 -1.8,-11.83 -0.95,-7.82 -1.48,-15.95 -1.48,-24.08 h -0.21 c 0,0 -1.26,-17.75 -2.74,-43.94 l -4.54,0.21 c -121.15,19.01 -46.58,132.87 -46.58,132.87 -71.5,106.04 5.91,119.98 88.08,114.49 82.28,-5.49 153.46,49.85 226.87,57.24 73.4,7.29 99.28,-68.33 99.28,-68.33 52.07,5.91 71.71,-34.86 70.45,-129.17"
         style="fill:#29275f;fill-opacity:1;fill-rule:nonzero;stroke:none"
         id="path124" />
      <path
         d="m 3217.37,507.219 c 72.03,-4.649 139.73,20.172 176.17,36.961 V 398.539 l -191.59,-82.168 h -341.47 c 0,0 5.07,76.039 30.42,104.77 25.46,28.73 126.32,30.418 126.32,30.418 l 80.59,104.453 c 16.9,-18.481 52.28,-44.461 119.56,-48.793"
         style="fill:#b22522;fill-opacity:1;fill-rule:nonzero;stroke:none"
         id="path126" />
      <path
         d="m 3239.86,2607.42 c 2.96,-7.29 -4.86,-26.93 -30.31,-18.59 -25.45,8.34 -106.67,78.26 -106.67,78.26 0,0 -4.44,0.21 -11.73,0.64 -23.34,1.69 -75.83,6.97 -105.72,21.97 -30.42,15.1 -70.13,76.78 -86.39,103.71 47.1,15.32 121.46,46.69 144.48,97.17 l 20.17,-27.67 c 0,0 25.88,6.12 54.82,10.77 25.56,4.12 53.65,7.08 68.54,3.91 31.79,-6.87 184.94,-99.81 168.36,-120.4 -16.16,-19.97 -64.43,-0.43 -67.49,0.84 2.64,-2.96 44.78,-49.22 54.71,-61.57 10.35,-12.78 7.81,-20.49 7.81,-20.49 0,0 -13.2,-15.64 -36.12,-12.78 -20.91,2.64 -84.28,54.39 -96,64 15.1,-13.2 114.8,-100.13 112.58,-105.09 -2.42,-5.39 -12.67,-20.07 -40.13,-13.73 -26.51,6.23 -62.21,24.29 -64.43,25.35 0.53,-1.06 10.78,-19.12 13.52,-26.3"
         style="fill:#ffffff;fill-opacity:1;fill-rule:nonzero;stroke:none"
         id="path128" />
      <path
         d="m 3209.55,2588.83 c 25.45,-8.34 33.27,11.3 30.31,18.59 -2.74,7.18 -12.99,25.24 -13.52,26.3 2.22,-1.06 37.92,-19.12 64.43,-25.35 27.46,-6.34 37.71,8.34 40.13,13.73 2.22,4.96 -97.48,91.89 -112.58,105.09 11.72,-9.61 75.09,-61.36 96,-64 22.92,-2.86 36.12,12.78 36.12,12.78 0,0 2.54,7.71 -7.81,20.49 -9.93,12.35 -52.07,58.61 -54.71,61.57 3.06,-1.27 51.33,-20.81 67.49,-0.84 16.58,20.59 -136.57,113.53 -168.36,120.4 -14.89,3.17 -42.98,0.21 -68.54,-3.91 l -27.88,532.42 -211.35,-127.8 c 0,0 32.22,-41.82 42.57,-63.05 10.24,-21.34 126.21,-312.74 126.21,-312.74 -1.16,-4.11 -2.64,-8.02 -4.54,-11.93 -23.02,-50.48 -97.38,-81.85 -144.48,-97.17 -23.56,-7.71 -40.35,-11.3 -40.35,-11.3 0,0 -167.3,310.52 -202.57,393.43 -35.28,83.01 -37.6,78.57 -29.37,127.79 14.68,87.56 321.5,546.04 394.91,597.48 73.4,51.33 373.57,132.87 373.57,132.87 14.68,18.69 52.49,23.76 52.49,23.76 l -4.76,-27.46 -1.9,-10.98 c 0,0 55.88,-150.83 157.48,-143.85 101.71,6.97 165.92,133.49 165.92,133.49 l -13.52,72.25 2.12,0.42 c 0,0 49.64,-29.36 61.36,-57.24 0,0 253.17,-122.31 296.47,-149.24 32.85,-20.39 72.24,-100.87 89.56,-138.89 l -53.76,-707.63 c -22.81,49.64 -97.27,191.16 -138.04,268.26 l -59.14,-327.94 31.68,-346.53 c 0,0 -4.44,-5.49 -13.31,-14.47 -40.66,-40.98 -175.74,-154.62 -419.72,-153.88 -236.37,0.84 -389.94,76.89 -443.07,108.15 -13.73,8.13 -20.8,13.2 -20.8,13.2 l 6.86,92.63 c 7.29,-0.43 11.73,-0.64 11.73,-0.64 0,0 81.22,-69.92 106.67,-78.26"
         style="fill:#cd4239;fill-opacity:1;fill-rule:nonzero;stroke:none"
         id="path130" />
      <path
         d="m 4509.39,3881.21 c -1.67,0 -3.35,0.56 -4.73,1.69 -2.99,2.46 -3.66,6.76 -1.49,9.97 0.11,0.16 0.54,0.74 0.67,0.89 1.41,1.79 3.89,3.25 6.18,3.25 h 0.1 c 2.78,0 5.33,-1.53 6.63,-3.98 1.3,-2.46 1.14,-5.42 -0.41,-7.72 -0.47,-0.69 -0.9,-1.19 -1.55,-1.84 -1.47,-1.49 -3.43,-2.26 -5.4,-2.26"
         style="fill:#29275f;fill-opacity:1;fill-rule:nonzero;stroke:none"
         id="path132" />
      <path
         d="m 4409.35,4286.42 c -3.79,0 -7.04,2.86 -7.45,6.71 -0.43,4.12 2.55,7.81 6.66,8.25 25.67,2.76 48.09,9.41 66.63,19.79 1.8,0.99 3.89,1.22 5.84,0.63 1.95,-0.59 3.58,-1.95 4.5,-3.76 l 0.11,-0.21 c 1.84,-3.6 0.5,-8 -3.02,-9.97 -20.28,-11.33 -44.66,-18.54 -72.49,-21.4 -0.26,-0.03 -0.52,-0.04 -0.78,-0.04"
         style="fill:#29275f;fill-opacity:1;fill-rule:nonzero;stroke:none"
         id="path134" />
      <path
         d="m 4404,3935.28 c 0,-0.01 0,-0.01 0.01,-0.02 -0.01,0.01 -0.01,0.01 -0.01,0.02 z m 0.04,-0.51 c 0,0 0,-0.01 0.01,-0.01 -0.01,0 -0.01,0.01 -0.01,0.01 z m 16.61,-36.12 c 0,0 0,0 0.01,0 -0.01,0 -0.01,0 -0.01,0 z m 86.13,-2.43 0.06,-0.15 z m -1.37,-0.93 c -0.19,-0.19 -0.33,-0.36 -0.46,-0.51 0.17,0.15 0.35,0.29 0.53,0.42 z m -0.95,-1.16 v 0 z m -8.74,-9.04 c -0.07,-0.05 -0.12,-0.1 -0.17,-0.13 0.05,0.03 0.09,0.06 0.13,0.09 0.01,0.01 0.02,0.03 0.04,0.04 z m -0.26,-0.22 v 0 z m -63.58,0.58 c 0.16,-0.12 0.31,-0.25 0.44,-0.38 1.26,-1.17 2.52,-2.25 3.88,-3.25 0.12,-0.09 0.73,-0.56 0.85,-0.66 0.17,-0.15 0.8,-0.66 0.96,-0.82 4.21,-2.87 7.87,-4.8 11.68,-6.16 2.04,-0.77 4.1,-1.29 6.16,-1.74 2.17,-0.45 4.69,-0.72 7.02,-0.91 2.23,-0.17 4.46,-0.07 6.61,0.1 0.96,0.16 2.07,0.3 3.12,0.59 1.9,0.38 3.05,0.73 4.47,1.31 0.44,0.18 0.89,0.32 1.36,0.41 0.31,0.16 2.16,1.02 2.5,1.14 1.04,0.34 2,0.84 2.97,1.39 0.28,0.17 0.55,0.34 0.84,0.47 2.35,1.41 4.47,2.84 6.59,4.51 l 1.54,1.36 c 1.05,0.76 1.31,1.01 1.56,1.25 0.27,0.23 0.69,0.57 1.11,0.89 0.06,0.05 0.14,0.11 0.22,0.18 0.27,0.31 0.81,0.9 0.82,0.91 0.95,0.83 1.49,1.29 1.87,1.67 0.95,0.87 1.56,1.51 2.18,2.15 l 2.83,3.41 c 0.38,0.48 0.84,0.97 1.38,1.42 0.32,0.46 0.74,0.99 1.04,1.29 1.54,1.9 3.45,4.52 5.36,7.13 1.86,2.65 3.68,5.48 5.51,8.42 0.63,1.13 1.49,2.53 2.35,3.95 l 1.68,2.78 c 4.6,8.2 8.32,15.64 11.28,22.56 1.44,2.83 2.35,5.03 3.18,7.43 1.75,4 3.25,7.52 4.46,10.93 l 1.62,4.41 c 0.8,2.18 1.57,4.28 2.27,6.31 4.87,13.88 7.97,25.07 8.94,29.21 l -78.48,304.32 c -18.47,-8.8 -39.91,-14.5 -63.92,-16.97 -2.97,-0.42 -6.21,-0.75 -9.45,-0.97 -4.75,-0.33 -9.41,-0.54 -14.06,-0.66 -5.38,-0.2 -10.79,-0.1 -15.99,0 -2.12,0.01 -4.32,0.12 -6.43,0.22 -1.72,0.11 -3.65,0.11 -5.48,0.22 l -9.06,0.64 c -1.55,0.2 -2.73,0.29 -3.83,0.36 l -116.24,-264.56 c -0.02,-0.82 -0.04,-1.93 -0.1,-3.3 -0.12,-12.52 0.4,-37.63 5.36,-62.93 l 0.86,-4.74 c 1.78,-8.37 3.64,-15.02 5.85,-20.71 0.14,-0.34 0.24,-0.69 0.32,-1.05 0.32,-1.44 0.88,-2.77 1.43,-4.12 l 0.58,-1.51 c 0.72,-1.95 1.5,-3.69 2.28,-5.43 0.7,-1.59 1.47,-3.06 2.35,-4.45 0.93,-1.8 1.48,-2.91 2.13,-4.02 0.14,-0.17 0.72,-1.15 0.84,-1.34 0.66,-0.98 1.06,-1.6 1.37,-2.13 0.45,-0.7 1.05,-1.55 1.73,-2.4 0.97,-1.45 1.55,-2.27 2.22,-3.01 l 1.11,-1.23 c 0.82,-0.91 1.66,-1.85 2.55,-2.74 l 0.78,-0.78 c 0.3,-0.22 0.57,-0.46 0.83,-0.72 1.59,-1.5 3.09,-2.74 4.87,-3.97 1.42,-0.98 2.96,-1.89 4.5,-2.7 3.02,-1.51 6.42,-2.69 10.24,-3.53 1.84,-0.46 3.58,-0.7 5.39,-0.78 3.4,-0.26 6.74,-0.24 10.54,0.08 3.37,0.27 6.85,0.9 10.36,1.87 3.02,0.88 5.93,1.94 8.54,3.1 l 3.52,1.77 c 9.98,5.12 19.59,13.25 28.49,24.13 1.81,2.03 3.22,3.92 4.53,5.79 l 6.79,-3.43 -6.18,4.25 c 2.21,3.15 3.94,5.57 5.55,8.1 0,0 0.38,0.54 0.53,0.76 0.22,0.68 0.54,1.33 0.94,1.93 0.11,0.19 1.03,1.55 1.14,1.72 1.1,1.55 2.01,3.09 2.92,4.64 l 0.94,1.7 c 0.87,1.59 1.73,3.14 2.46,4.69 0.43,0.84 0.78,1.51 1.12,2.01 -0.07,0.01 0.2,0.57 0.52,1.06 0.54,1.17 1.29,2.66 2.06,4.16 0.11,0.43 0.25,0.84 0.41,1.19 l 0.6,1.3 c 0.56,1.22 1.09,2.38 1.68,3.48 1.44,3.46 2.88,7.02 3.9,9.86 l 0.9,2.29 c 0.06,0.2 0.12,0.39 0.19,0.58 l 1.21,3.35 c 0.21,0.78 0.47,1.48 0.79,2.12 1.4,2.8 4.32,4.47 7.52,4.1 3.12,-0.34 5.69,-2.58 6.47,-5.61 0.14,-0.59 0.31,-1.43 0.44,-2.66 0.05,-0.22 0.09,-0.43 0.12,-0.58 0.02,-0.14 0.05,-0.35 0.08,-0.58 h 0.01 c 0.04,-0.19 0.08,-0.46 0.11,-0.75 0.08,-0.44 0.13,-0.92 0.17,-1.42 0.3,-0.83 0.39,-2.32 0.47,-3.54 0.48,-3.01 1.17,-6.37 1.95,-10.12 0.02,-0.07 0.04,-0.13 0.06,-0.2 0.03,-0.1 0.06,-0.21 0.09,-0.32 0.26,-0.75 0.41,-1.45 0.54,-2.1 0.17,-0.62 0.3,-1.24 0.41,-1.8 0.01,-0.03 0.19,-1.01 0.19,-1.04 0.14,-0.76 0.28,-1.56 0.48,-2.3 l 0.34,-1.41 c 0.15,-0.64 0.29,-1.27 0.5,-1.94 l 0.85,-3.06 c 0.47,-1.8 0.93,-3.62 1.62,-5.33 0.16,-0.37 0.28,-0.75 0.36,-1.13 0.02,-0.08 0.07,-0.31 0.11,-0.54 0.05,-0.16 0.1,-0.31 0.14,-0.47 0.15,-0.33 0.28,-0.66 0.38,-1 0.49,-1.68 1,-3.36 1.57,-5.04 0.51,-1.33 1.07,-2.84 1.72,-4.25 l 1.43,-4.13 c 2,-4.36 4.06,-8.88 6.4,-12.93 l 2.15,-3.66 c 0.83,-1.47 1.64,-2.82 2.54,-4.09 0.14,-0.19 0.27,-0.39 0.39,-0.6 0.35,-0.42 0.66,-0.89 0.92,-1.38 1.42,-2.03 3.06,-3.91 4.71,-5.81 0.92,-1.13 1.78,-2.09 2.58,-2.98 l 0.82,-0.8 c 0.57,-0.55 1.15,-1.12 1.71,-1.7 z m 33.19,-29 c -1.21,0 -2.32,0.04 -3.39,0.13 -2.95,0.23 -6.13,0.6 -8.96,1.19 -2.86,0.62 -5.66,1.36 -8.21,2.34 -4.98,1.76 -9.83,4.32 -14.67,7.76 -0.25,0.13 -1.11,0.65 -2.03,1.47 -0.16,0.13 -0.3,0.24 -0.37,0.3 -1.74,1.28 -3.28,2.57 -4.81,3.96 -0.43,0.31 -0.85,0.67 -1.21,1.08 -0.53,0.58 -1.1,1.13 -1.67,1.67 l -1,0.98 c -1.51,1.65 -2.53,2.81 -3.47,3.96 -2.08,2.39 -4.27,4.96 -6.13,7.76 -0.03,0.04 -0.06,0.08 -0.09,0.13 -0.29,0.39 -0.57,0.81 -0.82,1.26 -1.09,1.57 -2.1,3.24 -3.1,5.01 l -2.03,3.46 c -2.73,4.71 -4.95,9.57 -7.1,14.26 l -1.7,4.84 c -0.48,0.91 -1.2,2.78 -1.9,4.66 -0.64,1.86 -1.17,3.58 -1.68,5.29 -0.37,0.84 -0.56,1.59 -0.68,2.06 l 0.01,0.01 c -0.11,0.33 -0.2,0.66 -0.27,0.96 -0.8,2.1 -1.39,4.29 -1.97,6.48 l -0.66,2.46 c -0.3,0.85 -0.55,1.91 -0.79,3 -0.38,1.42 -0.6,2.48 -0.78,3.42 -0.89,-1.7 -1.79,-3.49 -2.79,-5.48 -0.34,-0.75 -0.65,-1.37 -1.02,-1.91 -0.94,-1.99 -1.93,-3.8 -2.94,-5.66 l -0.9,-1.63 c -1.4,-2.37 -2.52,-4.26 -3.86,-6.15 0.02,0 -0.12,-0.22 -0.33,-0.53 -0.14,-0.33 -0.29,-0.64 -0.44,-0.92 -0.51,-1.04 -1.14,-2.05 -1.91,-3.01 -1.27,-2.05 -3.06,-4.6 -4.98,-7.26 -0.3,-0.49 -0.66,-1.01 -1.02,-1.49 -1.72,-2.42 -3.48,-4.77 -5.48,-7 -10,-12.23 -21.21,-21.65 -33.12,-27.76 l -3.86,-1.93 c -3.53,-1.59 -7.08,-2.88 -10.86,-3.98 -4.52,-1.26 -8.95,-2.05 -13.23,-2.39 -4.57,-0.4 -8.75,-0.43 -12.71,-0.1 -2.54,0.11 -5.28,0.5 -7.88,1.15 -4.82,1.06 -9.37,2.64 -13.67,4.79 -2.2,1.16 -4.25,2.37 -6.17,3.7 -2.29,1.59 -4.22,3.16 -6.23,5.03 -0.2,0.15 -0.4,0.31 -0.58,0.49 -0.27,0.22 -0.52,0.45 -0.72,0.68 l -0.73,0.7 c -1.38,1.39 -2.4,2.52 -3.39,3.63 l -1.05,1.15 c -1.26,1.39 -2.36,2.89 -3.32,4.4 -0.56,0.63 -1.44,1.89 -2.32,3.27 l -0.84,1.3 c -0.62,0.8 -1.22,1.77 -1.79,2.92 -0.58,0.95 -1.3,2.37 -2,3.8 -0.87,1.3 -2,3.42 -2.98,5.66 -0.91,2.04 -1.83,4.1 -2.62,6.27 l -0.49,1.24 c -0.75,1.89 -1.47,3.77 -1.97,5.76 -2.42,6.34 -4.46,13.6 -6.39,22.76 l -0.88,4.84 c -5.21,26.52 -5.76,52.78 -5.62,66.07 0.11,2.91 0.11,4.5 0.11,4.58 0,1.03 0.21,2.05 0.63,3.01 l 119.03,270.9 c 1.26,2.91 4.19,4.75 7.4,4.47 l 4.44,-0.43 c 1.95,-0.14 3.52,-0.25 5.09,-0.46 l 8.5,-0.59 c 1.51,-0.1 3.15,-0.2 4.88,-0.2 2.32,-0.11 4.08,-0.21 6.29,-0.21 h 0.02 c 4.91,-0.1 10.04,-0.2 15.26,0 4.55,0.1 8.97,0.31 13.52,0.62 2.89,0.2 5.77,0.5 8.67,0.9 26.03,2.69 48.47,9.28 66.96,19.61 2.03,1.12 4.47,1.25 6.61,0.34 2.14,-0.91 3.73,-2.76 4.32,-5.01 l 81.33,-315.38 c 0.4,-1.56 0.28,-3.18 -0.3,-4.64 -0.83,-3.77 -4.12,-15.96 -9.5,-31.3 -0.72,-2.08 -1.53,-4.28 -2.37,-6.57 l -1.55,-4.26 c -1.32,-3.73 -2.98,-7.61 -4.65,-11.38 -0.89,-2.66 -2.1,-5.51 -3.59,-8.35 -2.92,-6.91 -6.87,-14.81 -11.82,-23.64 l -1.87,-3.1 c -0.79,-1.3 -1.57,-2.58 -2.29,-3.82 -2.12,-3.43 -4.09,-6.5 -6.18,-9.47 -2.17,-2.98 -4.28,-5.85 -6.5,-8.51 -0.28,-0.47 -0.48,-0.72 -0.86,-1.12 -0.28,-0.27 -0.56,-0.53 -0.86,-0.79 l -3.82,-4.53 c -0.85,-0.89 -1.69,-1.74 -2.57,-2.55 -0.38,-0.4 -1.32,-1.21 -2.13,-1.89 l -0.42,-0.57 c -0.38,-0.38 -0.79,-0.73 -1.25,-1.02 0.18,0.09 -0.04,-0.13 -0.54,-0.48 -1.1,-0.97 -1.93,-1.65 -2.81,-2.21 l -0.87,-0.87 c -2.77,-2.19 -5.48,-4.05 -8.68,-5.96 -0.38,-0.26 -0.78,-0.49 -1.21,-0.67 -1.56,-0.86 -3.11,-1.61 -4.75,-2.19 -0.56,-0.26 -1.07,-0.47 -1.62,-0.67 -0.74,-0.39 -1.52,-0.69 -2.31,-0.91 -2.2,-0.87 -4.22,-1.46 -6.29,-1.82 -0.95,-0.31 -2.73,-0.59 -4.41,-0.83 -2.58,-0.23 -4.65,-0.34 -6.47,-0.34"
         style="fill:#29275f;fill-opacity:1;fill-rule:nonzero;stroke:none"
         id="path136" />
      <path
         d="m 4411.7,3891.62 c -2.44,0 -4.83,1.19 -6.27,3.36 -0.51,0.77 -1.03,1.66 -1.54,2.56 -0.12,0.22 -0.24,0.45 -0.35,0.68 -0.17,0.29 -0.39,0.62 -0.43,0.69 -2.1,3.58 -0.91,8.17 2.67,10.27 3.56,2.07 8.1,0.92 10.22,-2.59 v 0 c 0,-0.01 0,-0.01 0,-0.01 0,0 0,0 0.01,-0.01 0,0 0,0 0,-0.01 0,0 0,-0.01 0.01,-0.01 v 0 c 0,-0.01 0.01,-0.01 0.01,-0.01 v -0.01 c 0,-0.01 0.01,-0.01 0.01,-0.02 l 0.94,-1.45 c 0.02,-0.05 0.05,-0.09 0.07,-0.13 l 1.16,-2.12 c 1.99,-3.51 0.84,-7.97 -2.61,-10.09 -1.22,-0.74 -2.57,-1.1 -3.9,-1.1"
         style="fill:#29275f;fill-opacity:1;fill-rule:nonzero;stroke:none"
         id="path138" />
      <path
         d="m 4402.28,3910 c -3.1,0 -5.99,1.93 -7.07,5 v 0 c -0.01,0.01 -0.01,0.02 -0.01,0.02 0,0 0,0 0,0.01 0,0 -0.02,-0.01 -0.01,0.02 0,0.01 0,0.01 0,0.01 -0.01,0.01 -0.01,0.01 -0.01,0.02 v 0 c 0,0.02 -0.01,0.02 -0.01,0.02 0,0.01 0,0.01 0,0.01 0,0.01 0,0.01 -0.01,0.02 v 0 c 0,0.01 0,0.02 0,0.02 l -1.72,4.84 c -0.36,0.89 -0.69,1.79 -1.03,2.68 -0.32,0.87 -0.48,1.77 -0.48,2.65 0,3.03 1.86,5.88 4.86,7.01 3.87,1.47 8.21,-0.51 9.66,-4.38 l 1.02,-2.65 c 0.24,-0.6 0.5,-1.19 0.76,-1.77 0.14,-0.27 0.24,-0.55 0.34,-0.84 l 0.83,-2.84 c 1.3,-3.93 -0.84,-8.18 -4.76,-9.48 -0.78,-0.25 -1.58,-0.37 -2.36,-0.37"
         style="fill:#29275f;fill-opacity:1;fill-rule:nonzero;stroke:none"
         id="path140" />
      <path
         d="m 4399.43,3917.81 c -3.1,0 -6,1.94 -7.08,5.04 -0.77,2.21 -1.39,3.97 -1.9,5.74 -0.06,0.16 -0.2,0.65 -0.33,1.19 -0.03,0.09 -0.05,0.17 -0.07,0.24 -0.16,0.62 -0.23,1.25 -0.23,1.86 0,3.35 2.27,6.39 5.67,7.25 3.92,1.02 8,-1.35 9.07,-5.31 0.15,-0.33 0.28,-0.66 0.38,-1 0.49,-1.68 1,-3.36 1.57,-5.04 1.37,-3.92 -0.7,-8.19 -4.62,-9.55 -0.81,-0.29 -1.64,-0.42 -2.46,-0.42"
         style="fill:#29275f;fill-opacity:1;fill-rule:nonzero;stroke:none"
         id="path142" />
      <path
         d="m 4618.89,3332.27 c -1.6,0 -3.21,0.51 -4.58,1.57 -3.28,2.54 -3.87,7.25 -1.33,10.52 34.56,44.6 76.5,101.75 80.94,116.03 4,13.04 -5.11,46.54 -12.44,73.47 -4.1,15.1 -7.98,29.36 -9.87,40.49 -2.7,15.88 -28.83,75.11 -51.89,127.37 -27.11,61.47 -43.77,99.67 -44.32,109.86 -0.76,12.79 -6.82,30.38 -15.26,36.42 -1.17,0.84 -2.34,1.41 -3.52,1.73 l -6.7,-90.26 c -0.35,-4.68 -5.38,-8.01 -9.82,-6.61 -34.1,10.64 -75.78,20.75 -85.88,18.44 -5.79,-1.36 -9.77,-4.12 -11.43,-8 -1.46,-3.4 -1.01,-7.57 1.25,-11.42 1.51,-2.59 1.34,-5.85 -0.46,-8.26 -1.8,-2.42 -4.87,-3.53 -7.78,-2.82 -9.83,2.38 -25.27,2.8 -28.66,-2.55 -6.3,-10.1 -6.85,-22.69 -1.19,-28 2.14,-2.02 2.92,-5.12 1.95,-7.91 -0.96,-2.79 -3.47,-4.76 -6.42,-5.03 -1.78,-0.19 -10.99,-1.6 -11.45,-10.14 -0.76,-12.55 4.18,-17.36 12.39,-21.07 11.13,-5.03 55.55,-26.29 58.14,-27.6 3.41,-1.7 5,-5.7 3.69,-9.28 -1.31,-3.58 -5.14,-5.58 -8.81,-4.71 -10.56,2.56 -59.36,12.44 -66.73,11.11 -0.56,-0.39 -3.06,-4.16 -3.51,-8.97 -0.13,-1.45 -0.22,-4.98 1.82,-6.55 6.57,-5.05 87.6,-44.73 137.13,-68.57 3.66,-1.76 5.25,-6.12 3.59,-9.83 -0.25,-0.55 -24.59,-56.06 -2.75,-104.64 1.7,-3.78 0.02,-8.22 -3.76,-9.92 -3.75,-1.69 -8.21,-0.02 -9.91,3.77 -20.12,44.73 -6.34,92.65 0.04,110.14 -31.22,15.05 -124.9,60.44 -133.55,67.21 -5.96,4.6 -8.65,12.38 -7.35,21.32 1.13,7.91 5.71,17.22 13.38,20.2 2.93,1.14 9.92,0.86 18.48,-0.16 -2.53,1.18 -4.62,2.15 -6.07,2.81 -15.3,6.91 -22.23,18.55 -21.2,35.59 0.59,11.1 7.24,17.58 14.14,21.03 -4.19,10.7 -2.48,24.78 5.25,37.19 6.84,10.74 21.71,11.84 32.56,11.03 -0.27,4.1 0.38,8.17 2.01,11.96 3.57,8.3 11.32,14.23 21.84,16.69 15.77,3.57 63.12,-9.56 84.8,-16.02 l 6.5,87.53 c 0.23,3.16 2.43,5.83 5.48,6.67 7.46,2.05 14.81,0.69 21.24,-3.9 13.38,-9.58 20.53,-31.48 21.51,-47.76 0.5,-8.16 24.1,-61.67 43.07,-104.67 24.56,-55.65 49.94,-113.2 52.94,-130.9 1.78,-10.42 5.56,-24.34 9.57,-39.08 8.64,-31.77 17.57,-64.61 12.29,-81.82 -6.16,-19.83 -60.39,-91.08 -83.42,-120.8 -1.47,-1.9 -3.69,-2.9 -5.94,-2.9"
         style="fill:#29275f;fill-opacity:1;fill-rule:nonzero;stroke:none"
         id="path144" />
      <path
         d="m 4393.42,3938.2 c -3.3,0 -6.31,2.17 -7.23,5.49 -0.2,0.7 -0.36,1.43 -0.51,2.16 l -0.78,3.73 c -0.78,3.88 1.57,7.7 5.39,8.74 3.85,1.06 7.79,-1.08 9.06,-4.82 0.3,-0.85 0.47,-1.69 0.63,-2.46 0,-0.03 0.18,-1.01 0.18,-1.04 0.06,-0.31 0.12,-0.63 0.18,-0.94 l 0.34,-1.52 c 1.02,-3.98 -1.37,-8.04 -5.34,-9.09 -0.64,-0.18 -1.29,-0.25 -1.92,-0.25"
         style="fill:#29275f;fill-opacity:1;fill-rule:nonzero;stroke:none"
         id="path146" />
      <path
         d="m 4375.55,3935.66 c -1.28,0 -2.59,0.33 -3.78,1.04 -3.42,2 -4.68,6.32 -2.9,9.85 0.15,0.29 0.3,0.56 0.44,0.81 -0.02,0.03 0.04,0.17 0.15,0.36 0.45,0.91 0.89,1.78 1.31,2.62 0.59,1.2 1.16,2.33 1.74,3.35 2.01,3.58 6.51,4.88 10.12,2.92 3.61,-1.95 4.97,-6.45 3.05,-10.08 -0.49,-0.94 -0.98,-1.9 -1.5,-2.91 -0.37,-0.79 -0.75,-1.62 -1.14,-2.47 -0.17,-0.39 -0.39,-0.78 -0.63,-1.14 l -0.04,0.02 c -0.2,-0.42 -0.45,-0.86 -0.59,-1.07 -1.45,-2.14 -3.81,-3.3 -6.23,-3.3"
         style="fill:#29275f;fill-opacity:1;fill-rule:nonzero;stroke:none"
         id="path148" />
      <path
         d="m 4366.8,3920.45 c -1.8,0 -3.6,0.65 -5.04,1.95 -1.63,1.49 -2.46,3.52 -2.46,5.56 0,0.81 0.14,1.63 0.4,2.42 0.22,0.74 0.55,1.45 0.99,2.09 0.01,0.02 0.37,0.55 0.38,0.57 1.97,3.36 6.42,4.96 9.93,3.26 3.53,-1.69 5.36,-5.5 3.96,-9.14 -0.45,-1.15 -1.02,-2 -1.4,-2.57 -0.05,-0.08 -0.11,-0.18 -0.19,-0.29 -0.21,-0.34 -0.44,-0.69 -0.69,-1.01 -0.1,-0.13 -0.2,-0.25 -0.31,-0.37 -0.01,0 -0.01,-0.01 -0.02,-0.01 -1.47,-1.63 -3.5,-2.46 -5.55,-2.46"
         style="fill:#29275f;fill-opacity:1;fill-rule:nonzero;stroke:none"
         id="path150" />
      <path
         d="m 4352.62,4300.73 7.08,-0.49 c 1.51,-0.1 3.15,-0.2 4.88,-0.2 2.26,-0.11 4.25,-0.21 6.13,-0.21 5.08,-0.1 10.2,-0.2 15.44,0 4.55,0.1 8.97,0.31 13.52,0.62 2.89,0.2 5.77,0.5 8.67,0.9 23.89,2.58 44.84,8.44 62.52,17.49 l -29.18,140.5 -25.64,-7.12 z m 27.13,-16.02 c -3.09,0 -6.17,0.06 -9.17,0.12 -2.25,-0.12 -4.24,0.12 -6.38,0.22 -1.72,0.11 -3.65,0.11 -5.48,0.22 l -9.06,0.64 c -1.69,0.22 -2.95,0.3 -4.15,0.39 l -4.38,0.46 c -2.38,0.2 -4.53,1.54 -5.78,3.59 -1.24,2.05 -1.43,4.57 -0.5,6.78 l 68.76,164.24 c 0.88,2.11 2.7,3.71 4.9,4.33 l 36.87,10.24 c 2.01,0.54 4.14,0.26 5.92,-0.82 1.76,-1.08 3.01,-2.85 3.43,-4.88 l 32.01,-154.1 c 0.52,-2.53 -0.3,-5.16 -2.17,-6.95 -0.59,-0.56 -1.37,-1.07 -2.17,-1.45 -0.5,-0.26 -1.03,-0.45 -1.57,-0.6 -19.98,-10.82 -43.74,-17.78 -70.67,-20.68 -3,-0.42 -6.24,-0.75 -9.48,-0.97 -4.75,-0.33 -9.41,-0.54 -14.06,-0.66 -2.29,-0.08 -4.58,-0.12 -6.87,-0.12"
         style="fill:#29275f;fill-opacity:1;fill-rule:nonzero;stroke:none"
         id="path152" />
      <path
         d="m 4280.1,3870.08 c -0.48,0 -0.97,0.04 -1.45,0.13 -4.77,0.94 -9.37,2.53 -14.06,4.88 -2.63,1.31 -4.15,3.96 -4.15,6.71 0,1.13 0.25,2.28 0.79,3.35 1.85,3.7 6.36,5.2 10.06,3.36 3.18,-1.59 6.58,-2.77 10.4,-3.61 4.01,-0.88 6.57,-4.82 5.74,-8.84 -0.73,-3.54 -3.85,-5.98 -7.33,-5.98"
         style="fill:#29275f;fill-opacity:1;fill-rule:nonzero;stroke:none"
         id="path154" />
      <path
         d="m 4009.07,1034.67 -0.93,-4.39 0.93,2.53 z m 200.95,-49.26 c -7.26,0 -14.59,0.16 -21.93,0.481 -10.85,0.418 -21.71,1.168 -32.23,2.238 -1.42,0.09 -2.98,0.301 -4.65,0.531 -1.87,0.102 -3.96,0.34 -6.06,0.711 -9.06,0.938 -18.69,2.27 -28.86,4.008 -3.6,0.652 -7.01,1.293 -10.32,1.93 -1.25,0.203 -2.71,0.472 -4.16,0.73 l -3.35,0.602 c -4.62,0.91 -8.92,1.871 -13.12,2.839 -2.07,0.411 -4.22,0.87 -6.36,1.43 -15.18,3.48 -30.86,7.8 -46.33,12.79 -3.5,1.1 -6.86,2.22 -9.95,3.24 l -8.74,3.18 c -2.47,0.9 -4.68,1.71 -6.63,2.4 -0.29,0.11 -0.58,0.23 -0.87,0.37 -0.11,0.04 -0.22,0.09 -0.33,0.14 -1.25,0.46 -1.89,0.71 -2.48,1 -4.14,1.61 -6.65,2.7 -6.65,2.7 -2.73,1.19 -4.51,3.89 -4.51,6.88 l 6.78,93.81 0.5,-0.04 c -0.62,10.27 1.46,38.94 7.82,126.99 5.49,75.98 13.03,177.36 20.63,279.43 l 9.49,127.74 c 0.3,4.03 3.66,7.71 7.76,7.2 4.03,-0.15 7.22,-3.19 7.22,-7.23 0,-0.18 -0.01,-0.9 -0.02,-1.08 l -9.49,-127.75 c -14.31,-192.43 -29.12,-391.35 -29.01,-404.76 0.08,-0.52 0.1,-1.06 0.06,-1.59 l -6.38,-87.85 c 0.58,-0.23 1.2,-0.48 1.87,-0.75 l -0.07,-0.33 c 0.36,-0.02 0.72,-0.07 1.06,-0.14 l 0.02,0.06 c 0.04,-0.02 0.17,-0.07 0.33,-0.12 0.75,-0.19 1.49,-0.47 2.16,-0.85 1.79,-0.64 3.76,-1.36 5.93,-2.16 l 7.97,-2.91 c 3.33,-1.11 6.61,-2.2 10.08,-3.28 15.12,-4.88 30.37,-9.09 45.38,-12.52 2.1,-0.56 3.97,-0.94 5.93,-1.34 4.23,-0.98 8.37,-1.9 12.63,-2.73 l 3.4,-0.62 c 1.33,-0.24 2.67,-0.49 4.04,-0.71 3.5,-0.67 6.85,-1.3 10.31,-1.93 9.78,-1.67 19.09,-2.96 28.37,-3.93 2.04,-0.35 3.55,-0.52 5.13,-0.61 2.16,-0.27 3.41,-0.45 4.74,-0.54 10.47,-1.06 21,-1.79 31.58,-2.2 12.41,-0.53 24.76,-0.63 36.74,-0.21 3.33,0.1 6.64,0.21 9.93,0.41 10.34,0.43 20.81,1.27 31.26,2.5 2.43,0.23 4.76,0.53 7.11,0.83 4.59,0.53 9.19,1.14 13.79,1.96 5.45,0.86 10.76,1.79 16.16,2.83 5.41,1.03 10.81,2.18 16.21,3.43 3.73,0.87 7.51,1.77 11.27,2.73 l 6.81,95.68 c 0.3,4.14 4.17,7.13 8,6.96 4.14,-0.3 7.25,-3.88 6.96,-8.01 l -7.19,-101.07 c -0.24,-3.48 -2.83,-6.26 -6.14,-6.86 -5.42,-1.46 -10.93,-2.788 -16.33,-4.038 -5.6,-1.293 -11.17,-2.473 -16.76,-3.551 -5.58,-1.07 -11.04,-2.031 -16.5,-2.902 -4.77,-0.848 -9.66,-1.489 -14.47,-2.047 -2.42,-0.313 -4.95,-0.633 -7.35,-0.864 -10.64,-1.25 -21.49,-2.117 -32.06,-2.558 -3.3,-0.199 -6.75,-0.309 -10.19,-0.43 -5.26,-0.16 -10.58,-0.25 -15.94,-0.25"
         style="fill:#29275f;fill-opacity:1;fill-rule:nonzero;stroke:none"
         id="path156" />
      <path
         d="m 4404,3935.28 c 0,-0.01 0,-0.01 0.01,-0.02 -0.01,0.01 -0.01,0.01 -0.01,0.02 z m 0.5,-1.44 v 0 z m -38.82,-4.24 1.65,-0.84 -2.93,2.12 z m -109.25,-39.67 h 0.1 z m 239.53,-4.67 c -0.17,-0.11 -0.31,-0.23 -0.41,-0.3 0.14,0.1 0.29,0.2 0.42,0.29 z M 4146.71,3020.8 c -0.2,0 -0.38,0.01 -0.58,0.02 -4.13,0.32 -7.23,3.92 -6.91,8.05 l 75.3,990.38 c 0.31,4.04 4.2,6.98 7.8,6.93 4.05,-0.18 7.22,-3.53 7.18,-7.58 -0.13,-12.71 0.39,-37.82 5.35,-63.12 l 0.86,-4.74 c 1.78,-8.37 3.64,-15.02 5.85,-20.71 0.14,-0.34 0.24,-0.69 0.32,-1.05 0.32,-1.44 0.88,-2.77 1.43,-4.12 l 0.58,-1.51 c 0.72,-1.95 1.5,-3.69 2.28,-5.43 0.86,-1.84 1.48,-3.23 2.26,-4.48 0.91,-1.74 1.57,-2.86 2.22,-3.99 0.14,-0.17 0.72,-1.15 0.84,-1.34 0.46,-0.7 0.84,-1.32 1.2,-1.98 0.13,-0.18 0.25,-0.34 0.25,-0.34 0.55,-0.76 1.07,-1.48 1.65,-2.21 0.97,-1.45 1.55,-2.27 2.22,-3.01 l 1.11,-1.23 c 0.82,-0.91 1.66,-1.85 2.55,-2.74 l 0.91,-0.9 c 0.22,-0.16 0.42,-0.34 0.62,-0.53 1.62,-1.52 3.14,-2.79 4.95,-4.04 1.42,-0.98 2.96,-1.89 4.5,-2.7 3.31,-1.66 6.66,-2.83 10.07,-3.49 2.01,-0.5 3.75,-0.74 5.56,-0.82 3.4,-0.26 6.74,-0.24 10.54,0.08 3.37,0.27 6.85,0.9 10.36,1.87 3.02,0.88 5.93,1.94 8.54,3.1 l 3.52,1.77 c 9.98,5.12 19.59,13.25 28.49,24.13 1.81,2.03 3.22,3.92 4.53,5.79 l 6.79,-3.43 -6.18,4.25 c 2.21,3.15 3.94,5.57 5.55,8.1 0.03,0.04 0.35,0.47 0.53,0.72 0.2,0.55 0.46,1.08 0.78,1.57 0.23,0.37 0.49,0.73 0.77,1.06 l -0.05,0.03 c 0.22,0.58 0.22,0.53 0.58,1.03 1.1,1.55 2.01,3.09 2.92,4.64 l 0.94,1.7 c 0.87,1.59 1.73,3.14 2.46,4.69 0.43,0.84 0.78,1.51 1.12,2.01 -0.01,0.05 0.13,0.29 0.34,0.62 0.84,1.86 1.7,3.63 2.54,5.19 0.09,0.26 0.21,0.52 0.34,0.77 l -0.03,0.02 c 0.59,1.19 1.21,2.38 1.64,3.58 1.88,4.47 3.32,8.03 4.34,10.87 0.4,0.96 0.66,1.52 0.82,1.96 0.07,0.32 0.16,0.62 0.27,0.91 l 1.21,3.35 c 0.21,0.78 0.47,1.48 0.79,2.12 1.4,2.8 4.32,4.47 7.52,4.1 3.12,-0.34 5.69,-2.58 6.47,-5.61 0.13,-0.58 0.3,-1.39 0.43,-2.56 0.1,-0.46 0.15,-0.9 0.18,-1.29 0.03,-0.13 0.07,-0.27 0.1,-0.41 0.11,-0.53 0.17,-1.12 0.22,-1.73 0.15,-0.89 0.24,-1.71 0.32,-2.54 0.01,-0.07 0.12,-1.05 0.13,-1.13 0.5,-2.88 1.19,-6.24 1.97,-9.99 0.02,-0.07 0.04,-0.13 0.06,-0.2 0.03,-0.1 0.06,-0.21 0.09,-0.32 0.32,-0.94 0.49,-1.81 0.63,-2.61 0.08,-0.39 0.21,-1.03 0.33,-1.79 l 1,-4.25 c 0.15,-0.64 0.29,-1.27 0.5,-1.94 l 0.85,-3.06 c 0.47,-1.8 0.93,-3.62 1.62,-5.33 0.16,-0.37 0.28,-0.75 0.36,-1.13 0.02,-0.08 0.07,-0.31 0.11,-0.54 0.07,-0.19 0.12,-0.39 0.18,-0.59 0.69,-2.42 1.23,-3.95 1.76,-5.47 l 3.3,-8.83 c 2,-4.36 4.06,-8.88 6.4,-12.93 0.02,-0.02 0.87,-1.52 0.88,-1.54 0.33,-0.59 0.68,-1.17 1.01,-1.67 1.09,-1.92 1.9,-3.27 2.8,-4.54 0.14,-0.19 0.27,-0.39 0.39,-0.6 0.36,-0.42 0.66,-0.89 0.92,-1.38 1.42,-2.03 3.06,-3.91 4.71,-5.81 1.02,-1.37 1.8,-2.21 2.57,-2.98 l 0.83,-0.8 c 0.57,-0.55 1.15,-1.12 1.71,-1.7 0.16,-0.12 0.31,-0.25 0.44,-0.38 1.26,-1.17 2.52,-2.25 3.88,-3.25 0.12,-0.09 0.73,-0.56 0.85,-0.66 0.17,-0.15 0.8,-0.66 0.96,-0.82 4.21,-2.87 7.87,-4.8 11.68,-6.16 2.04,-0.77 4.1,-1.29 6.16,-1.74 2.18,-0.45 4.68,-0.83 7.02,-1.02 2.01,-0.05 4.16,-0.07 6.31,0.18 1.26,0.19 2.37,0.33 3.42,0.62 1.9,0.38 3.05,0.73 4.47,1.31 0.44,0.18 0.89,0.32 1.36,0.41 0.31,0.16 2.16,1.02 2.5,1.14 1.12,0.37 2.15,0.92 3.2,1.52 0.11,0.05 0.21,0.11 0.31,0.17 2.47,1.46 4.68,2.94 6.89,4.68 0.19,0.16 0.4,0.31 0.61,0.44 0.49,0.58 1.07,1.08 1.71,1.49 0.27,0.19 0.53,0.44 0.78,0.68 0.27,0.23 0.69,0.57 1.11,0.89 0.12,0.1 0.27,0.23 0.43,0.36 0.81,0.72 1.53,1.34 2.22,2.13 1.21,1.14 1.82,1.78 2.44,2.42 l 2.83,3.41 5.99,-4.54 -5.19,5.42 c 0.44,0.65 0.85,1.06 1.36,1.41 1.84,2.36 3.77,4.88 5.51,7.4 1.97,2.8 3.79,5.63 5.62,8.57 0.63,1.13 1.49,2.53 2.35,3.95 l 1.68,2.78 c 4.6,8.2 8.32,15.64 11.28,22.56 1.44,2.83 2.35,5.03 3.18,7.43 1.75,4 3.25,7.52 4.46,10.93 1.49,3.85 2.82,7.28 3.82,10.51 5.36,15.3 8.57,27.22 9.21,30.34 0.8,3.88 4.5,6.46 8.39,5.9 3.92,-0.55 6.73,-4.04 6.44,-7.98 l -17.75,-238.48 c -0.17,-2.28 -1.37,-4.36 -3.26,-5.65 -1.9,-1.28 -4.29,-1.64 -6.45,-0.96 -34.1,10.64 -75.78,20.75 -85.88,18.44 -5.79,-1.36 -9.77,-4.12 -11.43,-8 -1.46,-3.4 -1.01,-7.57 1.25,-11.42 1.51,-2.59 1.34,-5.85 -0.46,-8.26 -1.8,-2.42 -4.87,-3.53 -7.78,-2.82 -9.83,2.38 -25.27,2.8 -28.66,-2.55 -6.3,-10.1 -6.85,-22.69 -1.19,-28 2.14,-2.02 2.92,-5.12 1.95,-7.91 -0.96,-2.79 -3.47,-4.76 -6.42,-5.03 -1.78,-0.19 -10.99,-1.6 -11.45,-10.14 -0.76,-12.55 4.18,-17.36 12.39,-21.07 11.13,-5.03 55.55,-26.29 58.14,-27.6 3.41,-1.7 5,-5.7 3.69,-9.28 -1.31,-3.58 -5.14,-5.58 -8.81,-4.71 -10.56,2.56 -59.36,12.44 -66.73,11.11 -0.56,-0.39 -3.06,-4.16 -3.51,-8.97 -0.13,-1.45 -0.22,-4.98 1.82,-6.55 6.57,-5.05 87.6,-44.73 137.13,-68.57 3.66,-1.76 5.25,-6.12 3.59,-9.83 -0.25,-0.55 -24.59,-56.06 -2.75,-104.64 0.52,-1.14 0.73,-2.39 0.64,-3.63 l -17.85,-239.97 c -0.3,-4.13 -3.87,-7.33 -8.04,-6.92 -4.13,0.3 -7.22,3.9 -6.92,8.03 l 17.71,238.11 c -18.97,44.22 -5.46,91.11 0.83,108.37 -31.22,15.05 -124.9,60.44 -133.55,67.21 -5.96,4.6 -8.65,12.38 -7.35,21.32 1.13,7.91 5.71,17.22 13.38,20.2 2.93,1.14 9.92,0.86 18.48,-0.16 -2.53,1.18 -4.62,2.15 -6.07,2.81 -15.3,6.91 -22.23,18.55 -21.2,35.59 0.59,11.1 7.24,17.58 14.14,21.03 -4.19,10.7 -2.48,24.78 5.25,37.19 6.84,10.74 21.71,11.84 32.56,11.03 -0.27,4.1 0.38,8.17 2.01,11.96 3.57,8.3 11.32,14.23 21.84,16.69 15.76,3.53 62.97,-9.52 84.69,-15.99 l 12.67,170.16 c -0.74,-1.86 -1.61,-3.77 -2.61,-5.68 -2.92,-6.91 -6.87,-14.81 -11.82,-23.64 l -1.87,-3.1 c -0.79,-1.3 -1.57,-2.58 -2.29,-3.82 -2.12,-3.43 -4.09,-6.5 -6.18,-9.47 -1.95,-2.82 -4.16,-5.7 -6.26,-8.36 -0.16,-0.19 -0.88,-1.04 -1.05,-1.21 -0.17,-0.17 -0.38,-0.37 -0.62,-0.58 -0.22,-0.24 -0.45,-0.49 -0.72,-0.76 l -3.39,-4.04 c -0.85,-0.89 -1.69,-1.74 -2.57,-2.55 -0.57,-0.69 -1.68,-1.71 -2.8,-2.7 -0.28,-0.25 -0.68,-0.57 -1,-0.78 0.18,0.09 -0.04,-0.13 -0.54,-0.48 -0.62,-0.54 -1.13,-0.98 -1.63,-1.37 -0.91,-1 -1.85,-1.68 -2.63,-2.17 -2.46,-1.92 -5.05,-3.68 -8.09,-5.49 -0.34,-0.23 -0.7,-0.43 -1.07,-0.6 -1.6,-0.89 -3.21,-1.67 -4.9,-2.27 -0.56,-0.26 -1.07,-0.47 -1.62,-0.67 -0.74,-0.39 -1.52,-0.69 -2.31,-0.91 -2.2,-0.87 -4.22,-1.45 -6.29,-1.82 -0.95,-0.31 -2.73,-0.59 -4.41,-0.83 -3.81,-0.47 -6.92,-0.43 -9.55,-0.34 -3.25,0.26 -6.45,0.73 -9.27,1.32 -2.86,0.62 -5.66,1.36 -8.21,2.34 -4.98,1.76 -9.83,4.32 -14.67,7.76 -0.25,0.13 -1.11,0.65 -2.03,1.47 -0.16,0.13 -0.3,0.24 -0.37,0.3 -1.67,1.23 -3.16,2.47 -4.63,3.8 -0.36,0.25 -0.7,0.53 -1.01,0.84 -0.91,0.98 -1.48,1.53 -2.05,2.07 l -1,0.98 c -1.35,1.35 -2.68,2.83 -3.73,4.3 -1.82,2.05 -4.01,4.62 -5.87,7.42 -0.03,0.04 -0.06,0.08 -0.09,0.13 -0.3,0.39 -0.58,0.81 -0.82,1.26 -1.09,1.57 -2.1,3.24 -3.1,5.01 -0.22,0.3 -0.74,1.19 -1.25,2.09 l 5.69,5.17 -6.49,-3.76 c -2.71,4.67 -4.93,9.53 -7.08,14.22 l -0.54,1.2 c -0.12,0.26 -0.35,0.92 -0.44,1.19 l -2.62,7.11 c -0.83,2.39 -1.45,4.15 -1.96,5.92 -0.07,0.18 -0.24,0.8 -0.4,1.43 l 0.01,0.01 c -0.11,0.33 -0.2,0.67 -0.27,0.96 -0.8,2.1 -1.39,4.29 -1.97,6.48 l -0.66,2.46 c -0.3,0.85 -0.55,1.91 -0.79,3 l -0.8,3.4 c -0.84,-1.51 -1.69,-3.3 -2.53,-5.18 -0.17,-0.39 -0.39,-0.78 -0.63,-1.14 -0.12,-0.23 -0.4,-0.7 -0.55,-0.92 -1.02,-2.12 -2.01,-3.93 -3.02,-5.79 l -0.9,-1.63 c -1.26,-2.14 -2.3,-3.89 -3.48,-5.59 -0.3,-0.59 -0.61,-1.06 -0.86,-1.43 -0.04,-0.09 -0.09,-0.19 -0.14,-0.28 -0.49,-1.15 -1.21,-2.28 -2.15,-3.43 -1.18,-1.94 -2.97,-4.48 -4.89,-7.13 -0.3,-0.5 -0.66,-1.02 -1.02,-1.5 -1.72,-2.42 -3.48,-4.77 -5.48,-7 -10,-12.23 -21.21,-21.65 -33.12,-27.76 l -3.86,-1.93 c -3.53,-1.59 -7.08,-2.88 -10.86,-3.98 -4.52,-1.26 -8.95,-2.05 -13.23,-2.39 -4.57,-0.4 -8.75,-0.43 -12.71,-0.1 -2.54,0.11 -5.28,0.5 -7.88,1.15 -4.38,0.85 -8.98,2.44 -13.67,4.79 -2.2,1.16 -4.25,2.37 -6.17,3.7 -2.19,1.52 -4.05,3.02 -5.96,4.77 -0.54,0.37 -1.09,0.8 -1.46,1.2 -0.2,0.21 -0.39,0.43 -0.55,0.66 l -0.29,0.27 c -1.38,1.39 -2.4,2.52 -3.39,3.63 l -1.05,1.15 c -1.26,1.39 -2.36,2.89 -3.32,4.4 -0.26,0.27 -0.92,1.16 -1.61,2.12 -0.25,0.34 -1.05,1.49 -1.23,1.88 -0.17,0.34 -0.35,0.63 -0.59,0.97 -0.35,0.4 -0.95,1.37 -1.52,2.52 -0.58,0.93 -1.39,2.35 -2.09,3.76 -0.75,1.14 -1.68,3.08 -2.56,4.97 -1.24,2.77 -2.16,4.83 -2.95,7 l -0.49,1.24 c -0.75,1.89 -1.47,3.77 -1.97,5.76 -1.46,3.83 -2.78,8 -4.03,12.72 l -69.18,-910.07 c -0.31,-3.94 -3.59,-6.94 -7.47,-6.94"
         style="fill:#29275f;fill-opacity:1;fill-rule:nonzero;stroke:none"
         id="path158" />
      <path
         d="m 4117.56,993.27 c -0.45,0 -0.9,0.039 -1.36,0.121 l -4.23,0.738 c -2.03,0.351 -4.03,0.691 -6,1.07 -3.52,0.692 -6.07,3.77 -6.07,7.371 0,2.23 1,4.41 2.72,5.84 1.74,1.43 3.99,2.06 6.21,1.63 3.25,-0.63 6.6,-1.26 10.06,-1.89 3.62,-0.66 6.16,-3.82 6.16,-7.37 0,-0.45 -0.04,-0.901 -0.12,-1.358 -0.66,-3.613 -3.82,-6.152 -7.37,-6.152"
         style="fill:#29275f;fill-opacity:1;fill-rule:nonzero;stroke:none"
         id="path160" />
      <path
         d="m 4107.4,995.07 c -0.49,0 -0.99,0.051 -1.47,0.141 l -3.4,0.648 c -1.47,0.27 -2.92,0.539 -4.37,0.84 -3.99,0.832 -6.59,4.711 -5.84,8.721 0.75,4.02 4.55,6.72 8.61,6.02 l 3.61,-0.65 c 1.33,-0.24 2.67,-0.49 4.04,-0.71 3.64,-0.58 6.32,-3.71 6.32,-7.41 v -0.1 c 0,-2.25 -1.01,-4.379 -2.74,-5.8 -1.36,-1.11 -3.04,-1.7 -4.76,-1.7"
         style="fill:#29275f;fill-opacity:1;fill-rule:nonzero;stroke:none"
         id="path162" />
      <path
         d="m 4024.6,1016.72 c -0.8,0 -1.61,0.12 -2.4,0.4 -6.08,2.05 -11.19,3.9 -15.2,5.53 -3.78,1.53 -5.64,5.79 -4.21,9.59 1.45,3.81 5.65,5.76 9.5,4.44 2.01,-0.7 4.31,-1.55 6.86,-2.49 l 7.97,-2.91 c 3.87,-1.39 5.91,-5.64 4.56,-9.52 -1.08,-3.1 -3.98,-5.04 -7.08,-5.04"
         style="fill:#29275f;fill-opacity:1;fill-rule:nonzero;stroke:none"
         id="path164" />
      <path
         d="m 4009.07,1034.67 -0.93,-4.39 0.93,2.53 z m -26.59,-383.588 c 3.38,-1.301 10.14,-3.953 19.29,-7.191 l 1.56,-0.532 c 2.62,-0.89 5.41,-1.828 8.4,-2.769 7.83,-2.559 16.19,-5.051 24.96,-7.41 l 7.23,-1.891 c 3.8,-1.059 7.69,-1.98 11.79,-2.898 6.97,-1.692 14.26,-3.239 21.93,-4.7 2.97,-0.652 5.83,-1.171 8.7,-1.679 11.65,-2.012 22.19,-3.582 32.2,-4.793 5.76,-0.739 11.69,-1.36 17.61,-1.879 3.26,-0.328 6.02,-0.61 8.88,-0.699 3.6,-0.34 6.7,-0.551 9.91,-0.641 6.41,-0.441 12.7,-0.738 19.02,-0.852 45.79,-0.898 90.2,4.102 131.74,14.852 l 24.32,371.602 c -2.25,-0.551 -4.49,-1.082 -6.73,-1.59 -5.6,-1.293 -11.17,-2.473 -16.76,-3.551 -5.58,-1.07 -11.04,-2.031 -16.5,-2.902 -4.77,-0.848 -9.66,-1.489 -14.47,-2.047 -2.42,-0.313 -4.95,-0.633 -7.35,-0.864 -10.64,-1.25 -21.49,-2.117 -32.06,-2.558 -3.3,-0.199 -6.75,-0.309 -10.19,-0.43 -12.38,-0.39 -25.09,-0.332 -37.85,0.231 -10.88,0.418 -21.73,1.168 -32.25,2.238 -1.42,0.09 -2.98,0.301 -4.65,0.531 -1.87,0.102 -3.96,0.34 -6.06,0.711 -9.06,0.938 -18.69,2.27 -28.86,4.008 l -4.32,0.75 c -2.03,0.351 -4.03,0.691 -6,1.07 l -3.44,0.66 c -1.47,0.27 -2.92,0.539 -4.37,0.84 -4.32,0.852 -8.62,1.813 -12.82,2.781 -2.07,0.411 -4.22,0.87 -6.36,1.43 -15.18,3.48 -30.86,7.8 -46.33,12.79 -3.5,1.1 -6.86,2.22 -9.95,3.24 -6.58,2.23 -11.69,4.08 -15.7,5.71 -0.07,0.02 -0.14,0.05 -0.21,0.08 z m 201.94,-53.031 c -3.56,0 -7.15,0.031 -10.73,0.097 -6.55,0.114 -13.13,0.434 -19.48,0.872 -3.26,0.089 -6.71,0.312 -10.15,0.66 -2.71,0.062 -5.82,0.371 -8.93,0.691 -6.4,0.57 -12.52,1.211 -18.43,1.961 -10.22,1.227 -21.02,2.84 -32.96,4.91 -3.1,0.547 -6.15,1.11 -9.09,1.746 -7.75,1.473 -15.27,3.082 -22.35,4.801 -4.23,0.953 -8.37,1.93 -12.27,3.02 l -7.19,1.871 c -9.08,2.441 -17.71,5.011 -25.68,7.629 -3,0.933 -5.9,1.91 -8.63,2.832 l -1.67,0.57 c -9.73,3.449 -16.79,6.238 -20.86,7.84 l 1.46,7.519 -2.66,-7.011 c -0.23,0.089 -0.95,0.382 -1.18,0.492 -0.92,0.461 -1.49,0.699 -1.64,0.758 -3.05,1.191 -5.03,4.23 -4.81,7.5 l 25.34,387.291 c 0.15,2.43 1.49,4.64 3.57,5.91 2.08,1.29 4.67,1.44 6.89,0.49 0.06,-0.03 2.42,-1.05 6.75,-2.77 l -0.07,-0.33 c 0.36,-0.02 0.72,-0.07 1.06,-0.14 l 0.02,0.06 c 0.04,-0.02 0.17,-0.07 0.33,-0.12 0.83,-0.2 1.62,-0.52 2.37,-0.97 3.67,-1.46 8.23,-3.1 13.57,-4.91 3.45,-1.15 6.73,-2.24 10.2,-3.32 15.12,-4.88 30.37,-9.09 45.38,-12.52 2.1,-0.56 3.97,-0.94 5.93,-1.34 4.23,-0.98 8.37,-1.9 12.63,-2.73 l 7.73,-1.49 c 1.81,-0.35 3.71,-0.67 5.63,-1.01 l 4.39,-0.76 c 9.78,-1.67 19.09,-2.96 28.37,-3.93 2.04,-0.35 3.55,-0.52 5.13,-0.61 2.16,-0.27 3.41,-0.45 4.74,-0.54 10.47,-1.06 21,-1.79 31.58,-2.2 0.01,0 0.02,0 0.03,0 12.37,-0.52 24.71,-0.62 36.71,-0.21 3.33,0.1 6.64,0.21 9.93,0.41 10.34,0.43 20.81,1.27 31.26,2.5 2.43,0.23 4.76,0.53 7.11,0.83 4.59,0.53 9.19,1.14 13.79,1.96 5.45,0.86 10.76,1.79 16.16,2.83 5.41,1.03 10.81,2.18 16.21,3.43 5.4,1.25 10.91,2.59 16.32,4.05 2.33,0.62 4.83,0.1 6.71,-1.44 1.86,-1.53 2.89,-3.87 2.72,-6.29 l -25.35,-387.299 c -0.2,-3.192 -2.42,-5.911 -5.52,-6.75 -41.15,-11.18 -84.96,-16.84 -130.37,-16.84"
         style="fill:#29275f;fill-opacity:1;fill-rule:nonzero;stroke:none"
         id="path166" />
      <path
         d="m 4290.03,296.621 c -0.18,0 -0.35,0.008 -0.53,0.02 -4.13,0.281 -7.25,3.859 -6.96,8 l 9.71,135.199 12.36,172.402 C 4263.16,602 4219.17,597.32 4173.69,598.148 c -6.55,0.114 -13.13,0.434 -19.48,0.872 -3.26,0.089 -6.71,0.312 -10.15,0.66 -2.71,0.062 -5.82,0.371 -8.93,0.691 -6.4,0.57 -12.52,1.211 -18.43,1.961 -12.21,1.477 -23.03,3.09 -33.03,4.918 -3.03,0.539 -6.08,1.102 -9.02,1.738 -7.75,1.473 -15.27,3.082 -22.35,4.801 -4.23,0.953 -8.37,1.93 -12.27,3.02 l -7.19,1.871 c -9.08,2.441 -17.71,5.011 -25.68,7.629 -3,0.933 -5.9,1.91 -8.63,2.832 l -1.67,0.57 c -6.31,2.238 -11.49,4.199 -15.47,5.73 L 3959.41,327.68 c -0.28,-4.129 -3.86,-7.2 -8,-6.961 -4.13,0.281 -7.25,3.871 -6.96,8 l 22.72,318.121 c 0.16,2.351 1.45,4.469 3.42,5.75 1.97,1.289 4.48,1.539 6.67,0.762 0,0 1.12,-0.403 3.06,-1.383 0.46,-0.137 1.17,-0.418 1.88,-0.778 3.28,-1.261 10.16,-3.961 19.57,-7.3 l 1.56,-0.532 c 2.62,-0.89 5.41,-1.828 8.4,-2.769 7.83,-2.559 16.19,-5.051 24.96,-7.41 l 7.23,-1.891 c 3.8,-1.059 7.69,-1.98 11.79,-2.898 6.97,-1.692 14.26,-3.239 21.93,-4.711 2.97,-0.641 5.83,-1.16 8.7,-1.668 9.73,-1.793 20.26,-3.352 32.2,-4.793 5.76,-0.739 11.69,-1.36 17.61,-1.879 3.26,-0.328 6.02,-0.61 8.88,-0.699 3.6,-0.34 6.7,-0.551 9.91,-0.641 6.41,-0.441 12.7,-0.738 19.02,-0.852 47.71,-0.898 93.88,4.524 136.91,16.211 2.33,0.653 4.85,0.102 6.73,-1.437 1.87,-1.543 2.89,-3.91 2.71,-6.332 L 4297.5,303.602 c -0.28,-3.954 -3.57,-6.981 -7.47,-6.981"
         style="fill:#29275f;fill-opacity:1;fill-rule:nonzero;stroke:none"
         id="path168" />
      <path
         d="m 3708.87,4225.39 h 0.09 z m -260.06,-205.62 c 6.72,-16.82 60.66,-142.98 149.22,-137.14 89.03,6.1 149.55,110.67 158.58,127.22 l -40.11,214.75 c -0.13,-0.39 -0.26,-0.78 -0.4,-1.16 -18.85,-84.76 -56.54,-144.58 -112.02,-177.81 -64.14,-38.42 -132.07,-29.42 -155.08,-24.75 z m 142.79,-152.36 c -101.2,-0.01 -155.26,142.76 -157.57,148.98 -0.46,1.25 -0.58,2.58 -0.36,3.89 l 1.9,10.98 c 0.37,2.09 1.6,3.92 3.39,5.06 1.78,1.13 3.98,1.44 6.02,0.89 0.8,-0.23 80.1,-21.52 151.55,21.38 51.74,31.06 87.05,87.65 104.95,168.2 h 0.01 c 0.04,0.17 0.08,0.35 0.12,0.51 0.06,0.25 0.14,0.5 0.21,0.74 3.69,10.62 6.49,21.71 8.34,32.98 0.6,3.6 3.69,6.25 7.33,6.28 0.03,0 0.05,0 0.08,0 3.61,0 6.71,-2.57 7.37,-6.12 l 46.89,-251.16 c 0.31,-1.62 0.06,-3.3 -0.68,-4.77 -2.7,-5.32 -67.34,-130.41 -172.09,-137.59 -2.51,-0.17 -5.01,-0.25 -7.46,-0.25"
         style="fill:#29275f;fill-opacity:1;fill-rule:nonzero;stroke:none"
         id="path170" />
      <path
         d="m 3451.57,4035.72 c 20.53,-4.06 85.47,-12.85 144.96,22.87 34.8,20.89 62.17,53.33 81.8,96.83 -49.88,-60.98 -119.16,-80.84 -120.58,-81.24 v 0 c -32.14,-8.86 -74.71,-15.79 -99.63,-0.38 z m 42.8,-19.21 c -30.43,0 -51.7,5.76 -53.42,6.25 -3.71,1.03 -6.03,4.7 -5.38,8.5 l 9.93,57.65 c 0.46,2.73 2.4,4.98 5.03,5.86 2.63,0.87 5.52,0.21 7.53,-1.7 2.07,-1.97 3.85,-3.57 5.35,-4.69 15.15,-11.79 47.2,-11.65 90.36,0.26 h 0.01 c 1.1,0.31 111.08,31.58 147.94,138.96 1.29,3.76 5.31,5.87 9.12,4.78 3.83,-1.08 6.15,-4.96 5.29,-8.84 -18.85,-84.82 -56.55,-144.67 -112.05,-177.91 -38.77,-23.22 -78.93,-29.12 -109.71,-29.12"
         style="fill:#29275f;fill-opacity:1;fill-rule:nonzero;stroke:none"
         id="path172" />
      <path
         d="m 3355.9,4500.11 c -0.36,-5.07 -1.41,-20.77 -2.61,-42.06 -2.68,-47.91 -8.13,-163.71 -0.96,-204.22 8.94,-50.95 80.14,-136.71 105.7,-160.72 2.1,-2.01 3.88,-3.61 5.38,-4.73 15.15,-11.79 47.2,-11.65 90.36,0.26 1.11,0.31 110.91,31.52 147.85,138.67 0.06,0.25 0.13,0.49 0.2,0.73 3.69,10.62 6.49,21.71 8.34,32.98 0.57,3.41 3.38,5.99 6.82,6.26 20.05,1.57 39.42,9.54 54.55,22.42 18.71,15.75 31.28,38.59 34.51,62.67 2.37,17.26 -0.31,34.2 -7.54,47.76 -5.46,10.07 -13.63,18.59 -22.98,23.95 -4.15,2.45 -8.54,4.28 -13.16,5.48 -6.41,1.49 -13.57,1.61 -20.48,0.31 -0.83,-0.15 -1.68,-0.16 -2.51,-0.05 -15.95,2.39 -46.91,16.89 -49.88,54.68 -0.85,10.52 -0.94,22.35 -1.04,34.86 -0.27,36.09 -0.59,76.99 -19.92,93.65 -11.13,9.6 -39.97,-4.38 -70.49,-19.16 -34.4,-16.66 -73.38,-35.55 -112.96,-37.05 -46.81,-1.71 -79.31,8.81 -98.3,17.95 -1.83,0.88 -3.74,1.88 -5.42,2.78 l -3.66,2.08 c -1.12,0.63 -2.17,1.23 -3.09,1.82 l -1,0.66 c -0.57,-1.21 -1.09,-2.44 -1.62,-3.67 -0.89,-2.02 -1.68,-3.88 -2.37,-5.74 -0.68,-1.62 -1.24,-3.01 -1.7,-4.41 -2.03,-5.41 -3.58,-10.37 -4.69,-15.02 -0.87,-2.48 -1.29,-4.21 -1.63,-5.94 -0.89,-3.59 -1.58,-7.02 -2.19,-10.34 -0.72,-3.76 -1.32,-7.46 -1.72,-11.26 -0.95,-7.9 -1.43,-15.7 -1.43,-23.3 0,-0.8 -0.13,-1.57 -0.36,-2.3 z m 141.82,-435.42 c -16.82,0 -32.33,3.15 -43.41,11.76 -1.77,1.32 -4.02,3.3 -6.6,5.76 -27.4,25.75 -100.48,113.89 -110.14,169.01 -7.18,40.53 -2.62,147.51 0.74,207.67 1.48,26.26 2.75,44.05 2.75,44.05 0.03,0.44 0.1,0.87 0.21,1.29 0.07,7.63 0.57,15.4 1.52,23.16 0.42,4.1 1.09,8.22 1.87,12.32 0.65,3.6 1.42,7.36 2.31,10.9 0.42,2.13 1.06,4.62 1.93,7 1,4.39 2.73,9.95 4.88,15.66 0.5,1.5 1.2,3.28 1.9,4.93 0.67,1.84 1.57,3.99 2.48,6.03 0.98,2.27 1.92,4.43 3.01,6.5 0.48,1.31 1.06,2.41 1.55,3.3 0.06,0.14 0.12,0.28 0.19,0.42 0.06,0.12 0.11,0.24 0.16,0.35 0.26,0.66 0.61,1.44 1.09,2.26 1.36,2.28 3.81,3.67 6.45,3.67 1.5,0 3.48,-0.65 4.71,-1.48 0.27,-0.18 0.54,-0.38 0.79,-0.61 0.58,-0.35 1.13,-0.76 1.69,-1.26 l 4.85,-3.3 c 0.74,-0.46 1.55,-0.91 2.41,-1.4 l 3.57,-2.04 c 1.25,-0.66 2.94,-1.55 4.62,-2.35 17.49,-8.44 47.44,-18.09 91.26,-16.49 36.44,1.37 73.92,19.53 106.99,35.55 38.1,18.46 68.2,33.06 86.82,17.03 v 0 c 24.49,-21.11 24.83,-65.63 25.13,-104.9 0.1,-12.23 0.19,-23.79 1,-33.79 2.53,-32.28 30.04,-39.61 36.04,-40.83 8.48,1.43 17.26,1.18 25.46,-0.73 6.18,-1.62 11.87,-3.99 17.12,-7.09 11.63,-6.67 21.85,-17.27 28.65,-29.81 8.73,-16.36 11.98,-36.55 9.19,-56.87 -3.72,-27.72 -18.19,-54.01 -39.68,-72.11 -16.03,-13.64 -36.18,-22.52 -57.27,-25.31 -1.93,-10.06 -4.57,-19.96 -7.86,-29.51 -0.06,-0.24 -0.12,-0.47 -0.2,-0.71 -39.4,-114.79 -156.98,-148.22 -158.16,-148.54 -18.34,-5.06 -40.1,-9.49 -60.02,-9.49"
         style="fill:#29275f;fill-opacity:1;fill-rule:nonzero;stroke:none"
         id="path174" />
      <path
         d="m 3221.08,2579.29 c -4,0 -8.6,0.69 -13.87,2.41 -24.68,8.1 -92.77,65.63 -107.26,78.03 -2.04,0.1 -5.21,0.28 -9.23,0.5 -27.69,2 -78.48,7.62 -108.65,22.77 -31.19,15.48 -69.44,73.4 -89.45,106.53 -2.15,3.55 -1.01,8.16 2.53,10.3 3.53,2.15 8.16,1.01 10.3,-2.54 32.16,-53.22 63.3,-90.93 83.32,-100.88 28.91,-14.51 81.61,-19.66 102.92,-21.21 7.12,-0.41 11.51,-0.61 11.53,-0.61 1.68,-0.08 3.28,-0.71 4.55,-1.81 22.28,-19.18 84.42,-70.36 104.11,-76.82 8.09,-2.66 14.34,-2.13 18.06,1.49 2.77,2.7 3.23,6.25 2.95,7.21 -2.11,5.5 -9.57,19.01 -12.02,23.45 -0.69,1.23 -1.13,2.04 -1.23,2.26 -1.44,2.86 -0.89,6.32 1.35,8.6 2.24,2.28 5.7,2.9 8.58,1.53 l 0.99,-0.49 c 14.21,-6.99 41.15,-19.45 61.93,-24.34 17.92,-4.16 26.22,2.1 29.65,6.42 -5.77,6.66 -27.32,28.27 -107.03,97.95 l -1.73,1.5 c -3.08,2.7 -3.43,7.36 -0.78,10.49 2.64,3.15 7.3,3.55 10.47,0.96 45.1,-36.99 80.42,-60.88 92.19,-62.37 14.71,-1.77 24.36,5.4 27.96,8.7 -0.26,1.86 -1.38,6.19 -6.43,12.41 -8.24,10.28 -40.08,45.43 -50.55,56.97 l -3.92,4.34 c -2.33,2.61 -2.54,6.48 -0.52,9.34 2.05,2.84 5.77,3.91 8.99,2.58 12.59,-5.21 47.22,-15.85 58.34,-3.58 -2.37,19.97 -129.93,101.6 -163.65,108.88 -11.41,2.42 -34.77,1.01 -65.78,-3.98 -28.32,-4.55 -54.03,-10.61 -54.28,-10.67 -2.94,-0.69 -6.01,0.44 -7.8,2.88 l -20.16,27.67 c -2.43,3.35 -1.7,8.04 1.65,10.48 3.32,2.44 8.02,1.71 10.48,-1.64 l 17.25,-23.68 c 8.93,2 28.97,6.31 50.47,9.77 33.71,5.43 57.7,6.74 71.31,3.84 30.61,-6.61 162.91,-85.49 174.44,-118.11 2.59,-7.3 -0.03,-12.11 -1.81,-14.34 -11.13,-13.74 -32.14,-13.19 -49.51,-9.6 13.66,-15.17 30.75,-34.28 36.73,-41.73 12.28,-15.16 9.74,-25.58 9.11,-27.52 -0.31,-0.92 -0.79,-1.77 -1.4,-2.51 -0.65,-0.76 -16.07,-18.76 -42.78,-15.38 -1.52,0.2 -3.21,0.59 -5.03,1.15 32.64,-30.52 31.37,-33.4 29.38,-37.85 -5.52,-12.22 -21.53,-24.25 -48.67,-17.98 -14.44,3.39 -31.38,10.06 -45.51,16.31 1.4,-2.83 2.56,-5.34 3.29,-7.27 2.69,-6.61 0.35,-16.15 -5.61,-22.53 -3.28,-3.53 -9.67,-8.28 -20.17,-8.28"
         style="fill:#29275f;fill-opacity:1;fill-rule:nonzero;stroke:none"
         id="path176" />
      <path
         d="m 4309.58,2773.17 c -0.16,0 -0.31,0.01 -0.47,0.02 -4.13,0.25 -7.28,3.81 -7.03,7.94 l 71.59,1174.21 c 0.25,4.14 3.87,7.27 7.95,7.03 4.13,-0.25 7.27,-3.81 7.03,-7.94 l -71.59,-1174.21 c -0.25,-3.98 -3.56,-7.05 -7.48,-7.05"
         style="fill:#29275f;fill-opacity:1;fill-rule:nonzero;stroke:none"
         id="path178" />
      <path
         d="m 4188.43,985.879 c -0.15,0 -0.31,0 -0.45,0.012 -4.14,0.238 -7.3,3.8 -7.05,7.929 l 91.67,1556.32 c 0.24,4.13 3.8,7.39 7.93,7.05 4.14,-0.25 7.29,-3.8 7.05,-7.93 L 4195.91,992.941 c -0.24,-3.992 -3.55,-7.062 -7.48,-7.062"
         style="fill:#29275f;fill-opacity:1;fill-rule:nonzero;stroke:none"
         id="path180" />
      <path
         d="m 4207.03,791.148 c -142.68,0 -219.32,39.793 -223.26,41.891 -3.65,1.949 -5.04,6.481 -3.1,10.133 1.95,3.66 6.51,5.047 10.15,3.109 1.17,-0.621 119.47,-61.691 333.07,-31.652 4.04,0.652 7.89,-2.277 8.48,-6.379 0.58,-4.102 -2.28,-7.891 -6.39,-8.469 -43.68,-6.152 -83.37,-8.633 -118.95,-8.633"
         style="fill:#29275f;fill-opacity:1;fill-rule:nonzero;stroke:none"
         id="path182" />
      <path
         d="m 2879.28,3270.8 c -2.14,0 -4.27,0.92 -5.76,2.7 l -43.62,52.4 c -2.66,3.18 -2.22,7.91 0.97,10.56 3.15,2.65 7.9,2.23 10.55,-0.96 l 43.63,-52.4 c 2.65,-3.18 2.21,-7.92 -0.97,-10.56 -1.4,-1.17 -3.1,-1.74 -4.8,-1.74"
         style="fill:#29275f;fill-opacity:1;fill-rule:nonzero;stroke:none"
         id="path184" />
      <path
         d="m 3090.62,3398.6 c -4.14,0 -7.5,3.36 -7.5,7.5 v 154.1 c 0,4.14 3.36,7.5 7.5,7.5 4.14,0 7.5,-3.36 7.5,-7.5 v -154.1 c 0,-4.14 -3.36,-7.5 -7.5,-7.5"
         style="fill:#29275f;fill-opacity:1;fill-rule:nonzero;stroke:none"
         id="path186" />
      <path
         d="m 3067.13,3426.48 c -2.44,0 -4.84,1.19 -6.27,3.38 l -39.64,60.15 c -2.29,3.46 -1.33,8.11 2.13,10.39 3.47,2.28 8.11,1.32 10.39,-2.13 l 39.64,-60.16 c 2.28,-3.46 1.32,-8.11 -2.13,-10.39 -1.28,-0.84 -2.71,-1.24 -4.12,-1.24"
         style="fill:#29275f;fill-opacity:1;fill-rule:nonzero;stroke:none"
         id="path188" />
      <path
         d="m 4008.66,3289.07 c -0.5,0 -1.01,0.05 -1.51,0.15 -4.07,0.83 -6.67,4.8 -5.84,8.85 l 46.46,226.92 c 0.82,4.06 4.78,6.66 8.85,5.85 4.06,-0.83 6.67,-4.8 5.84,-8.85 l -46.47,-226.92 c -0.72,-3.55 -3.84,-6 -7.33,-6"
         style="fill:#29275f;fill-opacity:1;fill-rule:nonzero;stroke:none"
         id="path190" />
      <path
         d="m 4044.82,3306.5 c -1.38,0 -2.78,0.38 -4.04,1.19 -3.49,2.24 -4.49,6.87 -2.27,10.36 l 54.32,84.71 c 2.24,3.49 6.87,4.51 10.37,2.27 3.49,-2.24 4.49,-6.88 2.27,-10.36 l -54.32,-84.72 c -1.44,-2.23 -3.86,-3.45 -6.33,-3.45"
         style="fill:#29275f;fill-opacity:1;fill-rule:nonzero;stroke:none"
         id="path192" />
      <path
         d="m 3226.35,2626.22 c -1.97,0 -3.92,0.76 -5.4,2.28 l -71.14,73.56 c -2.88,2.98 -2.8,7.72 0.18,10.6 2.98,2.88 7.72,2.8 10.6,-0.17 l 71.15,-73.56 c 2.88,-2.97 2.8,-7.72 -0.18,-10.6 -1.45,-1.41 -3.34,-2.11 -5.21,-2.11"
         style="fill:#29275f;fill-opacity:1;fill-rule:nonzero;stroke:none"
         id="path194" />
      <path
         d="m 3287.92,2750.53 c -1.72,0 -3.45,0.59 -4.87,1.79 l -45.61,38.79 c -3.16,2.68 -3.54,7.41 -0.85,10.57 2.69,3.15 7.42,3.53 10.58,0.85 l 45.61,-38.79 c 3.16,-2.68 3.54,-7.41 0.85,-10.57 -1.48,-1.74 -3.59,-2.64 -5.71,-2.64"
         style="fill:#29275f;fill-opacity:1;fill-rule:nonzero;stroke:none"
         id="path196" />
      <path
         d="m 3218.32,2719.69 c -1.71,0 -3.42,0.57 -4.83,1.75 l -27.54,23.15 c -3.18,2.66 -3.59,7.4 -0.92,10.56 2.66,3.19 7.4,3.58 10.56,0.92 l 27.55,-23.14 c 3.18,-2.67 3.59,-7.39 0.92,-10.57 -1.48,-1.77 -3.6,-2.67 -5.74,-2.67"
         style="fill:#29275f;fill-opacity:1;fill-rule:nonzero;stroke:none"
         id="path198" />
      <path
         d="m 4540,3591.16 c -0.93,0 -1.88,0.17 -2.79,0.53 l -82.79,33.15 c -3.85,1.54 -5.72,5.9 -4.18,9.75 1.54,3.85 5.94,5.71 9.75,4.17 l 82.79,-33.14 c 3.85,-1.54 5.72,-5.9 4.18,-9.75 -1.17,-2.93 -3.99,-4.71 -6.96,-4.71"
         style="fill:#29275f;fill-opacity:1;fill-rule:nonzero;stroke:none"
         id="path200" />
      <path
         d="m 4539.99,3643.72 c -1.16,0 -2.35,0.27 -3.45,0.84 l -41.69,21.69 c -13.07,6.8 -26.9,12.23 -41.1,16.15 l -54.93,15.15 c -4,1.11 -6.34,5.24 -5.24,9.23 1.1,3.99 5.23,6.32 9.22,5.24 l 54.93,-15.16 c 15.23,-4.2 30.04,-10.02 44.04,-17.3 l 41.68,-21.69 c 3.69,-1.91 5.11,-6.44 3.2,-10.11 -1.33,-2.57 -3.95,-4.04 -6.66,-4.04"
         style="fill:#29275f;fill-opacity:1;fill-rule:nonzero;stroke:none"
         id="path202" />
      <path
         d="m 4560.07,3677.48 c -1.46,0 -2.93,0.43 -4.23,1.32 l -33.81,23.15 c -14.07,9.63 -29.29,17.53 -45.23,23.48 l -41.86,15.63 c -3.88,1.45 -5.85,5.77 -4.4,9.65 1.45,3.88 5.76,5.85 9.65,4.41 l 41.87,-15.64 c 17.07,-6.38 33.37,-14.84 48.45,-25.15 l 33.8,-23.16 c 3.42,-2.34 4.29,-7.01 1.96,-10.42 -1.46,-2.12 -3.81,-3.27 -6.2,-3.27"
         style="fill:#29275f;fill-opacity:1;fill-rule:nonzero;stroke:none"
         id="path204" />
      <path
         d="m 4580.67,3711.99 c -1.99,0 -3.97,0.78 -5.45,2.34 l -38.34,40.54 c -2.84,3.01 -2.71,7.76 0.3,10.6 3.02,2.85 7.76,2.71 10.6,-0.3 l 38.34,-40.53 c 2.84,-3.01 2.72,-7.76 -0.29,-10.6 -1.46,-1.38 -3.31,-2.05 -5.16,-2.05"
         style="fill:#29275f;fill-opacity:1;fill-rule:nonzero;stroke:none"
         id="path206" />
      <path
         d="m 3540.55,4415.79 c 0.51,-16.16 12.33,-28.89 26.39,-28.44 14.05,0.44 25.03,13.9 24.52,30.06 -0.51,16.16 -12.33,28.89 -26.38,28.45 -14.06,-0.45 -25.04,-13.91 -24.53,-30.07"
         style="fill:#29275f;fill-opacity:1;fill-rule:nonzero;stroke:none"
         id="path208" />
      <path
         d="m 3380.38,4410.7 c 0.52,-16.16 12.33,-28.9 26.39,-28.45 14.06,0.45 25.04,13.91 24.53,30.07 -0.52,16.16 -12.33,28.89 -26.39,28.44 -14.06,-0.44 -25.04,-13.9 -24.53,-30.06"
         style="fill:#29275f;fill-opacity:1;fill-rule:nonzero;stroke:none"
         id="path210" />
      <path
         d="m 3551.74,4507.22 c 22.09,-1.15 43.08,-6.08 63.39,-14.82 3.66,-1.57 6.89,-6.11 8.03,-9.77 1.23,-3.99 0.9,-9.35 -1.28,-12.99 -2.19,-3.65 -5.53,-6.91 -9.78,-8.02 -4.59,-1.2 -8.63,-0.59 -12.98,1.28 -1.09,0.47 -2.19,0.9 -3.3,1.35 -12.34,4.58 -25.16,7.61 -38.25,9.07 -1.59,0.13 -3.17,0.27 -4.76,0.36 -4.53,0.23 -8.61,1.34 -12.02,4.53 -3,2.82 -5.34,7.52 -5.28,11.7 0.11,8.48 6.85,17.8 16.23,17.31"
         style="fill:#29275f;fill-opacity:1;fill-rule:nonzero;stroke:none"
         id="path212" />
      <path
         d="m 3430.12,4503.35 c -21.97,-2.55 -42.61,-8.8 -62.32,-18.81 -3.56,-1.81 -6.49,-6.54 -7.39,-10.27 -0.98,-4.06 -0.31,-9.39 2.1,-12.88 2.42,-3.5 5.96,-6.55 10.27,-7.39 4.66,-0.9 8.65,-0.04 12.87,2.11 1.06,0.53 2.14,1.03 3.21,1.55 12.03,5.36 24.63,9.2 37.6,11.49 1.57,0.23 3.14,0.47 4.72,0.65 4.51,0.53 8.52,1.89 11.71,5.29 2.81,3.01 4.85,7.85 4.53,12.02 -0.64,8.45 -7.97,17.32 -17.3,16.24"
         style="fill:#29275f;fill-opacity:1;fill-rule:nonzero;stroke:none"
         id="path214" />
      <path
         d="m 3575.96,4335.39 c -1.43,-23.53 16.49,-43.78 40.02,-45.21 23.54,-1.44 43.79,16.48 45.22,40.02 1.44,23.53 -16.48,43.78 -40.02,45.21 -23.54,1.44 -43.78,-16.48 -45.22,-40.02"
         style="fill:#e58e8b;fill-opacity:1;fill-rule:nonzero;stroke:none"
         id="path216" />
      <path
         d="m 3473.61,4390.15 c 0,0 20.87,-27.19 13.32,-53.49 -7.55,-26.3 -28.7,-43.08 -28.7,-43.08 0,0 -45.99,14.79 -40.98,51.25 0,0 0.28,16.65 23.7,17.97 23.41,1.31 32.66,27.35 32.66,27.35"
         style="fill:#e58e8b;fill-opacity:1;fill-rule:nonzero;stroke:none"
         id="path218" />
      <path
         d="m 3472.2,4282.6 c -14.14,0 -28.25,4.9 -39.29,13.74 -12.13,9.72 -20.43,24.1 -22.77,39.46 -1.78,11.77 1.2,21.74 8.18,27.35 4.34,3.5 9.31,4.7 13.71,5.76 l 2.17,0.53 c 21.72,5.61 39.11,25.89 41.35,48.22 0.42,4.12 4.15,7.15 8.22,6.7 4.12,-0.41 7.13,-4.09 6.71,-8.21 -2.89,-28.81 -24.5,-53.99 -52.53,-61.23 l -2.42,-0.6 c -3.13,-0.75 -6.08,-1.46 -7.81,-2.86 -2.67,-2.14 -3.7,-7.16 -2.75,-13.41 1.79,-11.67 8.09,-22.61 17.31,-30 9.23,-7.39 21.23,-11.17 33.08,-10.35 4.08,0.35 7.71,-2.82 8,-6.96 0.29,-4.13 -2.83,-7.71 -6.97,-8 -1.39,-0.1 -2.79,-0.14 -4.19,-0.14"
         style="fill:#29275f;fill-opacity:1;fill-rule:nonzero;stroke:none"
         id="path220" />
      <path
         d="m 3493.15,4204.84 c -3.93,0 -7.24,3.07 -7.48,7.06 -0.24,4.14 2.91,7.69 7.05,7.92 15.19,0.89 29.92,6.84 41.49,16.74 11.55,9.9 19.68,23.54 22.9,38.41 0.88,4.06 4.96,6.61 8.91,5.74 4.06,-0.87 6.62,-4.86 5.76,-8.91 -3.92,-18.05 -13.79,-34.61 -27.82,-46.63 -14.04,-12.02 -31.92,-19.23 -50.36,-20.32 -0.15,-0.01 -0.3,-0.01 -0.45,-0.01"
         style="fill:#29275f;fill-opacity:1;fill-rule:nonzero;stroke:none"
         id="path222" />
      <path
         d="m 3731.4,4299.2 c -0.02,0 -0.03,0 -0.05,0 -4.15,0.03 -7.48,3.41 -7.45,7.56 0.39,51.94 39.35,92.97 41.01,94.69 2.86,2.97 7.6,3.08 10.6,0.2 2.97,-2.86 3.07,-7.61 0.21,-10.6 -0.37,-0.38 -36.47,-38.55 -36.82,-84.41 -0.03,-4.12 -3.37,-7.44 -7.5,-7.44"
         style="fill:#29275f;fill-opacity:1;fill-rule:nonzero;stroke:none"
         id="path224" />
      <path
         d="m 4149.73,4662.1 c 0,-10.81 -8.74,-19.56 -19.56,-19.56 h -50.99 v -50.99 c 0,-10.82 -8.74,-19.56 -19.56,-19.56 -5.4,0 -10.28,2.2 -13.84,5.71 -3.52,3.57 -5.72,8.44 -5.72,13.85 v 50.99 h -50.98 c -10.82,0 -19.57,8.75 -19.57,19.56 0,5.4 2.2,10.28 5.72,13.85 3.56,3.51 8.44,5.71 13.85,5.71 h 50.98 v 50.99 c 0,10.81 8.75,19.56 19.56,19.56 5.41,0 10.29,-2.2 13.85,-5.72 3.52,-3.56 5.71,-8.44 5.71,-13.84 v -50.99 h 50.99 c 10.82,0 19.56,-8.75 19.56,-19.56"
         style="fill:#e58e8b;fill-opacity:1;fill-rule:nonzero;stroke:none"
         id="path226" />
      <path
         d="m 4108.1,4442.49 c -33.98,0 -34.04,-52.81 0,-52.81 33.98,0 34.03,52.81 0,52.81"
         style="fill:#e58e8b;fill-opacity:1;fill-rule:nonzero;stroke:none"
         id="path228" />
      <path
         d="m 4350.43,4656.77 c -33.98,0 -34.03,-52.81 0,-52.81 33.98,0 34.04,52.81 0,52.81"
         style="fill:#e58e8b;fill-opacity:1;fill-rule:nonzero;stroke:none"
         id="path230" />
      <path
         d="m 840.598,2479 c 0,-10.81 -8.746,-19.56 -19.559,-19.56 h -50.988 v -50.99 c 0,-10.81 -8.746,-19.56 -19.563,-19.56 -5.406,0 -10.285,2.2 -13.843,5.72 -3.516,3.56 -5.715,8.44 -5.715,13.84 v 50.99 h -50.989 c -10.812,0 -19.558,8.75 -19.558,19.56 0,5.41 2.195,10.29 5.711,13.85 3.562,3.51 8.441,5.71 13.847,5.71 h 50.989 v 50.99 c 0,10.81 8.746,19.56 19.558,19.56 5.41,0 10.289,-2.2 13.848,-5.71 3.516,-3.56 5.715,-8.44 5.715,-13.85 v -50.99 h 50.988 c 10.813,0 19.559,-8.75 19.559,-19.56"
         style="fill:#e58e8b;fill-opacity:1;fill-rule:nonzero;stroke:none"
         id="path232" />
      <path
         d="m 551.344,2320.51 c -33.981,0 -34.035,-52.81 0,-52.81 33.98,0 34.035,52.81 0,52.81"
         style="fill:#e58e8b;fill-opacity:1;fill-rule:nonzero;stroke:none"
         id="path234" />
      <path
         d="m 579.992,2707.02 c -33.976,0 -34.035,-52.81 0,-52.81 33.981,0 34.039,52.81 0,52.81"
         style="fill:#e58e8b;fill-opacity:1;fill-rule:nonzero;stroke:none"
         id="path236" />
      <path
         d="m 2961.22,4373.65 c 0,-10.81 -8.74,-19.56 -19.56,-19.56 h -50.99 v -50.98 c 0,-10.82 -8.74,-19.57 -19.56,-19.57 -5.4,0 -10.28,2.2 -13.84,5.72 -3.52,3.56 -5.72,8.44 -5.72,13.85 v 50.98 h -50.99 c -10.81,0 -19.56,8.75 -19.56,19.56 0,5.41 2.2,10.29 5.72,13.85 3.56,3.52 8.44,5.71 13.84,5.71 h 50.99 v 50.99 c 0,10.82 8.75,19.56 19.56,19.56 5.41,0 10.29,-2.19 13.85,-5.71 3.52,-3.56 5.71,-8.44 5.71,-13.85 v -50.99 h 50.99 c 10.82,0 19.56,-8.74 19.56,-19.56"
         style="fill:#e58e8b;fill-opacity:1;fill-rule:nonzero;stroke:none"
         id="path238" />
      <path
         d="m 2642.69,4438.78 c -33.98,0 -34.04,-52.81 0,-52.81 33.98,0 34.04,52.81 0,52.81"
         style="fill:#e58e8b;fill-opacity:1;fill-rule:nonzero;stroke:none"
         id="path240" />
      <path
         d="m 3012.64,4623.75 c -33.98,0 -34.04,-52.8 0,-52.8 33.98,0 34.03,52.8 0,52.8"
         style="fill:#e58e8b;fill-opacity:1;fill-rule:nonzero;stroke:none"
         id="path242" />
      <path
         d="m 760.938,3748.09 c 0,-10.82 -8.747,-19.56 -19.559,-19.56 h -50.992 v -50.99 c 0,-10.81 -8.746,-19.56 -19.559,-19.56 -5.406,0 -10.285,2.2 -13.848,5.71 -3.515,3.56 -5.71,8.44 -5.71,13.85 v 50.99 h -50.993 c -10.812,0 -19.558,8.74 -19.558,19.56 0,5.4 2.199,10.28 5.715,13.84 3.558,3.52 8.437,5.72 13.843,5.72 h 50.993 v 50.99 c 0,10.81 8.746,19.56 19.558,19.56 5.406,0 10.285,-2.2 13.848,-5.72 3.515,-3.56 5.711,-8.44 5.711,-13.84 v -50.99 h 50.992 c 10.812,0 19.559,-8.75 19.559,-19.56"
         style="fill:#e58e8b;fill-opacity:1;fill-rule:nonzero;stroke:none"
         id="path244" />
      <path
         d="m 435.031,3808.62 c -33.976,0 -34.035,-52.81 0,-52.81 33.985,0 34.039,52.81 0,52.81"
         style="fill:#e58e8b;fill-opacity:1;fill-rule:nonzero;stroke:none"
         id="path246" />
    </g>
  </g>
</svg>
