<?xml version="1.0" encoding="UTF-8" standalone="no"?>
<!-- Created with Inkscape (http://www.inkscape.org/) -->

<svg
   version="1.1"
   id="svg2"
   width="1000"
   height="666.66669"
   viewBox="0 0 1000 666.66669"
   sodipodi:docname="welcome.eps"
   xmlns:inkscape="http://www.inkscape.org/namespaces/inkscape"
   xmlns:sodipodi="http://sodipodi.sourceforge.net/DTD/sodipodi-0.dtd"
   xmlns="http://www.w3.org/2000/svg"
   xmlns:svg="http://www.w3.org/2000/svg">
  <defs
     id="defs6" />
  <sodipodi:namedview
     id="namedview4"
     pagecolor="#ffffff"
     bordercolor="#000000"
     borderopacity="0.25"
     inkscape:showpageshadow="2"
     inkscape:pageopacity="0.0"
     inkscape:pagecheckerboard="0"
     inkscape:deskcolor="#d1d1d1" />
  <g
     id="g8"
     inkscape:groupmode="layer"
     inkscape:label="ink_ext_XXXXXX"
     transform="matrix(1.3333333,0,0,-1.3333333,0,666.66667)">
    <g
       id="g10"
       transform="scale(0.1)">
      <path
         d="M 7500,0 H 0 V 5000 H 7500 V 0"
         style="fill:#ffffff;fill-opacity:1;fill-rule:nonzero;stroke:none"
         id="path12" />
      <path
         d="m 4590.49,491.121 c 0,0 195.31,643.569 1063.53,238.121 347.26,-162.172 461.26,-41.043 578.15,-26.121 182.39,23.289 258.2,-100.461 310.58,-212 H 4590.49"
         style="fill:#f1f6fb;fill-opacity:1;fill-rule:nonzero;stroke:none"
         id="path14" />
      <path
         d="m 3057.9,491.121 h 525.29 c 0,0 -297.62,568.269 -712.84,573.799 -422.75,5.63 -545.08,-279.549 -735.4,-303.299 -248.51,-31.019 -382.22,138.828 -562.43,124.867 -362.3,-28.058 -535,-395.367 -535,-395.367 H 3057.9"
         style="fill:#f1f6fb;fill-opacity:1;fill-rule:nonzero;stroke:none"
         id="path16" />
      <path
         d="m 4549,4231.99 h 780.86 c 194.06,0 351.38,-157.32 351.38,-351.38 v 0 c 0,-194.06 -157.32,-351.38 -351.38,-351.38 h -3520.1 c -247.71,0 -448.52,-200.81 -448.52,-448.52 v -0.01 c 0,-247.71 200.81,-448.51 448.52,-448.51 H 6099.8 c 249.32,0 451.44,-202.12 451.44,-451.44 v 0 c 0,-249.32 -202.12,-451.43 -451.44,-451.43 H 1147.23 c -142.75,0 -258.468,-115.73 -258.468,-258.47 v 0 c 0,-142.75 115.718,-258.47 258.468,-258.47 h 1381.89"
         style="fill:none;stroke:#9fc1e6;stroke-width:10;stroke-linecap:butt;stroke-linejoin:round;stroke-miterlimit:10;stroke-dasharray:35, 35;stroke-dashoffset:0;stroke-opacity:1"
         id="path18" />
      <path
         d="m 1648.29,2305.65 c 0,-68.25 -55.33,-123.57 -123.58,-123.57 -68.25,0 -123.57,55.32 -123.57,123.57 0,68.25 55.32,123.58 123.57,123.58 68.25,0 123.58,-55.33 123.58,-123.58"
         style="fill:#f1f6fb;fill-opacity:1;fill-rule:nonzero;stroke:none"
         id="path20" />
      <path
         d="m 6034.6,1966.73 c 0,-40.45 -32.78,-73.23 -73.23,-73.23 -40.44,0 -73.23,32.78 -73.23,73.23 0,40.44 32.79,73.23 73.23,73.23 40.45,0 73.23,-32.79 73.23,-73.23"
         style="fill:#f1f6fb;fill-opacity:1;fill-rule:nonzero;stroke:none"
         id="path22" />
      <path
         d="m 1324.59,2574.31 c 0,-34.97 -28.34,-63.32 -63.31,-63.32 -34.97,0 -63.32,28.35 -63.32,63.32 0,34.97 28.35,63.31 63.32,63.31 34.97,0 63.31,-28.34 63.31,-63.31 z"
         style="fill:none;stroke:#9fc1e6;stroke-width:10;stroke-linecap:butt;stroke-linejoin:round;stroke-miterlimit:10;stroke-dasharray:none;stroke-opacity:1"
         id="path24" />
      <path
         d="m 5837.9,3724.81 c 0,-18.64 -15.12,-33.76 -33.76,-33.76 -18.65,0 -33.77,15.12 -33.77,33.76 0,18.65 15.12,33.77 33.77,33.77 18.64,0 33.76,-15.12 33.76,-33.77"
         style="fill:#f1f6fb;fill-opacity:1;fill-rule:nonzero;stroke:none"
         id="path26" />
      <path
         d="m 2522.58,4296.67 c 0,-18.65 -15.12,-33.77 -33.76,-33.77 -18.65,0 -33.76,15.12 -33.76,33.77 0,18.64 15.11,33.76 33.76,33.76 18.64,0 33.76,-15.12 33.76,-33.76"
         style="fill:#f1f6fb;fill-opacity:1;fill-rule:nonzero;stroke:none"
         id="path28" />
      <path
         d="m 6273.7,2352.49 c 0,-18.65 -15.12,-33.77 -33.77,-33.77 -18.64,0 -33.76,15.12 -33.76,33.77 0,18.64 15.12,33.76 33.76,33.76 18.65,0 33.77,-15.12 33.77,-33.76 z"
         style="fill:none;stroke:#9fc1e6;stroke-width:10;stroke-linecap:butt;stroke-linejoin:round;stroke-miterlimit:10;stroke-dasharray:none;stroke-opacity:1"
         id="path30" />
      <path
         d="m 1511.62,1423.03 c 0,-18.65 -15.12,-33.77 -33.77,-33.77 -18.64,0 -33.76,15.12 -33.76,33.77 0,18.64 15.12,33.76 33.76,33.76 18.65,0 33.77,-15.12 33.77,-33.76 z"
         style="fill:none;stroke:#9fc1e6;stroke-width:10;stroke-linecap:butt;stroke-linejoin:round;stroke-miterlimit:10;stroke-dasharray:none;stroke-opacity:1"
         id="path32" />
      <path
         d="m 5979.2,1276.22 c 0,-18.64 -15.12,-33.76 -33.76,-33.76 -18.65,0 -33.77,15.12 -33.77,33.76 0,18.65 15.12,33.77 33.77,33.77 18.64,0 33.76,-15.12 33.76,-33.77 z"
         style="fill:none;stroke:#9fc1e6;stroke-width:10;stroke-linecap:butt;stroke-linejoin:round;stroke-miterlimit:10;stroke-dasharray:none;stroke-opacity:1"
         id="path34" />
      <path
         d="m 5411.56,4003.08 c 0,-31.02 -25.15,-56.17 -56.16,-56.17 -31.02,0 -56.17,25.15 -56.17,56.17 0,31.01 25.15,56.16 56.17,56.16 31.01,0 56.16,-25.15 56.16,-56.16 z"
         style="fill:none;stroke:#9fc1e6;stroke-width:10;stroke-linecap:butt;stroke-linejoin:round;stroke-miterlimit:10;stroke-dasharray:none;stroke-opacity:1"
         id="path36" />
      <path
         d="m 1196.26,1636.2 h 172.69"
         style="fill:none;stroke:#9fc1e6;stroke-width:10;stroke-linecap:butt;stroke-linejoin:round;stroke-miterlimit:10;stroke-dasharray:none;stroke-opacity:1"
         id="path38" />
      <path
         d="m 6345.07,1550 h 172.69"
         style="fill:none;stroke:#9fc1e6;stroke-width:10;stroke-linecap:butt;stroke-linejoin:round;stroke-miterlimit:10;stroke-dasharray:none;stroke-opacity:1"
         id="path40" />
      <path
         d="m 4572.1,3663.13 h 264.37"
         style="fill:none;stroke:#9fc1e6;stroke-width:10;stroke-linecap:butt;stroke-linejoin:round;stroke-miterlimit:10;stroke-dasharray:none;stroke-opacity:1"
         id="path42" />
      <path
         d="m 1438.37,1828.24 h 86.34"
         style="fill:none;stroke:#9fc1e6;stroke-width:10;stroke-linecap:butt;stroke-linejoin:round;stroke-miterlimit:10;stroke-dasharray:none;stroke-opacity:1"
         id="path44" />
      <path
         d="M 4795.66,3754.46 H 4882"
         style="fill:none;stroke:#9fc1e6;stroke-width:10;stroke-linecap:butt;stroke-linejoin:round;stroke-miterlimit:10;stroke-dasharray:none;stroke-opacity:1"
         id="path46" />
      <path
         d="m 2173.48,4089.39 h 86.34"
         style="fill:none;stroke:#9fc1e6;stroke-width:10;stroke-linecap:butt;stroke-linejoin:round;stroke-miterlimit:10;stroke-dasharray:none;stroke-opacity:1"
         id="path48" />
      <path
         d="m 2325.31,4003.08 h 86.35"
         style="fill:none;stroke:#9fc1e6;stroke-width:10;stroke-linecap:butt;stroke-linejoin:round;stroke-miterlimit:10;stroke-dasharray:none;stroke-opacity:1"
         id="path50" />
      <path
         d="m 1674.32,486.121 c -119.15,231.09 -297.61,313.699 -375.16,428.918 -23.33,34.66 -43.66,72.152 -45.22,110.881 -1.56,38.73 19.64,78.87 60.93,93.21 35.46,12.31 77.86,3.8 114.83,-9.77 114.75,-42.15 202.29,-130.251 254.63,-226.462 52.34,-96.218 104.3,-247.058 95.7,-396.777"
         style="fill:#ffffff;fill-opacity:1;fill-rule:nonzero;stroke:none"
         id="path52" />
      <path
         d="m 1674.32,486.121 c -119.15,231.09 -297.61,313.699 -375.16,428.918 -23.33,34.66 -43.66,72.152 -45.22,110.881 -1.56,38.73 19.64,78.87 60.93,93.21 35.46,12.31 77.86,3.8 114.83,-9.77 114.75,-42.15 202.29,-130.251 254.63,-226.462 52.34,-96.218 104.3,-247.058 95.7,-396.777"
         style="fill:none;stroke:#9fc1e6;stroke-width:10;stroke-linecap:butt;stroke-linejoin:round;stroke-miterlimit:10;stroke-dasharray:none;stroke-opacity:1"
         id="path54" />
      <path
         d="m 1285.22,1101.73 c 0,0 369.05,-189.089 451.91,-615.609"
         style="fill:none;stroke:#9fc1e6;stroke-width:10;stroke-linecap:butt;stroke-linejoin:round;stroke-miterlimit:10;stroke-dasharray:none;stroke-opacity:1"
         id="path56" />
      <path
         d="m 1767.79,486.121 c -0.5,222.91 -51.91,390.891 -116.1,584.579 -31.96,96.43 -72.43,194.09 -96,291.85 -17.12,71.06 -31.12,161.11 9.97,218.64 46.78,65.5 136.95,37.05 202.82,-6.74 78.65,-52.29 134.35,-133.75 169.94,-217.57 62.93,-148.21 73.3,-311.64 75.13,-462.759 1.67,-138.742 -25.9,-291.93 -58.4,-408"
         style="fill:#ffffff;fill-opacity:1;fill-rule:nonzero;stroke:none"
         id="path58" />
      <path
         d="m 1767.79,486.121 c -0.5,222.91 -51.91,390.891 -116.1,584.579 -31.96,96.43 -72.43,194.09 -96,291.85 -17.12,71.06 -31.12,161.11 9.97,218.64 46.78,65.5 136.95,37.05 202.82,-6.74 78.65,-52.29 134.35,-133.75 169.94,-217.57 62.93,-148.21 73.3,-311.64 75.13,-462.759 1.67,-138.742 -25.9,-291.93 -58.4,-408"
         style="fill:none;stroke:#9fc1e6;stroke-width:10;stroke-linecap:butt;stroke-linejoin:round;stroke-miterlimit:10;stroke-dasharray:none;stroke-opacity:1"
         id="path60" />
      <path
         d="m 1637.35,1620.69 c 0,0 276.89,-497.71 226.86,-1134.569"
         style="fill:none;stroke:#9fc1e6;stroke-width:10;stroke-linecap:butt;stroke-linejoin:round;stroke-miterlimit:10;stroke-dasharray:none;stroke-opacity:1"
         id="path62" />
      <path
         d="m 2570.14,486.121 c -18.99,162.149 -17.3,339.68 37.12,493.598 54.41,153.921 167.51,292.681 320.6,349.411 26.48,9.81 57.85,16.62 81.59,1.32 21.8,-14.06 29.54,-42.02 32.88,-67.75 16.57,-127.65 -33.01,-254.73 -94.95,-367.571 -61.93,-112.848 -137.59,-287.731 -180.75,-409.008"
         style="fill:#ffffff;fill-opacity:1;fill-rule:nonzero;stroke:none"
         id="path64" />
      <path
         d="m 2570.14,486.121 c -18.99,162.149 -17.3,339.68 37.12,493.598 54.41,153.921 167.51,292.681 320.6,349.411 26.48,9.81 57.85,16.62 81.59,1.32 21.8,-14.06 29.54,-42.02 32.88,-67.75 16.57,-127.65 -33.01,-254.73 -94.95,-367.571 -61.93,-112.848 -137.59,-287.731 -180.75,-409.008"
         style="fill:none;stroke:#9fc1e6;stroke-width:10;stroke-linecap:butt;stroke-linejoin:round;stroke-miterlimit:10;stroke-dasharray:none;stroke-opacity:1"
         id="path66" />
      <path
         d="m 4563.55,486.121 c -14.47,234.52 11.98,522.159 88.27,706.689 59.25,143.32 158.37,277.85 292.87,362.65 96.91,61.11 282.31,159.23 380.63,51.98 144.44,-157.6 -171.69,-409.68 -255.69,-518.54 C 4930.09,908.059 4814.91,712.289 4768.71,486.121"
         style="fill:#ffffff;fill-opacity:1;fill-rule:nonzero;stroke:none"
         id="path68" />
      <path
         d="m 4563.55,486.121 c -14.47,234.52 11.98,522.159 88.27,706.689 59.25,143.32 158.37,277.85 292.87,362.65 96.91,61.11 282.31,159.23 380.63,51.98 144.44,-157.6 -171.69,-409.68 -255.69,-518.54 C 4930.09,908.059 4814.91,712.289 4768.71,486.121"
         style="fill:none;stroke:#9fc1e6;stroke-width:10;stroke-linecap:butt;stroke-linejoin:round;stroke-miterlimit:10;stroke-dasharray:none;stroke-opacity:1"
         id="path70" />
      <path
         d="m 4252.5,486.121 c -16.4,195.738 -138.01,378.32 -260.23,532.089 -122.23,153.76 -253.59,311.4 -295.93,503.21 -13.03,59.03 -16,124.88 16.53,175.83 49.72,77.87 161.65,88.97 250.3,62.99 122.66,-35.93 225.04,-125.15 295.71,-231.65 70.66,-106.51 112.24,-229.72 142.34,-353.94 53.33,-220.17 72.79,-462.509 57.48,-688.529"
         style="fill:#ffffff;fill-opacity:1;fill-rule:nonzero;stroke:none"
         id="path72" />
      <path
         d="m 4252.5,486.121 c -16.4,195.738 -138.01,378.32 -260.23,532.089 -122.23,153.76 -253.59,311.4 -295.93,503.21 -13.03,59.03 -16,124.88 16.53,175.83 49.72,77.87 161.65,88.97 250.3,62.99 122.66,-35.93 225.04,-125.15 295.71,-231.65 70.66,-106.51 112.24,-229.72 142.34,-353.94 53.33,-220.17 72.79,-462.509 57.48,-688.529"
         style="fill:none;stroke:#9fc1e6;stroke-width:10;stroke-linecap:butt;stroke-linejoin:round;stroke-miterlimit:10;stroke-dasharray:none;stroke-opacity:1"
         id="path74" />
      <path
         d="m 5793.33,486.121 c 9.7,284.84 62.98,518.689 272.69,728.399 65.79,65.79 188.45,151.17 299.05,101.78 54.78,-24.46 55.76,-108.19 29.83,-158.74 -69.91,-136.31 -372.08,-294.271 -483.35,-671.439"
         style="fill:#ffffff;fill-opacity:1;fill-rule:nonzero;stroke:none"
         id="path76" />
      <path
         d="m 5793.33,486.121 c 9.7,284.84 62.98,518.689 272.69,728.399 65.79,65.79 188.45,151.17 299.05,101.78 54.78,-24.46 55.76,-108.19 29.83,-158.74 -69.91,-136.31 -372.08,-294.271 -483.35,-671.439"
         style="fill:none;stroke:#9fc1e6;stroke-width:10;stroke-linecap:butt;stroke-linejoin:round;stroke-miterlimit:10;stroke-dasharray:none;stroke-opacity:1"
         id="path78" />
      <path
         d="m 5605.63,486.121 c -95.27,681.199 78.89,955.799 178.91,1056.019 66.26,66.39 191.83,162.63 303.96,92.03 133.68,-84.17 58.96,-274.74 -22.48,-419.65 -93.5,-166.36 -219.37,-421.141 -239.84,-728.399"
         style="fill:#ffffff;fill-opacity:1;fill-rule:nonzero;stroke:none"
         id="path80" />
      <path
         d="m 5605.63,486.121 c -95.27,681.199 78.89,955.799 178.91,1056.019 66.26,66.39 191.83,162.63 303.96,92.03 133.68,-84.17 58.96,-274.74 -22.48,-419.65 -93.5,-166.36 -219.37,-421.141 -239.84,-728.399"
         style="fill:none;stroke:#9fc1e6;stroke-width:10;stroke-linecap:butt;stroke-linejoin:round;stroke-miterlimit:10;stroke-dasharray:none;stroke-opacity:1"
         id="path82" />
      <path
         d="m 5982.38,486.121 c 21.11,112.34 127.52,354.32 286.62,429.879 40.86,19.41 92.64,24.012 136.58,11.5 40.11,-11.41 69.02,-48.27 74.55,-89.008 6.64,-48.851 -19.7,-90.262 -56.8,-119.711 -89.61,-71.14 -196.45,-140.41 -276.72,-232.66"
         style="fill:#ffffff;fill-opacity:1;fill-rule:nonzero;stroke:none"
         id="path84" />
      <path
         d="m 5982.38,486.121 c 21.11,112.34 127.52,354.32 286.62,429.879 40.86,19.41 92.64,24.012 136.58,11.5 40.11,-11.41 69.02,-48.27 74.55,-89.008 6.64,-48.851 -19.7,-90.262 -56.8,-119.711 -89.61,-71.14 -196.45,-140.41 -276.72,-232.66"
         style="fill:none;stroke:#9fc1e6;stroke-width:10;stroke-linecap:butt;stroke-linejoin:round;stroke-miterlimit:10;stroke-dasharray:none;stroke-opacity:1"
         id="path86" />
      <path
         d="m 3009.45,1330.45 c 0,0 -284.35,-300.45 -333.38,-839.329"
         style="fill:none;stroke:#9fc1e6;stroke-width:10;stroke-linecap:butt;stroke-linejoin:round;stroke-miterlimit:10;stroke-dasharray:none;stroke-opacity:1"
         id="path88" />
      <path
         d="m 3767.62,1747.73 c 0,0 477.6,-364.4 614.78,-1261.609"
         style="fill:none;stroke:#9fc1e6;stroke-width:10;stroke-linecap:butt;stroke-linejoin:round;stroke-miterlimit:10;stroke-dasharray:none;stroke-opacity:1"
         id="path90" />
      <path
         d="m 4631.5,481.121 c 0,0 91.26,746.879 693.82,1126.319"
         style="fill:none;stroke:#9fc1e6;stroke-width:10;stroke-linecap:butt;stroke-linejoin:round;stroke-miterlimit:10;stroke-dasharray:none;stroke-opacity:1"
         id="path92" />
      <path
         d="m 6088.47,1634.19 c 0,0 -392.66,-336.95 -387.24,-1153.069"
         style="fill:none;stroke:#9fc1e6;stroke-width:10;stroke-linecap:butt;stroke-linejoin:round;stroke-miterlimit:10;stroke-dasharray:none;stroke-opacity:1"
         id="path94" />
      <path
         d="m 5858.24,486.121 c 49.9,287.258 201.56,563.339 506.83,830.179"
         style="fill:none;stroke:#9fc1e6;stroke-width:10;stroke-linecap:butt;stroke-linejoin:round;stroke-miterlimit:10;stroke-dasharray:none;stroke-opacity:1"
         id="path96" />
      <path
         d="m 6056.12,486.121 c 0,0 113.93,276.809 385.3,424.508"
         style="fill:none;stroke:#9fc1e6;stroke-width:10;stroke-linecap:butt;stroke-linejoin:round;stroke-miterlimit:10;stroke-dasharray:none;stroke-opacity:1"
         id="path98" />
      <path
         d="M 6667.53,481.121 H 832.473 v 10 H 6667.53 Z"
         style="fill:none;stroke:#9fc1e6;stroke-width:10;stroke-linecap:butt;stroke-linejoin:round;stroke-miterlimit:10;stroke-dasharray:none;stroke-opacity:1"
         id="path100" />
      <path
         d="m 5665.49,481.121 h -291.87 l 1.87,35.75 h 291.88 l -1.88,-35.75"
         style="fill:#292827;fill-opacity:1;fill-rule:nonzero;stroke:none"
         id="path102" />
      <path
         d="m 5635.2,872.969 7.03,-245.149 -13.85,-110.949 -200.57,121.07 -12.64,263.239"
         style="fill:#f9aaa1;fill-opacity:1;fill-rule:nonzero;stroke:none"
         id="path104" />
      <path
         d="m 5427.81,637.941 c 0,0 -29.24,-70.359 -41.99,-89.992 -12.76,-19.629 -10.71,-38.418 -10.71,-38.418 0,0 276.26,0 291.75,0 5.1,29.739 -24.1,128.41 -24.1,128.41 0,0 -160.32,-10.371 -214.95,0"
         style="fill:#e64b5f;fill-opacity:1;fill-rule:nonzero;stroke:none"
         id="path106" />
      <path
         d="M 5499.51,614.109 H 5569"
         style="fill:none;stroke:#292827;stroke-width:10;stroke-linecap:butt;stroke-linejoin:round;stroke-miterlimit:10;stroke-dasharray:none;stroke-opacity:1"
         id="path108" />
      <path
         d="m 5496.6,590.531 h 74.34"
         style="fill:none;stroke:#292827;stroke-width:10;stroke-linecap:butt;stroke-linejoin:round;stroke-miterlimit:10;stroke-dasharray:none;stroke-opacity:1"
         id="path110" />
      <path
         d="m 5493.95,566.941 h 79.56"
         style="fill:none;stroke:#292827;stroke-width:10;stroke-linecap:butt;stroke-linejoin:round;stroke-miterlimit:10;stroke-dasharray:none;stroke-opacity:1"
         id="path112" />
      <path
         d="m 5056.14,3503.62 c 6.84,-39.55 12.88,-78.45 49.92,-103.12 19.64,-13.08 43.21,-19.25 66.71,-21.35 19.4,-1.73 39.21,-0.79 57.93,4.63 18.44,5.34 35.36,14.86 52.08,24.3 11.95,6.75 24.85,14.6 29.2,27.62 2.12,6.34 1.91,13.22 3.41,19.73 2.49,10.81 9.47,19.93 16.14,28.79 13.26,17.63 26.47,37.11 27.21,59.16 0.3,9.02 -1.55,18.02 -4.43,26.58 -8.81,26.14 -27.06,48.31 -48.4,65.81 -21.33,17.5 -45.77,30.75 -70.2,43.56 -11.26,5.91 -22.77,11.82 -35.29,14.04 -12.2,2.17 -24.74,0.71 -36.98,-1.27 -31.75,-5.16 -63.72,-14.25 -89.49,-33.5 -14.07,-10.51 -26.25,-24.32 -31.88,-40.96 -7.73,-22.83 -2.41,-47.9 4.66,-70.95 4.29,-14 6.9,-28.58 9.41,-43.07"
         style="fill:#131a24;fill-opacity:1;fill-rule:nonzero;stroke:none"
         id="path114" />
      <path
         d="m 5172.99,488.52 v 21.011 h -388.56 c -13.27,0 -25.57,6.969 -32.38,18.367 l -2.34,0.422 v -33.781 c 0,-1.258 0.47,-2.469 1.33,-3.391 l 0.81,-0.859 c 5.49,-5.848 13.16,-9.168 21.18,-9.168 h 392.57 c 4.08,0 7.39,3.309 7.39,7.399"
         style="fill:#292827;fill-opacity:1;fill-rule:nonzero;stroke:none"
         id="path116" />
      <path
         d="m 5185.52,914.41 -24.96,-285.59 -6.49,-111.949 h -378.13 c -8.75,0 -15.84,7.098 -15.84,15.848 v 0 c 0,6.551 4.03,12.433 10.15,14.793 l 173.53,81.297 -15.91,313.812"
         style="fill:#f9aaa1;fill-opacity:1;fill-rule:nonzero;stroke:none"
         id="path118" />
      <path
         d="m 4944.19,647.641 -183.27,-99.692 c -6.76,-2.961 -11.21,-10.328 -11.21,-18.551 v 0 c 0,-10.976 11.3,-19.867 20.97,-19.867 h 402.31 l -12.06,121.891 c 0,0 -142.97,-25.281 -216.74,16.219"
         style="fill:#e64b5f;fill-opacity:1;fill-rule:nonzero;stroke:none"
         id="path120" />
      <path
         d="m 4838.83,590.332 21.2,-35.781"
         style="fill:none;stroke:#292827;stroke-width:10;stroke-linecap:butt;stroke-linejoin:round;stroke-miterlimit:10;stroke-dasharray:none;stroke-opacity:1"
         id="path122" />
      <path
         d="m 4860.03,601.859 22.69,-37.648"
         style="fill:none;stroke:#292827;stroke-width:10;stroke-linecap:butt;stroke-linejoin:round;stroke-miterlimit:10;stroke-dasharray:none;stroke-opacity:1"
         id="path124" />
      <path
         d="m 4882.72,614.109 22.69,-36.859"
         style="fill:none;stroke:#292827;stroke-width:10;stroke-linecap:butt;stroke-linejoin:round;stroke-miterlimit:10;stroke-dasharray:none;stroke-opacity:1"
         id="path126" />
      <path
         d="m 4653.09,3110.78 163.96,-162.09 453.07,-332.35 -81.91,-103.69 c 0,0 -288.19,117 -503.62,251.25 -78.04,48.64 -233.91,216.53 -233.91,216.53"
         style="fill:#f9aaa1;fill-opacity:1;fill-rule:nonzero;stroke:none"
         id="path128" />
      <path
         d="m 5224.57,2636.93 c 26.53,-12.81 76.74,-33.72 103.28,-46.53 15.65,-7.56 42.42,-22.5 41.11,-30.13 -3.38,-19.6 -44.21,12.93 -45.92,3 -1.04,-6.04 33.19,-21.26 50.72,-29.15 15.64,-7.03 35.93,-18.7 34.65,-29.44 -1.64,-13.81 -89.13,26.35 -89.13,26.35 0,0 90.45,-46.09 88.47,-57.59 -2.86,-16.58 -93.94,29.59 -93.94,29.59 0,0 76.51,-40.66 74.4,-52.93 -2.12,-12.27 -57.77,22.77 -82.22,31.67 16.09,-10.47 62.66,-42.02 56.43,-48.48 -5.56,-5.76 -38.91,11.58 -47.39,15.01 -80.88,32.72 -134.9,67.6 -134.9,67.6"
         style="fill:#f9aaa1;fill-opacity:1;fill-rule:nonzero;stroke:none"
         id="path130" />
      <path
         d="m 5222.74,2592.57 c 0,0 33.71,-31.75 68.6,-25.6"
         style="fill:none;stroke:#eb7b7e;stroke-width:7.5;stroke-linecap:butt;stroke-linejoin:round;stroke-miterlimit:10;stroke-dasharray:none;stroke-opacity:1"
         id="path132" />
      <path
         d="m 4780.64,3070.51 c 0,0 -162.37,-201.16 -216.65,-258.63 -43.87,-46.46 -296.23,-99.61 -296.23,-99.61 l -8.6,-127.82 c 67.45,0.35 370.2,4.06 501.3,135.16 107.97,107.97 240.18,274.21 240.18,274.21"
         style="fill:#f9aaa1;fill-opacity:1;fill-rule:nonzero;stroke:none"
         id="path134" />
      <path
         d="m 4333.85,2719.61 c -32.56,-1.08 -77.34,-4.84 -109.91,-5.34 -15.84,-0.25 -48.48,-0.38 -51.83,-6.97 -6.39,-12.62 40.75,-10.65 37.53,-19.73 -1.96,-5.51 -37.1,-3.95 -54.53,-2.02 -15.55,1.72 -34.95,3.86 -39.62,-5.34 -4.05,-7.99 87.12,-19.65 87.12,-19.65 0,0 -97.23,3.89 -100.96,-6.62 -5.37,-15.15 100.03,-18.91 100.03,-18.91 0,0 -91.4,1.28 -95.38,-9.93 -3.98,-11.21 67.82,-12.29 96.09,-15.16 -17.48,-0.91 -81.37,0.15 -84.27,-8.02 -2.9,-8.17 30.1,-14.74 38.43,-15.39 50.33,-3.93 151.09,-1.33 151.09,-1.33"
         style="fill:#f9aaa1;fill-opacity:1;fill-rule:nonzero;stroke:none"
         id="path136" />
      <path
         d="m 4222.41,2614.77 c 0,0 35.82,45.7 81.72,43.47"
         style="fill:none;stroke:#eb7b7e;stroke-width:7.5;stroke-linecap:butt;stroke-linejoin:round;stroke-miterlimit:10;stroke-dasharray:none;stroke-opacity:1"
         id="path138" />
      <path
         d="m 4590.1,2840.89 143.88,172.21"
         style="fill:none;stroke:#eb7b7e;stroke-width:7.5;stroke-linecap:butt;stroke-linejoin:round;stroke-miterlimit:10;stroke-dasharray:none;stroke-opacity:1"
         id="path140" />
      <path
         d="m 4762.49,2719.61 147.96,157.12"
         style="fill:none;stroke:#eb7b7e;stroke-width:7.5;stroke-linecap:butt;stroke-linejoin:round;stroke-miterlimit:10;stroke-dasharray:none;stroke-opacity:1"
         id="path142" />
      <path
         d="m 4895.55,2427.19 c -12.08,-16.44 1.19,-1742.21 1.19,-1742.21 h 300 l 97.92,1299.46 c 0,0 31.55,287.22 -45.66,537.86"
         style="fill:#202d56;fill-opacity:1;fill-rule:nonzero;stroke:none"
         id="path144" />
      <path
         d="m 5592.41,2427.19 c 25.9,-35.25 102.2,-1742.21 102.2,-1742.21 h -300 l -164.29,1299.46 c 0,0 -31.54,287.22 45.67,537.86"
         style="fill:#202d56;fill-opacity:1;fill-rule:nonzero;stroke:none"
         id="path146" />
      <path
         d="m 5270.08,1669.96 c 0,0 -47.34,507.9 -47.34,652.09"
         style="fill:none;stroke:#3859ab;stroke-width:7.5;stroke-linecap:butt;stroke-linejoin:round;stroke-miterlimit:10;stroke-dasharray:none;stroke-opacity:1"
         id="path148" />
      <path
         d="m 5165.4,2322.05 c 0,0 7.98,-196.03 18.34,-243.08 4.56,-20.68 49.99,-16.44 49.99,-16.44"
         style="fill:none;stroke:#3859ab;stroke-width:7.5;stroke-linecap:butt;stroke-linejoin:round;stroke-miterlimit:10;stroke-dasharray:none;stroke-opacity:1"
         id="path150" />
      <path
         d="m 5662.45,684.98 c 0,0 -79.04,1503.48 -127.48,1653.55"
         style="fill:none;stroke:#3859ab;stroke-width:7.5;stroke-linecap:butt;stroke-linejoin:round;stroke-miterlimit:10;stroke-dasharray:none;stroke-opacity:1"
         id="path152" />
      <path
         d="m 5409.39,2296.56 c 0,0 28.69,-76.24 50.73,-98.28 22.04,-22.03 95.75,-15.21 95.75,-15.21"
         style="fill:none;stroke:#3859ab;stroke-width:7.5;stroke-linecap:butt;stroke-linejoin:round;stroke-miterlimit:10;stroke-dasharray:none;stroke-opacity:1"
         id="path154" />
      <path
         d="m 5172.99,684.98 85.43,1114.97"
         style="fill:none;stroke:#3859ab;stroke-width:7.5;stroke-linecap:butt;stroke-linejoin:round;stroke-miterlimit:10;stroke-dasharray:none;stroke-opacity:1"
         id="path156" />
      <path
         d="m 4891.2,2205.39 c 0,0 61.66,-5.54 77.99,8.1 22.33,18.65 61.96,67.54 61.96,67.54"
         style="fill:none;stroke:#3859ab;stroke-width:7.5;stroke-linecap:butt;stroke-linejoin:round;stroke-miterlimit:10;stroke-dasharray:none;stroke-opacity:1"
         id="path158" />
      <path
         d="m 5183.74,3307.17 c 0,0 -94.23,50.45 -242.99,-35.56 -74.62,-43.14 -172.41,-152.98 -242.99,-275.56 28.69,-48.07 208.61,-186.5 276.51,-179.67 53.85,68.77 111.97,277.07 111.97,277.07"
         style="fill:#e64b5f;fill-opacity:1;fill-rule:nonzero;stroke:none"
         id="path160" />
      <path
         d="m 4906.37,3127.45 -36.39,-846.42 776.85,15.53 c -6.46,185.78 -70.1,647.56 -111.86,855.76 -149.66,189.23 -333.66,190.77 -333.66,190.77 l -143.36,-88.33 -151.58,-127.31"
         style="fill:#e64b5f;fill-opacity:1;fill-rule:nonzero;stroke:none"
         id="path162" />
      <path
         d="m 4896.57,2854.83 c 0,0 9.8,179.76 9.8,272.62"
         style="fill:none;stroke:#a7353f;stroke-width:7.5;stroke-linecap:butt;stroke-linejoin:round;stroke-miterlimit:10;stroke-dasharray:none;stroke-opacity:1"
         id="path164" />
      <path
         d="m 5584.96,3257.06 c 0,0 189.1,-126.2 308.91,-82.35 88.1,32.23 267.32,301.67 267.32,301.67 l 139.3,-59.28 c -36.43,-70.9 -211.78,-474.51 -430.34,-489.76 -182.53,-12.73 -394.35,94.01 -394.35,94.01"
         style="fill:#f9aaa1;fill-opacity:1;fill-rule:nonzero;stroke:none"
         id="path166" />
      <path
         d="m 6118.13,3410.65 c 18.54,33.75 46.44,78.92 64.39,112.97 8.73,16.56 26.32,50.89 35.05,50.89 16.72,0 -10.56,-48.63 0.73,-50.09 6.85,-0.89 24,36.98 31.28,56.38 6.5,17.3 14.62,38.9 26.82,38.9 10.58,0 -25.88,-102.32 -25.88,-102.32 0,0 47.88,104.54 60.95,102.85 18.84,-2.43 -33.55,-115.52 -33.55,-115.52 0,0 47.52,97.01 61.46,95.21 13.94,-1.8 -23.31,-78.05 -35.4,-109.37 10.31,17.93 43.34,85.83 53.51,84.52 10.16,-1.32 -0.57,-39.6 -4.33,-48.73 -22.77,-55.14 -79.39,-159.93 -79.39,-159.93"
         style="fill:#f9aaa1;fill-opacity:1;fill-rule:nonzero;stroke:none"
         id="path168" />
      <path
         d="m 6288.18,3472.04 c 0,0 -67.31,-13.32 -89.5,-62.88"
         style="fill:none;stroke:#eb7b7e;stroke-width:7.5;stroke-linecap:butt;stroke-linejoin:round;stroke-miterlimit:10;stroke-dasharray:none;stroke-opacity:1"
         id="path170" />
      <path
         d="m 5244.47,3326.2 c 0,0 169.41,24.85 341.27,-58.74 129.52,-62.99 150.87,-77.68 150.87,-77.68 l -100.06,-245.66 -280.27,122.6"
         style="fill:#e64b5f;fill-opacity:1;fill-rule:nonzero;stroke:none"
         id="path172" />
      <path
         d="m 5095.43,3531.53 c -6.87,6.86 -18.82,6.17 -25.91,-0.15 -7.94,-7.07 -9.38,-21.54 -7.42,-31.43 3.16,-16.02 17.72,-33.26 35.73,-27.9 6.65,1.99 12.21,7.32 14.46,13.89"
         style="fill:#f9aaa1;fill-opacity:1;fill-rule:nonzero;stroke:none"
         id="path174" />
      <path
         d="m 5297.27,3526.65 c 0.68,0.71 1.36,1.42 2.12,2.04 6.25,5.15 16.41,2.85 21.65,-3.33 5.24,-6.18 6.33,-14.96 5.31,-22.99 -1.12,-8.84 -4.7,-17.58 -11.19,-23.69 -6.49,-6.1 -16.11,-9.17 -24.65,-6.63 -6.65,1.99 -12.21,7.32 -14.45,13.89"
         style="fill:#f9aaa1;fill-opacity:1;fill-rule:nonzero;stroke:none"
         id="path176" />
      <path
         d="m 5124.4,3424.82 91.73,124.65 48.38,-113.1 8.12,-118.54 c -31.64,-67.84 -130.81,-52.46 -147.04,-12.65 l -1.19,119.64"
         style="fill:#f9aaa1;fill-opacity:1;fill-rule:nonzero;stroke:none"
         id="path178" />
      <path
         d="m 5096.77,3611.14 c -17.87,-46.01 -11.24,-210.06 24.92,-231.3 36.16,-21.23 115.64,-16.09 141.3,10.19 22.26,22.79 57.28,160.54 25.92,197.11 -31.36,36.57 -167.08,88.5 -192.14,24"
         style="fill:#f9aaa1;fill-opacity:1;fill-rule:nonzero;stroke:none"
         id="path180" />
      <path
         d="m 5281.6,3695.43 c -10.09,21.79 -31.8,37.39 -55.45,41.61 -23.87,4.27 -49.17,-2.57 -68.74,-16.89 -11.6,-8.48 -21.61,-19.6 -34.96,-24.92 -15.35,-6.11 -32.54,-3.6 -49.06,-3.39 -16.52,0.2 -35.09,-3.19 -44.51,-16.77 -6.4,-9.24 -7.09,-21.23 -6.48,-32.45 0.9,-16.68 4.3,-33.6 13.02,-47.84 8.72,-14.24 23.38,-25.49 40,-27.12 21.44,-2.11 40.84,11.26 60.38,20.32 19.05,8.84 39.47,14.32 58.48,23.25 18.26,8.58 35.59,9.04 53.49,-1.77 16.16,-9.76 28.15,-24.95 41.24,-38.56 8.51,-8.85 18.17,-17.45 30.11,-20.35 11.93,-2.9 26.54,1.84 31.03,13.27 3.03,7.7 0.97,16.36 -1.12,24.36 -2.97,11.37 -5.94,22.74 -8.91,34.11 -2.84,10.92 -5.77,22.02 -11.78,31.57 -4.84,7.7 -11.33,13.32 -18.85,18.28 -6.55,4.32 -15.9,5.79 -21.33,11.39 -3.01,3.1 -4.5,7.34 -6.28,11.29 -0.09,0.2 -0.18,0.41 -0.28,0.61"
         style="fill:#131a24;fill-opacity:1;fill-rule:nonzero;stroke:none"
         id="path182" />
      <path
         d="m 5144.9,3368.26 c 0,0 73.78,-10.63 107.24,15.2"
         style="fill:none;stroke:#eb7b7e;stroke-width:7.5;stroke-linecap:butt;stroke-linejoin:round;stroke-miterlimit:10;stroke-dasharray:none;stroke-opacity:1"
         id="path184" />
      <path
         d="m 5178.99,3520.93 c 0,0 -19.77,-47.97 -12.03,-59.76 7.74,-11.8 28.38,-4.8 28.38,-4.8"
         style="fill:none;stroke:#eb7b7e;stroke-width:7.5;stroke-linecap:butt;stroke-linejoin:round;stroke-miterlimit:10;stroke-dasharray:none;stroke-opacity:1"
         id="path186" />
      <path
         d="m 5222.4,3521.41 c -1.31,-2.92 -1.4,-7.02 -1.79,-9.46 -0.67,-4.34 3.83,-7.11 7.92,-6.17 7.61,1.75 7.78,19.36 -1.47,19.08 -2.39,-0.07 -3.79,-1.5 -4.66,-3.45"
         style="fill:#37151c;fill-opacity:1;fill-rule:nonzero;stroke:none"
         id="path188" />
      <path
         d="m 5118.42,3525.77 c -1.3,-2.92 -1.4,-7.02 -1.78,-9.46 -0.68,-4.34 3.83,-7.11 7.92,-6.17 7.61,1.75 7.78,19.36 -1.47,19.08 -2.39,-0.07 -3.8,-1.5 -4.67,-3.45"
         style="fill:#37151c;fill-opacity:1;fill-rule:nonzero;stroke:none"
         id="path190" />
      <path
         d="m 5147.25,3435.08 65.21,1.66 c 0,0 6.28,-38.13 -32.82,-37.2 -35.41,0.84 -32.39,35.54 -32.39,35.54"
         style="fill:#ffffff;fill-opacity:1;fill-rule:nonzero;stroke:none"
         id="path192" />
      <path
         d="m 5214.25,3545.09 c 12.13,-1.2 24.96,-5.15 35.29,-10.7 1.28,0.54 4.93,6.05 3.4,9.61 -1.2,2.81 -19.68,11.1 -36.96,12.21 0,0 -3.99,-9.36 -1.73,-11.12"
         style="fill:#37151c;fill-opacity:1;fill-rule:nonzero;stroke:none"
         id="path194" />
      <path
         d="m 5135.89,3547.67 c -8.76,0.66 -17.9,-1.21 -25.14,-5.01 -0.96,0.71 -2.68,5.68 -1.74,8.88 0.74,2.53 13.78,7.73 26.29,6.21 0,0 2.15,-8.73 0.59,-10.08"
         style="fill:#37151c;fill-opacity:1;fill-rule:nonzero;stroke:none"
         id="path196" />
      <path
         d="m 5567.13,2969.62 -157.74,73.87"
         style="fill:none;stroke:#a7353f;stroke-width:7.5;stroke-linecap:butt;stroke-linejoin:round;stroke-miterlimit:10;stroke-dasharray:none;stroke-opacity:1"
         id="path198" />
      <path
         d="m 3650.8,3135.23 c 0,0 112.31,-111.42 155.54,-106.8 71.78,7.67 475.23,252.5 475.23,252.5 l 45.32,-165.48 c 0,0 -302.28,-327.32 -482.19,-347.77 -155.45,-17.67 -365.04,168.63 -365.04,168.63"
         style="fill:#ca583d;fill-opacity:1;fill-rule:nonzero;stroke:none"
         id="path200" />
      <path
         d="m 4359.13,3624.46 c 17.12,-7.38 28.36,-24.73 32.84,-42.83 4.48,-18.1 3.17,-37.08 1.38,-55.64 -0.52,-5.35 -1.07,-10.78 -0.11,-16.07 4.47,-24.66 37.52,-33.99 46.39,-57.42 2.56,-6.75 2.84,-14.11 3.1,-21.33 0.47,-13.38 1.42,-40.14 1.42,-40.14 0,0 -117.95,-9.49 -187.65,-7.6"
         style="fill:#5c1322;fill-opacity:1;fill-rule:nonzero;stroke:none"
         id="path202" />
      <path
         d="m 3847.98,481.121 h 291.87 l -1.87,35.75 H 3846.1 l 1.88,-35.75"
         style="fill:#292827;fill-opacity:1;fill-rule:nonzero;stroke:none"
         id="path204" />
      <path
         d="m 3878.27,872.969 -7.03,-245.149 13.85,-110.949 190.57,121.07 22.64,263.239"
         style="fill:#f9aaa1;fill-opacity:1;fill-rule:nonzero;stroke:none"
         id="path206" />
      <path
         d="m 4075.66,637.941 c 0,0 39.24,-70.359 51.99,-89.992 12.76,-19.629 10.71,-38.418 10.71,-38.418 0,0 -276.26,0 -291.75,0 -5.1,29.739 24.1,128.41 24.1,128.41 0,0 150.32,-10.371 204.95,0"
         style="fill:#4c5cb3;fill-opacity:1;fill-rule:nonzero;stroke:none"
         id="path208" />
      <path
         d="m 4013.96,614.109 h -69.49"
         style="fill:none;stroke:#292827;stroke-width:10;stroke-linecap:butt;stroke-linejoin:round;stroke-miterlimit:10;stroke-dasharray:none;stroke-opacity:1"
         id="path210" />
      <path
         d="m 4016.87,590.531 h -74.34"
         style="fill:none;stroke:#292827;stroke-width:10;stroke-linecap:butt;stroke-linejoin:round;stroke-miterlimit:10;stroke-dasharray:none;stroke-opacity:1"
         id="path212" />
      <path
         d="m 4019.52,566.941 h -79.56"
         style="fill:none;stroke:#292827;stroke-width:10;stroke-linecap:butt;stroke-linejoin:round;stroke-miterlimit:10;stroke-dasharray:none;stroke-opacity:1"
         id="path214" />
      <path
         d="m 4287.16,488.52 -1.1,21.011 h 388.56 c 13.28,0 25.21,6.969 31.42,18.367 l 2.32,0.422 1.77,-33.781 c 0.07,-1.258 -0.35,-2.469 -1.16,-3.391 l -0.76,-0.859 c -5.18,-5.848 -12.68,-9.168 -20.7,-9.168 h -392.57 c -4.08,0 -7.57,3.309 -7.78,7.399"
         style="fill:#292827;fill-opacity:1;fill-rule:nonzero;stroke:none"
         id="path216" />
      <path
         d="m 4300.05,872.969 0.82,-243.258 3.73,-112.84 h 378.12 c 8.76,0 15.48,7.098 15.02,15.848 v 0 c -0.34,6.551 -4.69,12.433 -10.93,14.793 l -177.79,81.297 40.28,272.371"
         style="fill:#f9aaa1;fill-opacity:1;fill-rule:nonzero;stroke:none"
         id="path218" />
      <path
         d="m 4510.91,644.52 185.21,-96.571 c 6.91,-2.961 11.76,-10.328 12.19,-18.551 v 0 c 0.57,-10.976 -10.26,-19.867 -19.93,-19.867 h -402.32 l 12.24,122.778 c 0,0 141.02,-29.289 212.61,12.211"
         style="fill:#4c5cb3;fill-opacity:1;fill-rule:nonzero;stroke:none"
         id="path220" />
      <path
         d="M 4614.46,590.531 4590.49,545.23"
         style="fill:none;stroke:#292827;stroke-width:10;stroke-linecap:butt;stroke-linejoin:round;stroke-miterlimit:10;stroke-dasharray:none;stroke-opacity:1"
         id="path222" />
      <path
         d="m 4584.1,606.301 -23.96,-45.289"
         style="fill:none;stroke:#292827;stroke-width:10;stroke-linecap:butt;stroke-linejoin:round;stroke-miterlimit:10;stroke-dasharray:none;stroke-opacity:1"
         id="path224" />
      <path
         d="m 4553.74,622.07 -23.96,-45.289"
         style="fill:none;stroke:#292827;stroke-width:10;stroke-linecap:butt;stroke-linejoin:round;stroke-miterlimit:10;stroke-dasharray:none;stroke-opacity:1"
         id="path226" />
      <path
         d="m 4266.52,3334.71 c 0,0 178.82,-23.18 257.57,-85.69 79.24,-62.9 197.14,-189.82 197.14,-189.82 L 4559,2854.83 4412.49,3013.12"
         style="fill:#4c5cb3;fill-opacity:1;fill-rule:nonzero;stroke:none"
         id="path228" />
      <path
         d="m 4428.57,2702.47 74.59,-68.53 c 14.83,-48.41 123.63,-164.81 147.67,-533.1 26.59,-407.35 -24.99,-1260.731 -24.99,-1260.731 h -350.07 l -18.48,1449.051 -13.78,527.22"
         style="fill:#2c45a1;fill-opacity:1;fill-rule:nonzero;stroke:none"
         id="path230" />
      <path
         d="m 4010.64,2664.1 c -25.05,-67.31 -117.02,-209.27 -156.67,-403.99 -61.41,-301.53 -8.2,-1420.001 -8.2,-1420.001 h 297.02 L 4316.3,2295.29 c 0,0 15.7,128.98 8.19,343.96"
         style="fill:#2c45a1;fill-opacity:1;fill-rule:nonzero;stroke:none"
         id="path232" />
      <path
         d="m 4270.7,1828.24 c 7.12,144.37 47.39,612.12 53.79,811.01"
         style="fill:none;stroke:#4c5cb3;stroke-width:7.5;stroke-linecap:butt;stroke-linejoin:round;stroke-miterlimit:10;stroke-dasharray:none;stroke-opacity:1"
         id="path234" />
      <path
         d="m 4101.93,2664.1 c 0,0 -129.54,-157.1 -166.56,-384.97 -31.14,-191.73 -23.4,-1439.021 -23.4,-1439.021"
         style="fill:none;stroke:#4c5cb3;stroke-width:7.5;stroke-linecap:butt;stroke-linejoin:round;stroke-miterlimit:10;stroke-dasharray:none;stroke-opacity:1"
         id="path236" />
      <path
         d="m 4213.91,2639.25 c 0,0 -30.85,-115.09 -206.06,-130.71"
         style="fill:none;stroke:#4c5cb3;stroke-width:7.5;stroke-linecap:butt;stroke-linejoin:round;stroke-miterlimit:10;stroke-dasharray:none;stroke-opacity:1"
         id="path238" />
      <path
         d="m 4559.96,2519.67 c 0,0 -125.69,67.76 -150.66,119.58"
         style="fill:none;stroke:#4c5cb3;stroke-width:7.5;stroke-linecap:butt;stroke-linejoin:round;stroke-miterlimit:10;stroke-dasharray:none;stroke-opacity:1"
         id="path240" />
      <path
         d="m 4375.17,2621.46 c 0,0 -5.86,-183.66 -21.1,-199.45 -15.24,-15.8 -47.58,-19.63 -47.58,-19.63"
         style="fill:none;stroke:#4c5cb3;stroke-width:7.5;stroke-linecap:butt;stroke-linejoin:round;stroke-miterlimit:10;stroke-dasharray:none;stroke-opacity:1"
         id="path242" />
      <path
         d="m 4338.33,841.699 c 0,0 -30.62,1086.931 -46.6,1295.771"
         style="fill:none;stroke:#4c5cb3;stroke-width:7.5;stroke-linecap:butt;stroke-linejoin:round;stroke-miterlimit:10;stroke-dasharray:none;stroke-opacity:1"
         id="path244" />
      <path
         d="m 3937.03,3168.55 c 34,53.36 216.74,160.67 216.74,160.67 61.7,7.74 132.6,3.46 132.6,3.46 0,0 103.3,-83.69 174.27,-180.36 58.27,-56.31 81.81,-99.36 82.69,-157.57 0.6,-39.78 -17.86,-73.71 -27.34,-134.17 -10.26,-65.49 -12.83,-226.64 -12.83,-226.64 -111.5,-41.05 -337.85,-36.62 -503.13,5.31 -21.12,152.34 -97,475.95 -63,529.3"
         style="fill:#4c5cb3;fill-opacity:1;fill-rule:nonzero;stroke:none"
         id="path246" />
      <path
         d="m 4460.64,3152.32 c 58.27,-56.31 81.81,-99.36 82.69,-157.57 0.6,-39.78 -12.27,-60.78 -20.51,-99.64"
         style="fill:none;stroke:#2d3081;stroke-width:7.5;stroke-linecap:butt;stroke-linejoin:round;stroke-miterlimit:10;stroke-dasharray:none;stroke-opacity:1"
         id="path248" />
      <path
         d="m 4278.07,3003.89 -25.6,283.09 z"
         style="fill:none;stroke:#2d3081;stroke-width:7.5;stroke-linecap:butt;stroke-linejoin:round;stroke-miterlimit:10;stroke-dasharray:none;stroke-opacity:1"
         id="path250" />
      <path
         d="m 4230.08,3203.62 c 0.1,-2.95 2.57,-5.34 5.52,-5.34 2.95,0 5.25,2.39 5.15,5.34 -0.1,2.95 -2.58,5.34 -5.52,5.34 -2.95,0 -5.26,-2.39 -5.15,-5.34"
         style="fill:#2d3081;fill-opacity:1;fill-rule:nonzero;stroke:none"
         id="path252" />
      <path
         d="m 4238.65,3111.03 c 0.1,-2.95 2.57,-5.34 5.52,-5.34 2.95,0 5.25,2.39 5.15,5.34 -0.1,2.95 -2.58,5.34 -5.52,5.34 -2.95,0 -5.26,-2.39 -5.15,-5.34"
         style="fill:#2d3081;fill-opacity:1;fill-rule:nonzero;stroke:none"
         id="path254" />
      <path
         d="m 4247.22,3018.44 c 0.1,-2.95 2.57,-5.34 5.52,-5.34 2.95,0 5.25,2.39 5.15,5.34 -0.1,2.94 -2.58,5.33 -5.52,5.33 -2.95,0 -5.26,-2.39 -5.15,-5.33"
         style="fill:#2d3081;fill-opacity:1;fill-rule:nonzero;stroke:none"
         id="path256" />
      <path
         d="m 3838.75,3126.49 c 0,0 -211.36,-185.42 -254.27,-217.69 -41.77,-31.41 -405.14,-214.39 -405.14,-214.39 l 31.77,-105.21 c 0,0 409.18,95.02 533.46,168.21 100.73,59.31 293.52,229.09 293.52,229.09"
         style="fill:#f9aaa1;fill-opacity:1;fill-rule:nonzero;stroke:none"
         id="path258" />
      <path
         d="m 4147.97,3326.95 c 0,0 -94.42,-12.65 -197.94,-74.34 -74.99,-44.69 -205.46,-197.1 -205.46,-197.1 l 192.43,-192.18 195.2,174.3"
         style="fill:#4c5cb3;fill-opacity:1;fill-rule:nonzero;stroke:none"
         id="path260" />
      <path
         d="m 3964.36,2887.76 117.09,104.56"
         style="fill:none;stroke:#2d3081;stroke-width:7.5;stroke-linecap:butt;stroke-linejoin:round;stroke-miterlimit:10;stroke-dasharray:none;stroke-opacity:1"
         id="path262" />
      <path
         d="m 3234.54,2722.67 c -27.57,-8.28 -79.41,-20.64 -106.99,-28.92 -16.26,-4.89 -44.26,-15.24 -43.71,-23.03 1.43,-20 45.11,5.45 45.84,-4.69 0.44,-6.15 -35,-15.54 -53.16,-20.44 -16.2,-4.37 -37.46,-12.56 -37.25,-23.43 0.28,-13.97 90.98,11.27 90.98,11.27 0,0 -94.21,-30.62 -93.37,-42.36 1.21,-16.91 96.06,13.68 96.06,13.68 0,0 -79.85,-27.57 -78.96,-40.09 0.9,-12.52 59.01,9.21 84.14,13.95 -16.99,-7.7 -63.01,-22.91 -62.36,-32.03 0.66,-9.13 36.46,-3.24 44.87,-0.1 83.14,31.06 145.13,62.04 145.13,62.04"
         style="fill:#f9aaa1;fill-opacity:1;fill-rule:nonzero;stroke:none"
         id="path264" />
      <path
         d="m 3232.02,2678.36 c 0,0 -36.54,-25.86 -70.54,-13.94"
         style="fill:none;stroke:#eb7b7e;stroke-width:7.5;stroke-linecap:butt;stroke-linejoin:round;stroke-miterlimit:10;stroke-dasharray:none;stroke-opacity:1"
         id="path266" />
      <path
         d="m 4277.03,3425 10.17,-98.73 c 0,0 19.41,-38.88 -54.64,-41.04 -57.2,-1.67 -78.79,43.99 -78.79,43.99 l 27,152.67"
         style="fill:#f9aaa1;fill-opacity:1;fill-rule:nonzero;stroke:none"
         id="path268" />
      <path
         d="m 4357.56,3643.69 c 20.09,-63.41 44.57,-193.98 -27.74,-232.26 -16.64,-8.81 -42,-6.45 -67.87,4.97 -56.07,24.77 -92.08,69.98 -102.04,109.53 -12.5,49.67 116.81,226.58 197.65,117.76"
         style="fill:#f9aaa1;fill-opacity:1;fill-rule:nonzero;stroke:none"
         id="path270" />
      <path
         d="m 4071.16,3621.08 c -9.53,-6.97 -21.6,-11.49 -29.57,-20.43 -16.47,-18.49 -19.77,-48.12 -8.23,-69.96 4.21,-7.95 10.37,-15.65 10,-24.64 -0.48,-11.61 -10.73,-20.3 -20.04,-27.27 -41.37,-30.94 -23.9,-93 -23.9,-93 0,0 118.07,-5.37 188.26,-0.42 0.74,39.64 -9.04,84 2.35,121.97 11.39,37.97 32.91,74.09 65.71,96.35 15.76,10.7 35.58,20.33 39.62,38.94 30.13,-13.24 58.01,-31.57 82.11,-53.98 13.19,24.51 13.84,55.87 -0.16,79.94 -7.63,13.12 -29.95,33.58 -51.11,37.02 -42.99,42.99 -135.35,39.55 -188.94,3.9 -40.82,-27.15 -39.96,-69.33 -66.1,-88.42"
         style="fill:#5c1322;fill-opacity:1;fill-rule:nonzero;stroke:none"
         id="path272" />
      <path
         d="m 4318.21,3545.47 c 0,0 26.12,-41.41 21.02,-50.46 -5.09,-9.04 -26.71,-4.42 -26.71,-4.42"
         style="fill:none;stroke:#eb7b7e;stroke-width:7.5;stroke-linecap:butt;stroke-linejoin:round;stroke-miterlimit:10;stroke-dasharray:none;stroke-opacity:1"
         id="path274" />
      <path
         d="m 4262.1,3545.22 c -0.36,-0.57 -0.69,-1.18 -0.97,-1.77 -2.08,-4.39 -1.48,-8.59 -1.43,-13.35 0.09,-7.56 12.73,-6.93 11.86,0.84 -0.53,4.77 -1.29,9.89 -3.3,14.33 -1.98,4.39 -4.46,2.59 -6.16,-0.05"
         style="fill:#131a24;fill-opacity:1;fill-rule:nonzero;stroke:none"
         id="path276" />
      <path
         d="m 4348.42,3555.28 c -0.24,-0.63 -0.45,-1.3 -0.61,-1.93 -1.17,-4.74 0.22,-8.78 1.19,-13.47 1.55,-7.45 13.74,-4.38 11.4,3.12 -1.45,4.61 -3.17,9.52 -5.99,13.52 -2.78,3.95 -4.84,1.71 -5.99,-1.24"
         style="fill:#131a24;fill-opacity:1;fill-rule:nonzero;stroke:none"
         id="path278" />
      <path
         d="m 4223.3,3550.77 c 0,0 -0.38,3.58 1.44,8.94 1.77,5.14 6.26,11.25 12.48,15.24 6.24,3.95 14.08,5.47 19.82,4.19 2.88,-0.5 5.06,-1.87 6.44,-2.69 1.35,-1.05 1.95,-1.75 1.95,-1.75 0,0 -1,-0.12 -2.44,-0.18 -1.47,-0.06 -3.46,-0.65 -5.62,-1.28 -4.35,-1.37 -9.52,-3.9 -14.44,-7.03 -4.92,-3.11 -9.62,-6.76 -13.26,-9.88 -1.66,-1.56 -3.51,-2.78 -4.49,-3.96 -1.12,-1.06 -1.88,-1.6 -1.88,-1.6"
         style="fill:#131a24;fill-opacity:1;fill-rule:nonzero;stroke:none"
         id="path280" />
      <path
         d="m 4329.37,3576.56 c 0,0 0.21,0.71 0.73,1.76 0.48,0.88 1.7,2.7 3.44,3.85 3.47,2.71 9.68,3.78 15.25,2.3 5.6,-1.46 10.33,-5.22 12.57,-8.88 2.29,-3.72 2.36,-6.67 2.36,-6.67 0,0 -0.76,0.22 -1.83,0.68 -0.98,0.52 -2.63,0.93 -4.25,1.53 -3.31,1.17 -7.26,2.44 -11.13,3.4 -3.84,1.04 -7.64,1.84 -10.92,2.06 -3.15,0.46 -6.24,-0.17 -6.22,-0.03"
         style="fill:#131a24;fill-opacity:1;fill-rule:nonzero;stroke:none"
         id="path282" />
      <path
         d="m 4209.96,3447.84 c 0,0 17.9,-28.06 69.02,-41.76"
         style="fill:none;stroke:#eb7b7e;stroke-width:7.5;stroke-linecap:butt;stroke-linejoin:round;stroke-miterlimit:10;stroke-dasharray:none;stroke-opacity:1"
         id="path284" />
      <path
         d="m 4206.1,3516.19 c -5.9,24.5 -30.84,20.69 -37.46,15.78 -4.78,-3.54 -6.63,-9.85 -7.16,-15.85 -1.3,-15.05 4.31,-30.8 14.96,-41.97 3.81,-3.99 8.35,-7.47 13.58,-9.06 14.73,-4.44 24.09,6.57 24.05,19.24"
         style="fill:#f9aaa1;fill-opacity:1;fill-rule:nonzero;stroke:none"
         id="path286" />
      <path
         d="m 4341.7,3472.18 h -71 c 0,0 6.98,-37.21 41.27,-37.21 30.47,0 29.73,37.21 29.73,37.21"
         style="fill:#ffffff;fill-opacity:1;fill-rule:nonzero;stroke:none"
         id="path288" />
      <path
         d="m 4157.97,3352.94 94.5,-65.96 -34.57,-63.63 -81.54,99.43 21.61,30.16"
         style="fill:#ffffff;fill-opacity:1;fill-rule:nonzero;stroke:none"
         id="path290" />
      <path
         d="m 4285.3,3350.17 -32.83,-63.19 29.63,-57.33 29.08,99.8 -25.88,20.72"
         style="fill:#ffffff;fill-opacity:1;fill-rule:nonzero;stroke:none"
         id="path292" />
      <path
         d="M 4139.85,793.379 H 3835.9 v 77.082 h 314.96 l -11.01,-77.082"
         style="fill:#c0e5f7;fill-opacity:1;fill-rule:nonzero;stroke:none"
         id="path294" />
      <path
         d="m 4627.84,793.379 h -358.7 v 77.082 h 361.94 l -3.24,-77.082"
         style="fill:#c0e5f7;fill-opacity:1;fill-rule:nonzero;stroke:none"
         id="path296" />
      <path
         d="m 4373.3,3313.83 c 13.22,-24.52 74.27,-63.38 83.35,-61.12 9.09,2.26 -11.49,28.08 -13.26,34.06 20.38,-5.48 37.61,-13.43 50.01,-21.09 15.53,-9.61 32.68,-20.33 47.74,-30.66 -7.39,18.55 -28.72,47.04 -37.7,53.94 -34.97,26.88 -86.59,39.25 -130.14,24.87"
         style="fill:#ca583d;fill-opacity:1;fill-rule:nonzero;stroke:none"
         id="path298" />
      <path
         d="m 3241.71,3362.81 c 0,0 157.05,41.36 293.82,-71.12 113.58,-93.41 193.83,-210.35 193.83,-210.35 l -206.94,-175.74 -218.94,182.12"
         style="fill:#e2d4cf;fill-opacity:1;fill-rule:nonzero;stroke:none"
         id="path300" />
      <path
         d="m 3132.01,488.52 v 21.011 h -388.56 c -13.28,0 -25.58,6.969 -32.39,18.367 l -2.34,0.422 v -33.781 c 0,-1.258 0.48,-2.469 1.34,-3.391 l 0.81,-0.859 c 5.49,-5.848 13.15,-9.168 21.18,-9.168 h 392.56 c 4.09,0 7.4,3.309 7.4,7.399"
         style="fill:#292827;fill-opacity:1;fill-rule:nonzero;stroke:none"
         id="path302" />
      <path
         d="m 3140.41,914.41 -29.51,-284.699 2.19,-112.84 h -378.13 c -8.75,0 -15.85,7.098 -15.85,15.848 v 0 c 0,6.551 4.04,12.433 10.16,14.793 l 173.52,81.297 -13.1,313.812"
         style="fill:#ca583d;fill-opacity:1;fill-rule:nonzero;stroke:none"
         id="path304" />
      <path
         d="m 2900.08,644.52 -180.14,-96.571 c -6.76,-2.961 -11.22,-10.328 -11.22,-18.551 v 0 c 0,-10.976 11.3,-19.867 20.97,-19.867 h 402.32 l -18.68,122.778 c 0,0 -139.48,-29.289 -213.25,12.211"
         style="fill:#3a3954;fill-opacity:1;fill-rule:nonzero;stroke:none"
         id="path306" />
      <path
         d="m 2796.35,588.91 22.69,-34.359"
         style="fill:none;stroke:#292827;stroke-width:10;stroke-linecap:butt;stroke-linejoin:round;stroke-miterlimit:10;stroke-dasharray:none;stroke-opacity:1"
         id="path308" />
      <path
         d="m 2819.04,601.07 22.69,-36.859"
         style="fill:none;stroke:#292827;stroke-width:10;stroke-linecap:butt;stroke-linejoin:round;stroke-miterlimit:10;stroke-dasharray:none;stroke-opacity:1"
         id="path310" />
      <path
         d="m 2841.73,614.109 22.69,-36.859"
         style="fill:none;stroke:#292827;stroke-width:10;stroke-linecap:butt;stroke-linejoin:round;stroke-miterlimit:10;stroke-dasharray:none;stroke-opacity:1"
         id="path312" />
      <path
         d="m 3434.99,488.52 v 21.011 h 388.56 c 13.28,0 25.58,6.969 32.39,18.367 l 2.34,0.422 v -33.781 c 0,-1.258 -0.48,-2.469 -1.34,-3.391 l -0.8,-0.859 c -5.5,-5.848 -13.16,-9.168 -21.19,-9.168 h -392.56 c -4.09,0 -7.4,3.309 -7.4,7.399"
         style="fill:#292827;fill-opacity:1;fill-rule:nonzero;stroke:none"
         id="path314" />
      <path
         d="m 3395.91,914.41 39.74,-284.699 18.27,-112.84 h 378.12 c 8.75,0 15.85,7.098 15.85,15.848 v 0 c 0,6.551 -4.04,12.433 -10.16,14.793 l -193.97,81.297 2.88,313.812"
         style="fill:#ca583d;fill-opacity:1;fill-rule:nonzero;stroke:none"
         id="path316" />
      <path
         d="m 3646.47,644.52 200.59,-96.571 c 6.76,-2.961 11.22,-10.328 11.22,-18.551 v 0 c 0,-10.976 -11.3,-19.867 -20.97,-19.867 h -402.32 l -1.77,122.778 c 0,0 139.48,-29.289 213.25,12.211"
         style="fill:#3a3954;fill-opacity:1;fill-rule:nonzero;stroke:none"
         id="path318" />
      <path
         d="m 3757.02,591.289 -25.07,-36.738"
         style="fill:none;stroke:#292827;stroke-width:10;stroke-linecap:butt;stroke-linejoin:round;stroke-miterlimit:10;stroke-dasharray:none;stroke-opacity:1"
         id="path320" />
      <path
         d="m 3733.5,602.621 -24.24,-38.41"
         style="fill:none;stroke:#292827;stroke-width:10;stroke-linecap:butt;stroke-linejoin:round;stroke-miterlimit:10;stroke-dasharray:none;stroke-opacity:1"
         id="path322" />
      <path
         d="M 3709.26,614.109 3686.57,577.25"
         style="fill:none;stroke:#292827;stroke-width:10;stroke-linecap:butt;stroke-linejoin:round;stroke-miterlimit:10;stroke-dasharray:none;stroke-opacity:1"
         id="path324" />
      <path
         d="m 3144.33,2532.77 c 0,0 -1.17,-220.97 27.38,-420.81 28.55,-199.84 159.5,-1443.562 159.5,-1443.562 h 357.22 c 0,0 -29.37,946.612 -69.53,1428.932 -8.68,104.24 -33.22,313.99 -123.36,441.71"
         style="fill:#3a3954;fill-opacity:1;fill-rule:nonzero;stroke:none"
         id="path326" />
      <path
         d="m 3637.3,668.398 c 0,0 -29.37,946.612 -69.53,1428.932 -8.68,104.24 -33.22,313.99 -123.36,441.71"
         style="fill:none;stroke:#191716;stroke-width:7.5;stroke-linecap:butt;stroke-linejoin:round;stroke-miterlimit:10;stroke-dasharray:none;stroke-opacity:1"
         id="path328" />
      <path
         d="M 2843.15,2480.21 C 2806.94,2019 2865.09,668.398 2865.09,668.398 h 332.85 l 84.98,1389.342 c 0,0 75.23,308.46 2.28,459.38"
         style="fill:#3a3954;fill-opacity:1;fill-rule:nonzero;stroke:none"
         id="path330" />
      <path
         d="m 3247.08,1471.76 c 0,0 -61.08,706.65 -87.02,989.94"
         style="fill:none;stroke:#191716;stroke-width:7.5;stroke-linecap:butt;stroke-linejoin:round;stroke-miterlimit:10;stroke-dasharray:none;stroke-opacity:1"
         id="path332" />
      <path
         d="M 3147.52,668.398 3225.3,1722.75"
         style="fill:none;stroke:#191716;stroke-width:7.5;stroke-linecap:butt;stroke-linejoin:round;stroke-miterlimit:10;stroke-dasharray:none;stroke-opacity:1"
         id="path334" />
      <path
         d="m 3380.45,2352.49 c 0,0 -3.45,-83.37 167.15,-110.44"
         style="fill:none;stroke:#191716;stroke-width:7.5;stroke-linecap:butt;stroke-linejoin:round;stroke-miterlimit:10;stroke-dasharray:none;stroke-opacity:1"
         id="path336" />
      <path
         d="m 2833.19,2242.05 c 0,0 156.45,2.53 174.35,110.44"
         style="fill:none;stroke:#191716;stroke-width:7.5;stroke-linecap:butt;stroke-linejoin:round;stroke-miterlimit:10;stroke-dasharray:none;stroke-opacity:1"
         id="path338" />
      <path
         d="m 2862.97,722.77 h 337.02"
         style="fill:none;stroke:#191716;stroke-width:7.5;stroke-linecap:butt;stroke-linejoin:round;stroke-miterlimit:10;stroke-dasharray:none;stroke-opacity:1"
         id="path340" />
      <path
         d="m 3324.04,722.77 h 360.57"
         style="fill:none;stroke:#191716;stroke-width:7.5;stroke-linecap:butt;stroke-linejoin:round;stroke-miterlimit:10;stroke-dasharray:none;stroke-opacity:1"
         id="path342" />
      <path
         d="m 2731.08,3148.25 c 0,0 -112.32,-111.43 -155.55,-106.81 -71.78,7.67 -475.22,303.63 -475.22,303.63 l -76,-73.46 c 0,0 332.96,-450.02 512.86,-470.47 155.46,-17.67 365.05,168.63 365.05,168.63"
         style="fill:#ca583d;fill-opacity:1;fill-rule:nonzero;stroke:none"
         id="path344" />
      <path
         d="m 3140.17,3362.81 c 0,0 -148.38,29.9 -293.83,-71.12 -126.99,-88.21 -199.87,-176.78 -199.87,-176.78 l 196.74,-222.82 235.18,195.63"
         style="fill:#e2d4cf;fill-opacity:1;fill-rule:nonzero;stroke:none"
         id="path346" />
      <path
         d="m 2654.56,3132.32 c 0,0 157.77,-170.08 233.19,-193.79 60.96,-19.17 307.2,57.48 307.2,57.48 l 69.83,-107.41 c -59.06,-32.58 -351.64,-203.24 -512.33,-110.75 -134.2,77.25 -256.25,189.01 -256.25,189.01"
         style="fill:#f9aaa1;fill-opacity:1;fill-rule:nonzero;stroke:none"
         id="path348" />
      <path
         d="m 3133.67,2970.19 c 28.95,14.94 69.88,33.49 98.56,48.92 13.95,7.51 42.52,23.31 48.65,19.19 11.74,-7.89 -30.38,-29.16 -23.14,-35.52 4.39,-3.86 34.31,14.64 48.59,24.82 12.73,9.08 28.63,20.41 37.2,14.65 7.43,-4.99 -66.49,-59.63 -66.49,-59.63 0,0 82.99,50.81 91.37,43.45 12.08,-10.6 -78.11,-65.28 -78.11,-65.28 0,0 79.17,45.69 88.12,37.84 8.94,-7.85 -53.22,-43.81 -76.5,-60.1 15.7,7.73 70.96,39.82 77.48,34.09 6.51,-5.72 -19.1,-27.54 -26.05,-32.17 -42.02,-27.97 -131.26,-74.83 -131.26,-74.83"
         style="fill:#f9aaa1;fill-opacity:1;fill-rule:nonzero;stroke:none"
         id="path350" />
      <path
         d="m 3282.08,2932.99 c 0,0 -53.56,22.44 -92.54,-1.89"
         style="fill:none;stroke:#eb7b7e;stroke-width:7.5;stroke-linecap:butt;stroke-linejoin:round;stroke-miterlimit:10;stroke-dasharray:none;stroke-opacity:1"
         id="path352" />
      <path
         d="m 3138.23,3358.2 c 0,0 -206.4,-16.23 -274.57,-380.83 -28.85,-154.33 -37.49,-625.45 -37.49,-625.45 0,0 392.49,-25.59 767.16,0.57 0,158 -44.01,553.7 -88.44,749.33 -30.13,132.69 -155.01,200.11 -257.34,261.55"
         style="fill:#e2d4cf;fill-opacity:1;fill-rule:nonzero;stroke:none"
         id="path354" />
      <path
         d="m 3101.2,3663.13 c -18.16,-26.02 -28.43,-57.47 -29.12,-89.19 -0.52,-23.92 6.14,-50.65 26.54,-63.14 7.88,-4.81 18.52,-6.84 26.12,-1.59 6.08,4.2 8.63,11.82 10.53,18.96 5.26,19.78 8.5,40.09 9.64,60.53 0.72,12.69 0.6,25.59 -2.73,37.86 -3.32,12.26 -10.14,23.94 -20.65,31.09"
         style="fill:#131a24;fill-opacity:1;fill-rule:nonzero;stroke:none"
         id="path356" />
      <path
         d="m 3125.39,3447.18 -1.78,-88.98 c 0,0 7.37,-32.07 67.94,-33.73 76.88,-2.09 92.14,38.9 92.14,38.9 l -14.49,165.13"
         style="fill:#ca583d;fill-opacity:1;fill-rule:nonzero;stroke:none"
         id="path358" />
      <path
         d="m 3116.39,3544.59 c -0.95,4.63 -7.02,6.33 -11.57,5.04 -6.48,-1.82 -11.29,-7.6 -13.45,-13.98 -2.16,-6.37 -2.02,-13.29 -1.27,-19.98 0.69,-6.21 1.97,-12.59 5.59,-17.69 6.45,-9.07 20.31,-11.78 29.7,-5.8"
         style="fill:#a04231;fill-opacity:1;fill-rule:nonzero;stroke:none"
         id="path360" />
      <path
         d="m 3109.78,3633.09 c 0,0 -17.87,-152.45 7.56,-179.61 38.08,-40.7 103,-29.8 131.88,-4.48 24.22,21.24 43.98,114.24 40.55,138.56 -9.28,66.01 -150.14,85.15 -179.99,45.53"
         style="fill:#ca583d;fill-opacity:1;fill-rule:nonzero;stroke:none"
         id="path362" />
      <path
         d="m 3312.88,3659.37 c -8.17,14.59 -8.91,33.66 -18.15,47.78 -7.82,11.96 -21.04,18.96 -34.5,21.28 -14.05,2.43 -28.97,0.38 -42.14,6.17 -8.36,3.68 -15.32,10.27 -23.41,14.58 -21.96,11.7 -51.47,3.29 -65.08,-18.55 -2.26,-3.61 -4.14,-7.56 -7.1,-10.53 -6.66,-6.71 -16.76,-6.84 -25.71,-8.86 -10.9,-2.47 -26.61,-9.45 -31.27,-21.22 -4.65,-11.74 -4.69,-28.25 0.55,-39.61 9.13,-19.81 25.72,-20.32 43.03,-25 30.43,-8.23 58.82,3.53 89.38,4.73 13.03,0.51 34.01,-0.78 42.66,-11.49 13.23,-16.37 17.63,-37.75 20.06,-58.42 2.7,-22.91 -8.05,-63.42 8.5,-81.59 10.12,7.41 43.76,18.08 47.87,31.31 3.76,12.1 -0.3,25.77 3.36,37.91 3.21,10.67 11.78,18.34 17.35,27.83 11.03,18.8 8.67,45.42 -5.47,61.66 -5.29,6.08 -11.95,10.73 -16.81,17.21 -1.15,1.54 -2.18,3.15 -3.12,4.81"
         style="fill:#131a24;fill-opacity:1;fill-rule:nonzero;stroke:none"
         id="path364" />
      <path
         d="m 3125.39,3443.55 c 39.71,-23.98 82.05,-17.26 100.86,-9.97 35.23,13.68 38.67,47.91 38.67,47.91"
         style="fill:none;stroke:#732b1d;stroke-width:7.5;stroke-linecap:butt;stroke-linejoin:round;stroke-miterlimit:10;stroke-dasharray:none;stroke-opacity:1"
         id="path366" />
      <path
         d="m 3167.77,3567.15 c 0,0 -4.96,-40.12 -1.36,-47.7 3.6,-7.57 25.43,-1.8 25.43,-1.8"
         style="fill:none;stroke:#732b1d;stroke-width:7.5;stroke-linecap:butt;stroke-linejoin:round;stroke-miterlimit:10;stroke-dasharray:none;stroke-opacity:1"
         id="path368" />
      <path
         d="m 3205.73,3556.27 c -0.3,-3.87 1.82,-7.19 4.75,-7.42 2.92,-0.23 5.54,2.72 5.84,6.58 0.31,3.87 -1.81,7.19 -4.74,7.42 -2.92,0.24 -5.54,-2.71 -5.85,-6.58"
         style="fill:#131a24;fill-opacity:1;fill-rule:nonzero;stroke:none"
         id="path370" />
      <path
         d="m 3123.64,3563.34 c -0.3,-3.86 1.82,-7.18 4.74,-7.42 2.92,-0.23 5.54,2.72 5.85,6.59 0.31,3.86 -1.82,7.19 -4.74,7.42 -2.93,0.23 -5.54,-2.72 -5.85,-6.59"
         style="fill:#131a24;fill-opacity:1;fill-rule:nonzero;stroke:none"
         id="path372" />
      <path
         d="m 3236.84,3587.99 c -1.04,1.78 -2.12,3.53 -3.25,5.26 -0.42,0.64 -0.87,1.31 -1.53,1.7 -0.79,0.47 -1.76,0.49 -2.68,0.48 -7.33,-0.05 -14.65,-0.94 -21.79,-2.62 -3.25,-0.76 -7.1,-1.44 -10.09,-2.95 -3.96,-2 -3.33,-1.96 -1.2,-5.96 0.21,-0.4 0.44,-0.81 0.82,-1.05 0.63,-0.4 1.46,-0.2 2.18,0.01 11.69,3.44 24.07,4.48 36.17,3.05 0.63,-0.07 1.41,-0.08 1.71,0.48 0.26,0.47 -0.02,1.04 -0.34,1.6"
         style="fill:#131a24;fill-opacity:1;fill-rule:nonzero;stroke:none"
         id="path374" />
      <path
         d="m 3117.41,3591.05 c 0.94,1.73 1.91,3.43 2.92,5.1 0.38,0.62 0.78,1.26 1.34,1.62 0.66,0.43 1.44,0.41 2.18,0.35 5.88,-0.4 11.72,-1.64 17.35,-3.66 2.57,-0.92 5.62,-1.78 7.93,-3.44 3.06,-2.18 2.56,-2.12 0.61,-6.01 -0.2,-0.38 -0.4,-0.79 -0.72,-1.01 -0.54,-0.37 -1.19,-0.12 -1.76,0.13 -9.18,3.99 -19.07,5.63 -28.88,4.79 -0.5,-0.05 -1.13,-0.01 -1.34,0.55 -0.18,0.48 0.07,1.04 0.37,1.58"
         style="fill:#131a24;fill-opacity:1;fill-rule:nonzero;stroke:none"
         id="path376" />
      <path
         d="m 3151.32,3493.7 h 69.38 c 0,0 1.04,-36.1 -42.23,-36.1 -28.52,0 -27.15,36.1 -27.15,36.1"
         style="fill:#ffffff;fill-opacity:1;fill-rule:nonzero;stroke:none"
         id="path378" />
      <path
         d="m 3255.46,3530.65 c 2.44,5.87 12.16,14.42 18.13,14.61 5.97,0.2 11.85,-2.58 16.61,-6.62 22.36,-19 7.18,-63.41 -23.04,-62.99 -11.1,0.15 -10.16,14.94 -10.16,14.94"
         style="fill:#ca583d;fill-opacity:1;fill-rule:nonzero;stroke:none"
         id="path380" />
      <path
         d="m 2852.66,2899.95 c 0,0 21.86,229.57 55.96,294.09"
         style="fill:none;stroke:#a4928c;stroke-width:7.5;stroke-linecap:butt;stroke-linejoin:round;stroke-miterlimit:10;stroke-dasharray:none;stroke-opacity:1"
         id="path382" />
      <path
         d="m 3540.88,2916.97 c 0,0 -27.13,212.55 -61.22,277.07"
         style="fill:none;stroke:#a4928c;stroke-width:7.5;stroke-linecap:butt;stroke-linejoin:round;stroke-miterlimit:10;stroke-dasharray:none;stroke-opacity:1"
         id="path384" />
      <path
         d="m 1873.82,3276.33 c 0,0 -179.07,-119.5 -292.52,-77.98 -83.43,30.53 -253.14,285.66 -253.14,285.66 l -131.9,-56.13 c 34.49,-67.13 200.54,-449.33 407.5,-463.77 172.85,-12.05 373.43,89.02 373.43,89.02"
         style="fill:#f9aaa1;fill-opacity:1;fill-rule:nonzero;stroke:none"
         id="path386" />
      <path
         d="m 1368.95,3421.78 c -17.56,31.95 -43.98,74.73 -60.98,106.97 -8.26,15.68 -24.92,48.19 -33.19,48.19 -15.83,0 10,-46.05 -0.69,-47.43 -6.49,-0.84 -22.73,35.01 -29.63,53.38 -6.15,16.39 -13.84,36.84 -25.39,36.84 -10.02,0 24.51,-96.89 24.51,-96.89 0,0 -45.34,99 -57.72,97.4 -17.84,-2.31 31.77,-109.39 31.77,-109.39 0,0 -44.99,91.85 -58.19,90.15 -13.21,-1.71 22.06,-73.91 33.51,-103.57 -9.76,16.98 -41.04,81.28 -50.66,80.03 -9.63,-1.24 0.53,-37.49 4.1,-46.13 21.55,-52.22 75.17,-151.45 75.17,-151.45"
         style="fill:#f9aaa1;fill-opacity:1;fill-rule:nonzero;stroke:none"
         id="path388" />
      <path
         d="m 1207.91,3479.9 c 0,0 63.74,-12.61 84.76,-59.54"
         style="fill:none;stroke:#eb7b7e;stroke-width:7.5;stroke-linecap:butt;stroke-linejoin:round;stroke-miterlimit:10;stroke-dasharray:none;stroke-opacity:1"
         id="path390" />
      <path
         d="m 2660.36,481.121 h -291.88 l 1.88,35.75 h 291.87 l -1.87,-35.75"
         style="fill:#292827;fill-opacity:1;fill-rule:nonzero;stroke:none"
         id="path392" />
      <path
         d="m 2630.06,872.969 7.04,-245.149 -13.85,-110.949 -190.57,121.07 -22.65,263.239"
         style="fill:#f9aaa1;fill-opacity:1;fill-rule:nonzero;stroke:none"
         id="path394" />
      <path
         d="m 2432.68,637.941 c 0,0 -39.24,-70.359 -52,-89.992 -12.76,-19.629 -10.71,-38.418 -10.71,-38.418 0,0 276.27,0 291.76,0 5.1,29.739 -24.1,128.41 -24.1,128.41 0,0 -150.32,-10.371 -204.95,0"
         style="fill:#f68842;fill-opacity:1;fill-rule:nonzero;stroke:none"
         id="path396" />
      <path
         d="m 2494.38,614.109 h 69.48"
         style="fill:none;stroke:#292827;stroke-width:10;stroke-linecap:butt;stroke-linejoin:round;stroke-miterlimit:10;stroke-dasharray:none;stroke-opacity:1"
         id="path398" />
      <path
         d="m 2491.47,590.531 h 74.33"
         style="fill:none;stroke:#292827;stroke-width:10;stroke-linecap:butt;stroke-linejoin:round;stroke-miterlimit:10;stroke-dasharray:none;stroke-opacity:1"
         id="path400" />
      <path
         d="m 2488.82,566.941 h 79.55"
         style="fill:none;stroke:#292827;stroke-width:10;stroke-linecap:butt;stroke-linejoin:round;stroke-miterlimit:10;stroke-dasharray:none;stroke-opacity:1"
         id="path402" />
      <path
         d="m 2221.18,488.52 1.1,21.011 h -388.56 c -13.28,0 -25.21,6.969 -31.43,18.367 l -2.32,0.422 -1.77,-33.781 c -0.06,-1.258 0.35,-2.469 1.16,-3.391 l 0.77,-0.859 c 5.18,-5.848 12.67,-9.168 20.7,-9.168 h 392.56 c 4.09,0 7.57,3.309 7.79,7.399"
         style="fill:#292827;fill-opacity:1;fill-rule:nonzero;stroke:none"
         id="path404" />
      <path
         d="m 2208.29,872.969 -0.83,-243.258 -3.72,-112.84 h -378.13 c -8.75,0 -15.47,7.098 -15.01,15.848 v 0 c 0.34,6.551 4.68,12.433 10.93,14.793 l 177.78,81.297 -40.27,272.371"
         style="fill:#f9aaa1;fill-opacity:1;fill-rule:nonzero;stroke:none"
         id="path406" />
      <path
         d="m 1997.43,644.52 -185.21,-96.571 c -6.91,-2.961 -11.76,-10.328 -12.19,-18.551 v 0 c -0.58,-10.976 10.26,-19.867 19.93,-19.867 h 402.32 l -12.24,122.778 c 0,0 -141.02,-29.289 -212.61,12.211"
         style="fill:#f68842;fill-opacity:1;fill-rule:nonzero;stroke:none"
         id="path408" />
      <path
         d="m 1893.88,590.531 23.96,-45.301"
         style="fill:none;stroke:#292827;stroke-width:10;stroke-linecap:butt;stroke-linejoin:round;stroke-miterlimit:10;stroke-dasharray:none;stroke-opacity:1"
         id="path410" />
      <path
         d="m 1924.24,606.301 23.96,-45.289"
         style="fill:none;stroke:#292827;stroke-width:10;stroke-linecap:butt;stroke-linejoin:round;stroke-miterlimit:10;stroke-dasharray:none;stroke-opacity:1"
         id="path412" />
      <path
         d="m 1954.6,622.07 23.96,-45.289"
         style="fill:none;stroke:#292827;stroke-width:10;stroke-linecap:butt;stroke-linejoin:round;stroke-miterlimit:10;stroke-dasharray:none;stroke-opacity:1"
         id="path414" />
      <path
         d="m 2048.84,2707.58 -63.91,-31.47 -32.91,-101.62 c -52.85,-81.24 -132.29,-242.57 -124.21,-469.92 12.01,-337.9 122.02,-1335.211 122.02,-1335.211 h 275.06 l 12.95,1523.961 -1.52,528.44"
         style="fill:#4c5cb3;fill-opacity:1;fill-rule:nonzero;stroke:none"
         id="path416" />
      <path
         d="m 2447.97,2689.27 c 0,0 13.47,-37.01 33.32,-95.09 55.31,-65.65 130.85,-178.45 160.3,-329.97 58.62,-301.66 24.74,-1494.851 24.74,-1494.851 H 2399.37 L 2178.8,2299.46 c 0,0 -38.04,129.29 -26.75,344.75"
         style="fill:#4c5cb3;fill-opacity:1;fill-rule:nonzero;stroke:none"
         id="path418" />
      <path
         d="m 2233.28,1921.57 c -15.53,161.62 -72.29,420.79 -75.21,620.13"
         style="fill:none;stroke:#699dd9;stroke-width:7.5;stroke-linecap:butt;stroke-linejoin:round;stroke-miterlimit:10;stroke-dasharray:none;stroke-opacity:1"
         id="path420" />
      <path
         d="m 1952.05,2574.46 c 0,0 159.12,-85.49 529.2,19.72"
         style="fill:none;stroke:#699dd9;stroke-width:7.5;stroke-linecap:butt;stroke-linejoin:round;stroke-miterlimit:10;stroke-dasharray:none;stroke-opacity:1"
         id="path422" />
      <path
         d="m 2116.43,2542.3 -10.08,0.62 c -11.76,0.72 -20.2,10.9 -18.82,22.7 l 3.9,33.43 c 1.31,11.24 11.1,19.99 22.37,19.99 h 20.86"
         style="fill:none;stroke:#699dd9;stroke-width:7.5;stroke-linecap:butt;stroke-linejoin:round;stroke-miterlimit:10;stroke-dasharray:none;stroke-opacity:1"
         id="path424" />
      <path
         d="m 2139.34,2578.82 c -0.44,-8.48 -6.61,-15.36 -13.77,-15.36 -7.16,0 -12.61,6.88 -12.16,15.36 0.44,8.48 6.61,15.36 13.77,15.36 7.16,0 12.61,-6.88 12.16,-15.36"
         style="fill:#699dd9;fill-opacity:1;fill-rule:nonzero;stroke:none"
         id="path426" />
      <path
         d="m 2326.34,2558.35 c 0.14,2.64 -16.65,77.37 -16.65,77.37"
         style="fill:none;stroke:#699dd9;stroke-width:7.5;stroke-linecap:butt;stroke-linejoin:round;stroke-miterlimit:10;stroke-dasharray:none;stroke-opacity:1"
         id="path428" />
      <path
         d="m 1998.29,2558.35 c -1.93,2.04 26.02,80.55 26.02,80.55"
         style="fill:none;stroke:#699dd9;stroke-width:7.5;stroke-linecap:butt;stroke-linejoin:round;stroke-miterlimit:10;stroke-dasharray:none;stroke-opacity:1"
         id="path430" />
      <path
         d="m 2430.83,2580.67 c 0,0 93.05,-107.11 129.5,-297.4 36.44,-190.3 56.69,-1513.911 56.69,-1513.911"
         style="fill:none;stroke:#699dd9;stroke-width:7.5;stroke-linecap:butt;stroke-linejoin:round;stroke-miterlimit:10;stroke-dasharray:none;stroke-opacity:1"
         id="path432" />
      <path
         d="m 2294.24,2553.18 c 0,0 7.07,-77.29 182.71,-41.01"
         style="fill:none;stroke:#699dd9;stroke-width:7.5;stroke-linecap:butt;stroke-linejoin:round;stroke-miterlimit:10;stroke-dasharray:none;stroke-opacity:1"
         id="path434" />
      <path
         d="m 1924.22,2527.83 c 0,0 80.71,-37.47 106.64,14.47"
         style="fill:none;stroke:#699dd9;stroke-width:7.5;stroke-linecap:butt;stroke-linejoin:round;stroke-miterlimit:10;stroke-dasharray:none;stroke-opacity:1"
         id="path436" />
      <path
         d="m 2106.35,2542.92 c 0,0 -1.05,-182 13.95,-197.83 15,-15.83 57.5,-23.04 57.5,-23.04"
         style="fill:none;stroke:#699dd9;stroke-width:7.5;stroke-linecap:butt;stroke-linejoin:round;stroke-miterlimit:10;stroke-dasharray:none;stroke-opacity:1"
         id="path438" />
      <path
         d="m 2203.4,781.199 c 0,0 -19.04,1141.851 0.63,1351.171"
         style="fill:none;stroke:#699dd9;stroke-width:7.5;stroke-linecap:butt;stroke-linejoin:round;stroke-miterlimit:10;stroke-dasharray:none;stroke-opacity:1"
         id="path440" />
      <path
         d="m 2511.61,3162.54 c -35.95,53.48 -233.42,173.24 -233.42,173.24 -62.11,7.76 -133.02,6.03 -133.02,6.03 0,0 -80.16,-86.45 -147.9,-183.34 -56.44,-56.43 -62.85,-127.06 -61.69,-185.4 1.64,-83.07 30.42,-202.92 37.21,-334.17 113.19,-41.15 325.85,-31.75 487.11,14.5 0,0 87.65,455.66 51.71,509.14"
         style="fill:#f68842;fill-opacity:1;fill-rule:nonzero;stroke:none"
         id="path442" />
      <path
         d="m 2145.17,3341.81 c 0,0 -109.34,23.53 -272.09,-55.63 -122.65,-59.65 -142.86,-73.56 -142.86,-73.56 l 94.75,-232.62 265.39,116.09"
         style="fill:#f68842;fill-opacity:1;fill-rule:nonzero;stroke:none"
         id="path444" />
      <path
         d="m 2100.31,3345.07 c -18.25,-21.05 -86.3,-45.68 -94.67,-41.5 -8.37,4.19 17.33,24.91 20.37,30.36 -21.09,-0.91 -39.64,-4.91 -53.41,-9.69 -17.25,-5.99 -35.85,-10.65 -52.8,-17.45 11.25,16.5 37.81,37.58 48.07,42.36 39.99,18.62 93.06,19.44 132.44,-4.08"
         style="fill:#ca583d;fill-opacity:1;fill-rule:nonzero;stroke:none"
         id="path446" />
      <path
         d="m 2391.07,3043.02 170.49,-149.85 163.54,171.67 c 0,0 -81.68,82.85 -157.55,158.72 -149.01,149.01 -289.36,112.22 -289.36,112.22"
         style="fill:#f68842;fill-opacity:1;fill-rule:nonzero;stroke:none"
         id="path448" />
      <path
         d="m 2506.58,2941.5 -102.4,90"
         style="fill:none;stroke:#ae2c21;stroke-width:7.5;stroke-linecap:butt;stroke-linejoin:round;stroke-miterlimit:10;stroke-dasharray:none;stroke-opacity:1"
         id="path450" />
      <path
         d="m 1939.33,3033.7 c 0,0 9.29,76.13 57.94,124.77"
         style="fill:none;stroke:#ae2c21;stroke-width:7.5;stroke-linecap:butt;stroke-linejoin:round;stroke-miterlimit:10;stroke-dasharray:none;stroke-opacity:1"
         id="path452" />
      <path
         d="m 1769.33,3234.27 92.33,-238.22"
         style="fill:none;stroke:#ae2c21;stroke-width:7.5;stroke-linecap:butt;stroke-linejoin:round;stroke-miterlimit:10;stroke-dasharray:none;stroke-opacity:1"
         id="path454" />
      <path
         d="m 2534.48,2916.97 159.76,179.12"
         style="fill:none;stroke:#ae2c21;stroke-width:7.5;stroke-linecap:butt;stroke-linejoin:round;stroke-miterlimit:10;stroke-dasharray:none;stroke-opacity:1"
         id="path456" />
      <path
         d="m 2129.35,3341.97 c 0,0 -26.1,-64.69 59.72,-69.97 100.44,-6.18 110.4,64.59 110.4,64.59"
         style="fill:none;stroke:#ae2c21;stroke-width:7.5;stroke-linecap:butt;stroke-linejoin:round;stroke-miterlimit:10;stroke-dasharray:none;stroke-opacity:1"
         id="path458" />
      <path
         d="m 2151.3,3431.78 -6.74,-98.96 c 0,0 -7.48,-41.13 56.2,-41.13 57.42,0 77.43,44.09 77.43,44.09 l -16.15,144.25"
         style="fill:#f9aaa1;fill-opacity:1;fill-rule:nonzero;stroke:none"
         id="path460" />
      <path
         d="m 2115.66,3659.41 c -27.45,-60.06 -67.23,-186.33 -0.17,-235.56 15.44,-11.33 40.83,-12.87 67.82,-5.46 58.49,16.05 99.53,55.55 114.09,93.4 18.3,47.54 -88.73,243.57 -181.74,147.62"
         style="fill:#f9aaa1;fill-opacity:1;fill-rule:nonzero;stroke:none"
         id="path462" />
      <path
         d="m 2119.15,3475.53 67.32,4.5 c 0,0 -10.33,-33.67 -39.62,-33.67 -29.29,0 -27.7,29.17 -27.7,29.17"
         style="fill:#ffffff;fill-opacity:1;fill-rule:nonzero;stroke:none"
         id="path464" />
      <path
         d="m 2363.52,3634.96 c 8.62,-10.27 19.46,-18.15 34.97,-22.88 24.8,-7.57 40.44,-13.02 54.45,-36.82 14,-23.78 11.1,-64.76 37.15,-76.77 24.65,-11.37 55.06,1.49 71.47,-27.14 -8.6,-33.75 -66.47,-123.48 -88.69,-154.2 -19.16,19.16 -27.66,23.13 -48.37,27.54 -16.33,3.49 -33.71,1.11 -49.6,6.27 -14.47,4.7 -26.51,15.44 -34.71,28.26 -5.34,8.33 -9.29,17.68 -16.07,24.88 -9.66,10.27 -23.78,14.88 -37.41,18.49 -8.61,2.28 -17.49,4.41 -24.82,9.46 -16.72,11.53 -20.97,31.06 -22.02,49.61 -1.34,23.83 -1.15,47.55 -1.09,71.41 0.05,25.67 -24.29,37.87 -39.26,54.6 -1.98,2.21 -29.52,40.32 -24.41,42.24 -24.04,-9.04 -68.31,-25.12 -87.11,-42.61 -21.35,48.96 17.55,106.87 73.87,103.45 8.14,-0.5 23.89,9.84 32.95,11.61 11.63,2.27 23.55,2.89 35.36,2.17 24.05,-1.47 47.8,-8.52 68.97,-19.94 16.63,-8.97 37.84,-22.43 46.34,-40.01 5.41,-11.18 10.98,-21.2 18.03,-29.62"
         style="fill:#292827;fill-opacity:1;fill-rule:nonzero;stroke:none"
         id="path466" />
      <path
         d="m 2142.94,3555.56 c 0,0 -30.79,-37.23 -26.82,-47.02 3.97,-9.79 25.93,-8.51 25.93,-8.51"
         style="fill:none;stroke:#eb7b7e;stroke-width:7.5;stroke-linecap:butt;stroke-linejoin:round;stroke-miterlimit:10;stroke-dasharray:none;stroke-opacity:1"
         id="path468" />
      <path
         d="m 2188.17,3548.29 c 0.29,-0.62 0.55,-1.28 0.76,-1.91 1.53,-4.69 0.44,-8.79 -0.18,-13.52 -0.99,-7.51 -13.43,-4.94 -11.64,2.66 1.09,4.67 2.45,9.65 4.97,13.77 2.48,4.06 4.72,1.89 6.09,-1"
         style="fill:#131a24;fill-opacity:1;fill-rule:nonzero;stroke:none"
         id="path470" />
      <path
         d="m 2114.19,3569.96 c 0.16,-0.66 0.28,-1.35 0.37,-2.02 0.6,-4.89 -1.26,-8.7 -2.78,-13.22 -2.42,-7.19 -14.13,-2.26 -10.91,4.86 1.97,4.36 4.27,8.99 7.53,12.54 3.22,3.51 5,0.95 5.79,-2.16"
         style="fill:#131a24;fill-opacity:1;fill-rule:nonzero;stroke:none"
         id="path472" />
      <path
         d="m 2217.8,3549.32 c 0,0 0.81,3.51 -0.36,9.13 -1.14,5.39 -4.86,12.16 -10.55,17.1 -5.71,4.88 -13.29,7.6 -19.13,7.21 -2.91,-0.06 -5.24,-1.09 -6.69,-1.69 -1.47,-0.84 -2.15,-1.44 -2.15,-1.44 0,0 0.98,-0.28 2.4,-0.56 1.45,-0.28 3.35,-1.17 5.41,-2.14 4.14,-2.02 8.97,-5.34 13.47,-9.22 4.5,-3.84 8.72,-8.2 11.95,-11.87 1.47,-1.81 3.15,-3.3 3.99,-4.64 0.97,-1.22 1.66,-1.88 1.66,-1.88"
         style="fill:#131a24;fill-opacity:1;fill-rule:nonzero;stroke:none"
         id="path474" />
      <path
         d="m 2135.58,3588.23 c 0,0 -0.12,0.74 -0.51,1.87 -0.37,0.95 -1.36,2.95 -2.95,4.36 -3.11,3.23 -9.13,5.25 -14.82,4.63 -5.72,-0.59 -10.86,-3.61 -13.52,-6.92 -2.71,-3.34 -3.12,-6.28 -3.12,-6.28 0,0 0.78,0.11 1.88,0.4 1.04,0.37 2.73,0.53 4.4,0.88 3.42,0.65 7.48,1.31 11.43,1.67 3.93,0.44 7.79,0.66 11.06,0.38 3.17,-0.03 6.16,-1.13 6.15,-0.99"
         style="fill:#131a24;fill-opacity:1;fill-rule:nonzero;stroke:none"
         id="path476" />
      <path
         d="m 2231.43,3436.5 c 0,0 -32.93,-25.78 -81.56,-25.78"
         style="fill:none;stroke:#eb7b7e;stroke-width:7.5;stroke-linecap:butt;stroke-linejoin:round;stroke-miterlimit:10;stroke-dasharray:none;stroke-opacity:1"
         id="path478" />
      <path
         d="m 2229.94,3518.77 c 8.77,23.49 33.02,15.86 38.99,9.96 4.31,-4.26 5.4,-10.82 5.2,-16.88 -0.5,-15.19 -7.93,-30.02 -19.81,-39.5 -4.24,-3.39 -9.15,-6.16 -14.53,-6.93 -15.11,-2.17 -23.07,10.24 -21.53,22.85"
         style="fill:#f9aaa1;fill-opacity:1;fill-rule:nonzero;stroke:none"
         id="path480" />
      <path
         d="M 4517.94,4610.99 H 2982.06 c -182.87,0 -331.12,-148.25 -331.12,-331.12 v 0 c 0,-125.7 70.04,-235.03 173.22,-291.12 -24.61,-55.92 -76.88,-88.61 -111.61,-103.68 50.61,-2.62 137.61,9.56 185.63,74.42 26.79,-7 54.9,-10.74 83.88,-10.74 h 392.42 c -11.74,-41.51 -36.88,-75.21 -56.71,-95.76 37.9,13.51 93.53,44.39 124.56,95.76 h 554.63 c 31.04,-51.37 86.66,-82.25 124.56,-95.76 -19.83,20.55 -44.97,54.25 -56.71,95.76 h 453.13 c 10.32,0 20.52,0.53 30.6,1.46 49.15,-56.74 130.11,-67.63 178.2,-65.14 -29.99,13.01 -73.09,39.12 -100.15,82.01 129.48,44.97 222.47,167.98 222.47,312.79 v 0 c 0,182.87 -148.25,331.12 -331.12,331.12"
         style="fill:#ffffff;fill-opacity:1;fill-rule:nonzero;stroke:none"
         id="path482" />
      <path
         d="M 4517.94,4610.99 H 2982.06 c -182.87,0 -331.12,-148.25 -331.12,-331.12 v 0 c 0,-125.7 70.04,-235.03 173.22,-291.12 -24.61,-55.92 -76.88,-88.61 -111.61,-103.68 50.61,-2.62 137.61,9.56 185.63,74.42 26.79,-7 54.9,-10.74 83.88,-10.74 h 392.42 c -11.74,-41.51 -36.88,-75.21 -56.71,-95.76 37.9,13.51 93.53,44.39 124.56,95.76 h 554.63 c 31.04,-51.37 86.66,-82.25 124.56,-95.76 -19.83,20.55 -44.97,54.25 -56.71,95.76 h 453.13 c 10.32,0 20.52,0.53 30.6,1.46 49.15,-56.74 130.11,-67.63 178.2,-65.14 -29.99,13.01 -73.09,39.12 -100.15,82.01 129.48,44.97 222.47,167.98 222.47,312.79 v 0 c 0,182.87 -148.25,331.12 -331.12,331.12 z"
         style="fill:none;stroke:#9fc1e6;stroke-width:10;stroke-linecap:butt;stroke-linejoin:round;stroke-miterlimit:10;stroke-dasharray:none;stroke-opacity:1"
         id="path484" />
      <g
         id="g486"
         transform="scale(10)">
        <text
           xml:space="preserve"
           transform="matrix(1,0,0,-1,285.548,408.939)"
           style="font-variant:normal;font-weight:normal;font-size:50.8116px;font-family:BebasNeueBold;-inkscape-font-specification:BebasNeueBold;writing-mode:lr-tb;fill:#699dd9;fill-opacity:1;fill-rule:nonzero;stroke:none"
           id="text490"><tspan
             x="0 32.671387 55.434608 76.724213 100.40192 124.58791 156.14114"
             y="0"
             sodipodi:role="line"
             id="tspan488">Welcome {Seller} </tspan></text>
            
            
      </g>
      <path
         d="m 3851.05,263.25 c -4.33,-4.43 -8.04,-9.309 -11.09,-14.531 l -4.66,2.41 c -0.66,2.973 -3.48,5.031 -6.58,4.66 -3.31,-0.391 -5.68,-3.379 -5.29,-6.699 0.39,-3.309 3.39,-5.68 6.7,-5.289 0.65,0.078 1.27,0.269 1.84,0.531 l 4.51,-2.34 c -2.51,-5.543 -4.33,-11.39 -5.39,-17.453 l 7.46,-1.297 c 2.3,13.047 8.49,25.047 17.92,34.707 l -5.42,5.301"
         style="fill:#1e2328;fill-opacity:1;fill-rule:nonzero;stroke:none"
         id="path492" />
      <path
         d="m 3905.92,286.27 c -1.71,0 -3.41,-0.071 -5.1,-0.168 l -0.73,6.257 c 1.88,1.493 2.96,3.891 2.66,6.442 -0.46,3.937 -4.03,6.75 -7.95,6.289 -3.94,-0.469 -6.75,-4.02 -6.29,-7.961 0.3,-2.539 1.89,-4.609 4.05,-5.629 l 0.73,-6.238 c -7.14,-1.172 -14.03,-3.321 -20.59,-6.473 l 3.27,-6.828 c 9.33,4.469 19.41,6.719 29.95,6.719 4.96,0 9.93,-0.52 14.75,-1.571 l 1.61,7.411 c -5.35,1.16 -10.85,1.75 -16.36,1.75"
         style="fill:#1e2328;fill-opacity:1;fill-rule:nonzero;stroke:none"
         id="path494" />
      <path
         d="m 3971.94,260.789 c 3.32,0.41 5.67,3.422 5.26,6.731 -0.4,3.312 -3.42,5.66 -6.72,5.261 -3.1,-0.383 -5.35,-3.039 -5.3,-6.09 l -4.16,-3.632 c -4.18,4.3 -8.9,8.121 -14.08,11.39 l -4.04,-6.41 c 11.34,-7.148 20.21,-17.269 25.64,-29.258 l 6.9,3.129 c -2.51,5.539 -5.67,10.719 -9.42,15.449 l 4.02,3.512 c 0.61,-0.121 1.25,-0.152 1.9,-0.082"
         style="fill:#1e2328;fill-opacity:1;fill-rule:nonzero;stroke:none"
         id="path496" />
      <path
         d="m 3900.44,184.18 c -3.86,-0.231 -7.74,-0.34 -11.57,-0.34 -8.8,0 -17.33,0.609 -24.78,1.789 -3.9,0.621 -8.46,1.551 -12.7,2.922 10.46,-18.61 30.69,-31.25 53.88,-31.25 28.56,0 52.62,19.16 59.5,45.039 -6.82,-4.5 -15.06,-8.25 -24.59,-11.231 -11.79,-3.679 -25.54,-6.07 -39.74,-6.929"
         style="fill:#1e2328;fill-opacity:1;fill-rule:nonzero;stroke:none"
         id="path498" />
      <path
         d="m 3931.7,215.039 c -7.5,0 -13.6,6.109 -13.6,13.609 0,7.5 6.1,13.602 13.6,13.602 7.5,0 13.6,-6.102 13.6,-13.602 0,-7.5 -6.1,-13.609 -13.6,-13.609 z m -47.37,-9.078 c -10.21,0 -18.5,8.301 -18.5,18.5 0,10.199 8.29,18.488 18.5,18.488 10.19,0 18.49,-8.289 18.49,-18.488 0,-10.199 -8.3,-18.5 -18.49,-18.5 z m 21.59,65.148 c -33.52,0 -60.79,-26.66 -60.79,-59.437 0,-4.25 0.46,-8.481 1.37,-12.613 6.73,-4.829 27.06,-8.899 53.47,-7.309 28.79,1.73 52.97,9.57 66.72,21.582 -0.05,1.957 -0.2,3.91 -0.45,5.816 -3.8,29.622 -29.73,51.961 -60.32,51.961"
         style="fill:#1e2328;fill-opacity:1;fill-rule:nonzero;stroke:none"
         id="path500" />
      <path
         d="m 4065.96,252.43 c -2.95,1.172 -8.06,3.09 -13.83,2.379 -5.51,-0.688 -8.44,-3.407 -8.44,-10.067 v -8.652 h 22.28 v -17.18 h -22.28 v -54.539 h -19.31 v 54.539 h -13.4 v 17.18 h 13.4 v 8.871 c 0,16.809 8.95,27.84 25.68,27.84 6.43,0 11.57,-1.219 15.9,-3.09 V 252.43"
         style="fill:#1e2328;fill-opacity:1;fill-rule:nonzero;stroke:none"
         id="path502" />
      <path
         d="m 4112.98,219.109 c -1.77,0.313 -3.57,0.473 -5.26,0.473 -8.96,0 -15.1,-5.48 -15.1,-16.141 v -39.07 h -19.32 v 71.719 h 18.73 v -7.848 c 4.51,6.727 11.4,9.77 20.21,9.77 4.14,0 8.48,-1.282 10.94,-3.371 l -10.2,-15.532"
         style="fill:#1e2328;fill-opacity:1;fill-rule:nonzero;stroke:none"
         id="path504" />
      <path
         d="m 4138.51,207 h 31.75 c -1.77,9.172 -7.33,14.359 -15.62,14.359 -9.1,0 -14.42,-5.48 -16.13,-14.359 z m 51.14,-6.66 c 0,-2.219 -0.15,-4.891 -0.37,-6.52 h -50.84 c 2.07,-10.359 9.33,-14.871 18.43,-14.871 6.21,0 12.95,2.512 18.13,6.871 l 11.32,-12.429 c -8.13,-7.469 -18.51,-10.879 -30.57,-10.879 -21.98,0 -37.22,14.949 -37.22,37.527 0,22.57 14.8,37.973 36.27,37.973 20.64,0 34.78,-15.321 34.85,-37.672"
         style="fill:#1e2328;fill-opacity:1;fill-rule:nonzero;stroke:none"
         id="path506" />
      <path
         d="m 4215.04,207 h 31.76 c -1.78,9.172 -7.33,14.359 -15.63,14.359 -9.1,0 -14.43,-5.48 -16.13,-14.359 z m 51.14,-6.66 c 0,-2.219 -0.14,-4.891 -0.37,-6.52 h -50.84 c 2.07,-10.359 9.33,-14.871 18.43,-14.871 6.21,0 12.95,2.512 18.13,6.871 l 11.32,-12.429 c -8.14,-7.469 -18.5,-10.879 -30.56,-10.879 -21.99,0 -37.23,14.949 -37.23,37.527 0,22.57 14.8,37.973 36.26,37.973 20.65,0 34.79,-15.321 34.86,-37.672"
         style="fill:#1e2328;fill-opacity:1;fill-rule:nonzero;stroke:none"
         id="path508" />
      <path
         d="m 4292.87,200.262 c 0,-11.321 7.48,-19.762 18.43,-19.762 11.4,0 18.51,8.809 18.51,19.762 0,10.949 -7.11,19.758 -18.51,19.758 -10.95,0 -18.43,-8.43 -18.43,-19.758 z m 56.77,0 c 0,-21.543 -14.95,-37.75 -34.71,-37.75 -9.63,0 -16.43,3.777 -21.09,9.328 v -37.078 h -19.25 V 236.09 h 18.88 v -7.918 c 4.66,5.848 11.54,9.84 21.39,9.84 19.83,0 34.78,-16.211 34.78,-37.75"
         style="fill:#1e2328;fill-opacity:1;fill-rule:nonzero;stroke:none"
         id="path510" />
      <path
         d="m 4378.09,164.371 h -19.32 v 71.719 h 19.32 z m 2.59,95.168 c 0,-6.949 -5.41,-12.277 -12.36,-12.277 -6.96,0 -12.29,5.328 -12.29,12.277 0,6.973 5.33,12.453 12.29,12.453 6.95,0 12.36,-5.48 12.36,-12.453"
         style="fill:#1e2328;fill-opacity:1;fill-rule:nonzero;stroke:none"
         id="path512" />
      <path
         d="m 4410.32,210.551 27.02,25.539 h 23.69 l -34.8,-33.75 35.01,-37.969 h -23.76 l -27.16,29.008 v -29.008 h -19.31 v 106.57 h 19.31 v -60.39"
         style="fill:#1e2328;fill-opacity:1;fill-rule:nonzero;stroke:none"
         id="path514" />
      <path
         d="m 3094.13,184.199 v 32.082 c -3.96,6.149 -12.45,11.43 -21.24,11.43 -14.21,0 -22.71,-11.719 -22.71,-27.391 0,-15.679 8.5,-27.25 22.71,-27.25 8.79,0 17.28,4.981 21.24,11.129 z m 0,-19.187 v 10.547 c -5.28,-7.18 -13.92,-12.297 -23.88,-12.297 -18.46,0 -31.49,14.058 -31.49,37.058 0,22.551 12.89,37.2 31.49,37.2 9.52,0 18.16,-4.68 23.88,-12.45 v 37.649 h 10.98 v -97.707 h -10.98"
         style="fill:#1e2328;fill-opacity:1;fill-rule:nonzero;stroke:none"
         id="path516" />
      <path
         d="m 3154.03,228.441 c -15.08,0 -22.55,-12.742 -23.14,-23.582 h 46.44 c -0.15,10.539 -7.18,23.582 -23.3,23.582 z m -34.71,-27.98 c 0,20.508 14.65,37.059 34.86,37.059 21.39,0 33.99,-16.7 33.99,-37.938 v -2.781 h -57.28 c 0.88,-13.332 10.26,-24.461 25.49,-24.461 8.06,0 16.26,3.219 21.82,8.93 l 5.28,-7.18 c -7.03,-7.031 -16.55,-10.828 -28.13,-10.828 -20.94,0 -36.03,15.078 -36.03,37.199"
         style="fill:#1e2328;fill-opacity:1;fill-rule:nonzero;stroke:none"
         id="path518" />
      <path
         d="m 3196.07,174.391 5.71,7.91 c 4.69,-5.422 13.63,-10.11 23.29,-10.11 10.84,0 16.7,5.129 16.7,12.161 0,17.136 -43.79,6.589 -43.79,32.808 0,10.988 9.52,20.36 26.36,20.36 12.01,0 20.51,-4.54 26.22,-10.25 l -5.13,-7.622 c -4.24,5.133 -12.01,8.942 -21.09,8.942 -9.67,0 -15.67,-4.84 -15.67,-11.141 0,-15.519 43.79,-5.269 43.79,-32.808 0,-11.86 -9.51,-21.379 -27.82,-21.379 -11.58,0 -21.39,3.508 -28.57,11.129"
         style="fill:#1e2328;fill-opacity:1;fill-rule:nonzero;stroke:none"
         id="path520" />
      <path
         d="m 3266.67,165.012 v 70.75 h 10.99 v -70.75 z m -1.9,88.187 c 0,4.102 3.37,7.473 7.33,7.473 4.09,0 7.46,-3.371 7.46,-7.473 0,-4.109 -3.37,-7.328 -7.46,-7.328 -3.96,0 -7.33,3.219 -7.33,7.328"
         style="fill:#1e2328;fill-opacity:1;fill-rule:nonzero;stroke:none"
         id="path522" />
      <path
         d="m 3347.09,185.371 v 30.91 c -3.81,6.149 -12.31,11.43 -21.09,11.43 -14.22,0 -22.71,-11.281 -22.71,-26.949 0,-15.532 8.49,-26.961 22.71,-26.961 8.78,0 17.28,5.418 21.09,11.57 z m -51.27,-38.519 5.57,8.199 c 5.86,-7.031 12.89,-9.672 23,-9.672 11.72,0 22.7,5.723 22.7,21.242 v 10.109 c -5.13,-7.179 -13.77,-12.601 -23.73,-12.601 -18.46,0 -31.49,13.769 -31.49,36.633 0,22.699 12.88,36.758 31.49,36.758 9.52,0 18.02,-4.68 23.73,-12.45 v 10.692 h 10.98 v -68.703 c 0,-23.43 -16.4,-30.758 -33.68,-30.758 -12.02,0 -20.22,2.347 -28.57,10.551"
         style="fill:#1e2328;fill-opacity:1;fill-rule:nonzero;stroke:none"
         id="path524" />
      <path
         d="m 3424.13,165.012 v 46.289 c 0,12.449 -6.29,16.41 -15.81,16.41 -8.65,0 -16.85,-5.281 -20.95,-10.992 v -51.707 h -10.99 v 70.75 h 10.99 v -10.25 c 4.98,5.859 14.64,12.008 25.19,12.008 14.8,0 22.56,-7.469 22.56,-22.848 v -49.66 h -10.99"
         style="fill:#1e2328;fill-opacity:1;fill-rule:nonzero;stroke:none"
         id="path526" />
      <path
         d="m 3484.04,228.441 c -15.08,0 -22.55,-12.742 -23.14,-23.582 h 46.43 c -0.15,10.539 -7.18,23.582 -23.29,23.582 z m -34.71,-27.98 c 0,20.508 14.65,37.059 34.86,37.059 21.38,0 33.99,-16.7 33.99,-37.938 v -2.781 h -57.28 c 0.88,-13.332 10.25,-24.461 25.49,-24.461 8.05,0 16.26,3.219 21.82,8.93 l 5.28,-7.18 c -7.03,-7.031 -16.55,-10.828 -28.13,-10.828 -20.94,0 -36.03,15.078 -36.03,37.199"
         style="fill:#1e2328;fill-opacity:1;fill-rule:nonzero;stroke:none"
         id="path528" />
      <path
         d="m 3583.5,184.199 v 32.082 c -3.96,6.149 -12.45,11.43 -21.24,11.43 -14.21,0 -22.7,-11.719 -22.7,-27.391 0,-15.679 8.49,-27.25 22.7,-27.25 8.79,0 17.28,4.981 21.24,11.129 z m 0,-19.187 v 10.547 c -5.27,-7.18 -13.91,-12.297 -23.88,-12.297 -18.45,0 -31.49,14.058 -31.49,37.058 0,22.551 12.89,37.2 31.49,37.2 9.52,0 18.17,-4.68 23.88,-12.45 v 37.649 h 10.98 v -97.707 h -10.98"
         style="fill:#1e2328;fill-opacity:1;fill-rule:nonzero;stroke:none"
         id="path530" />
      <path
         d="m 3679,173.07 c 14.36,0 22.86,11.571 22.86,27.25 0,15.672 -8.5,27.391 -22.86,27.391 -8.64,0 -17.28,-5.281 -21.09,-11.43 v -32.082 c 3.81,-6.148 12.45,-11.129 21.09,-11.129 z m -32.08,-8.058 v 97.707 h 10.99 V 225.07 c 5.71,7.77 14.21,12.45 23.87,12.45 18.46,0 31.5,-14.649 31.5,-37.2 0,-23 -13.04,-37.058 -31.5,-37.058 -9.96,0 -18.59,5.117 -23.87,12.297 v -10.547 h -10.99"
         style="fill:#1e2328;fill-opacity:1;fill-rule:nonzero;stroke:none"
         id="path532" />
      <path
         d="m 3725.29,147.289 c 1.61,-0.73 4.25,-1.168 6.01,-1.168 4.82,0 8.05,1.609 10.54,7.469 l 4.68,10.691 -29.58,71.481 h 11.87 l 23.57,-58 23.44,58 h 12.01 l -35.45,-85.102 c -4.24,-10.262 -11.42,-14.211 -20.8,-14.359 -2.34,0 -6,0.441 -8.05,1.031 l 1.76,9.957"
         style="fill:#1e2328;fill-opacity:1;fill-rule:nonzero;stroke:none"
         id="path534" />
    </g>
  </g>
</svg>
